<?xml version="1.0" encoding="UTF-8"?>
<!DOCTYPE svg PUBLIC "-//W3C//DTD SVG 1.1//EN" "http://www.w3.org/Graphics/SVG/1.1/DTD/svg11.dtd">
<!-- Creator: CorelDRAW X7 -->
<svg xmlns="http://www.w3.org/2000/svg" xml:space="preserve" width="873.125mm" height="582.083mm" version="1.1" style="shape-rendering:geometricPrecision; text-rendering:geometricPrecision; image-rendering:optimizeQuality; fill-rule:evenodd; clip-rule:evenodd"
viewBox="0 0 87313 58208"
 xmlns:xlink="http://www.w3.org/1999/xlink">
 <defs>
  <style type="text/css">
   <![CDATA[
    .fil35 {fill:#7D97F4;fill-rule:nonzero}
    .fil9 {fill:#91B3FA;fill-rule:nonzero}
    .fil2 {fill:#BDD0FB;fill-rule:nonzero}
    .fil0 {fill:white;fill-rule:nonzero}
    .fil26 {fill:url(#id0)}
    .fil29 {fill:url(#id1)}
    .fil39 {fill:url(#id2)}
    .fil94 {fill:url(#id3)}
    .fil31 {fill:url(#id4)}
    .fil32 {fill:url(#id5)}
    .fil23 {fill:url(#id6)}
    .fil36 {fill:url(#id7)}
    .fil4 {fill:url(#id8)}
    .fil28 {fill:url(#id9)}
    .fil5 {fill:url(#id10)}
    .fil12 {fill:url(#id11)}
    .fil13 {fill:url(#id12)}
    .fil21 {fill:url(#id13)}
    .fil22 {fill:url(#id14)}
    .fil20 {fill:url(#id15)}
    .fil11 {fill:url(#id16)}
    .fil111 {fill:url(#id17)}
    .fil6 {fill:url(#id18)}
    .fil24 {fill:url(#id19)}
    .fil17 {fill:url(#id20)}
    .fil30 {fill:url(#id21)}
    .fil18 {fill:url(#id22)}
    .fil19 {fill:url(#id23)}
    .fil15 {fill:url(#id24)}
    .fil16 {fill:url(#id25)}
    .fil25 {fill:url(#id26)}
    .fil73 {fill:url(#id27)}
    .fil7 {fill:url(#id28)}
    .fil3 {fill:url(#id29)}
    .fil104 {fill:url(#id30)}
    .fil10 {fill:url(#id31)}
    .fil110 {fill:url(#id32)}
    .fil133 {fill:url(#id33)}
    .fil55 {fill:url(#id34)}
    .fil85 {fill:url(#id35)}
    .fil70 {fill:url(#id36)}
    .fil27 {fill:url(#id37)}
    .fil97 {fill:url(#id38)}
    .fil14 {fill:url(#id39)}
    .fil91 {fill:url(#id40)}
    .fil50 {fill:url(#id41)}
    .fil34 {fill:url(#id42)}
    .fil99 {fill:url(#id43)}
    .fil8 {fill:url(#id44)}
    .fil92 {fill:url(#id45)}
    .fil49 {fill:url(#id46)}
    .fil101 {fill:url(#id47)}
    .fil75 {fill:url(#id48)}
    .fil103 {fill:url(#id49)}
    .fil135 {fill:url(#id50)}
    .fil42 {fill:url(#id51)}
    .fil57 {fill:url(#id52)}
    .fil134 {fill:url(#id53)}
    .fil96 {fill:url(#id54)}
    .fil131 {fill:url(#id55)}
    .fil67 {fill:url(#id56)}
    .fil136 {fill:url(#id57)}
    .fil83 {fill:url(#id58)}
    .fil122 {fill:url(#id59)}
    .fil62 {fill:url(#id60)}
    .fil126 {fill:url(#id61)}
    .fil80 {fill:url(#id62)}
    .fil132 {fill:url(#id63)}
    .fil128 {fill:url(#id64)}
    .fil127 {fill:url(#id65)}
    .fil124 {fill:url(#id66)}
    .fil102 {fill:url(#id67)}
    .fil95 {fill:url(#id68)}
    .fil93 {fill:url(#id69)}
    .fil109 {fill:url(#id70)}
    .fil65 {fill:url(#id71)}
    .fil98 {fill:url(#id72)}
    .fil88 {fill:url(#id73)}
    .fil86 {fill:url(#id74)}
    .fil117 {fill:url(#id75)}
    .fil59 {fill:url(#id76)}
    .fil53 {fill:url(#id77)}
    .fil118 {fill:url(#id78)}
    .fil79 {fill:url(#id79)}
    .fil45 {fill:url(#id80)}
    .fil113 {fill:url(#id81)}
    .fil108 {fill:url(#id82)}
    .fil77 {fill:url(#id83)}
    .fil44 {fill:url(#id84)}
    .fil60 {fill:url(#id85)}
    .fil78 {fill:url(#id86)}
    .fil40 {fill:url(#id87)}
    .fil61 {fill:url(#id88)}
    .fil54 {fill:url(#id89)}
    .fil41 {fill:url(#id90)}
    .fil47 {fill:url(#id91)}
    .fil100 {fill:url(#id92)}
    .fil33 {fill:url(#id93)}
    .fil72 {fill:url(#id94)}
    .fil74 {fill:url(#id95)}
    .fil68 {fill:url(#id96)}
    .fil64 {fill:url(#id97)}
    .fil71 {fill:url(#id98)}
    .fil105 {fill:url(#id99)}
    .fil38 {fill:url(#id100)}
    .fil69 {fill:url(#id101)}
    .fil63 {fill:url(#id102)}
    .fil129 {fill:url(#id103)}
    .fil37 {fill:url(#id104)}
    .fil46 {fill:url(#id105)}
    .fil114 {fill:url(#id106)}
    .fil106 {fill:url(#id107)}
    .fil66 {fill:url(#id108)}
    .fil82 {fill:url(#id109)}
    .fil120 {fill:url(#id110)}
    .fil90 {fill:url(#id111)}
    .fil125 {fill:url(#id112)}
    .fil52 {fill:url(#id113)}
    .fil138 {fill:url(#id114)}
    .fil107 {fill:url(#id115)}
    .fil121 {fill:url(#id116)}
    .fil112 {fill:url(#id117)}
    .fil137 {fill:url(#id118)}
    .fil116 {fill:url(#id119)}
    .fil51 {fill:url(#id120)}
    .fil119 {fill:url(#id121)}
    .fil130 {fill:url(#id122)}
    .fil76 {fill:url(#id123)}
    .fil81 {fill:url(#id124)}
    .fil87 {fill:url(#id125)}
    .fil43 {fill:url(#id126)}
    .fil115 {fill:url(#id127)}
    .fil48 {fill:url(#id128)}
    .fil56 {fill:url(#id129)}
    .fil89 {fill:url(#id130)}
    .fil58 {fill:url(#id131)}
    .fil123 {fill:url(#id132)}
    .fil84 {fill:url(#id133)}
    .fil1 {fill:url(#id134)}
   ]]>
  </style>
  <linearGradient id="id0" gradientUnits="userSpaceOnUse" x1="40888.7" y1="11650.1" x2="49146.3" y2="11650.1">
   <stop offset="0" style="stop-opacity:1; stop-color:#09005D"/>
   <stop offset="1" style="stop-opacity:1; stop-color:#1A0F91"/>
  </linearGradient>
  <linearGradient id="id1" gradientUnits="userSpaceOnUse" xlink:href="#id0" x1="52841.7" y1="28244.7" x2="38043.9" y2="28244.7">
  </linearGradient>
  <linearGradient id="id2" gradientUnits="userSpaceOnUse" xlink:href="#id0" x1="62888.3" y1="33769.6" x2="63879.4" y2="34392.6">
  </linearGradient>
  <linearGradient id="id3" gradientUnits="userSpaceOnUse" x1="61553.9" y1="51402.2" x2="61043.9" y2="51402.2">
   <stop offset="0" style="stop-opacity:1; stop-color:#FF928E"/>
   <stop offset="1" style="stop-opacity:1; stop-color:#FEB3B1"/>
  </linearGradient>
  <linearGradient id="id4" gradientUnits="userSpaceOnUse" xlink:href="#id0" x1="34631" y1="46120.5" x2="41864.5" y2="46120.5">
  </linearGradient>
  <linearGradient id="id5" gradientUnits="userSpaceOnUse" xlink:href="#id0" x1="54512.7" y1="46120.5" x2="47279.1" y2="46120.5">
  </linearGradient>
  <linearGradient id="id6" gradientUnits="userSpaceOnUse" xlink:href="#id0" x1="34491" y1="29328.8" x2="54596.7" y2="29328.8">
  </linearGradient>
  <linearGradient id="id7" gradientUnits="userSpaceOnUse" xlink:href="#id0" x1="74688.8" y1="29341.3" x2="75839.2" y2="30064.5">
  </linearGradient>
  <linearGradient id="id8" gradientUnits="userSpaceOnUse" x1="14024.7" y1="18201.4" x2="21377.6" y2="18201.4">
   <stop offset="0" style="stop-opacity:1; stop-color:#DAE3FE"/>
   <stop offset="1" style="stop-opacity:1; stop-color:#E9EFFD"/>
  </linearGradient>
  <linearGradient id="id9" gradientUnits="userSpaceOnUse" xlink:href="#id0" x1="36001.4" y1="28323.3" x2="50799.2" y2="28323.3">
  </linearGradient>
  <linearGradient id="id10" gradientUnits="userSpaceOnUse" xlink:href="#id8" x1="28152.3" y1="10951.2" x2="29661.9" y2="10951.2">
  </linearGradient>
  <linearGradient id="id11" gradientUnits="userSpaceOnUse" xlink:href="#id0" x1="28607.9" y1="16817.9" x2="30886.1" y2="16817.9">
  </linearGradient>
  <linearGradient id="id12" gradientUnits="userSpaceOnUse" xlink:href="#id0" x1="28607.9" y1="18153.4" x2="30886.1" y2="18153.4">
  </linearGradient>
  <linearGradient id="id13" gradientUnits="userSpaceOnUse" xlink:href="#id0" x1="28607.9" y1="27894.8" x2="30886.1" y2="27894.8">
  </linearGradient>
  <linearGradient id="id14" gradientUnits="userSpaceOnUse" xlink:href="#id0" x1="28607.9" y1="29230.3" x2="30886.1" y2="29230.3">
  </linearGradient>
  <linearGradient id="id15" gradientUnits="userSpaceOnUse" xlink:href="#id0" x1="29393.5" y1="28052" x2="30022" y2="28052">
  </linearGradient>
  <linearGradient id="id16" gradientUnits="userSpaceOnUse" xlink:href="#id0" x1="29393.5" y1="16975" x2="30022" y2="16975">
  </linearGradient>
  <linearGradient id="id17" gradientUnits="userSpaceOnUse" x1="60683.3" y1="35146.3" x2="58881.7" y2="33230.3">
   <stop offset="0" style="stop-opacity:1; stop-color:#FE7062"/>
   <stop offset="1" style="stop-opacity:1; stop-color:#FF928E"/>
  </linearGradient>
  <linearGradient id="id18" gradientUnits="userSpaceOnUse" xlink:href="#id8" x1="26824.6" y1="10937.9" x2="31013.2" y2="10937.9">
  </linearGradient>
  <linearGradient id="id19" gradientUnits="userSpaceOnUse" xlink:href="#id0" x1="29223.1" y1="12457.5" x2="59928.4" y2="12457.5">
  </linearGradient>
  <linearGradient id="id20" gradientUnits="userSpaceOnUse" xlink:href="#id0" x1="58460.7" y1="28052" x2="59089" y2="28052">
  </linearGradient>
  <linearGradient id="id21" gradientUnits="userSpaceOnUse" xlink:href="#id0" x1="35992.6" y1="41210.7" x2="53039.9" y2="41210.7">
  </linearGradient>
  <linearGradient id="id22" gradientUnits="userSpaceOnUse" xlink:href="#id0" x1="57675.1" y1="27894.8" x2="59953.5" y2="27894.8">
  </linearGradient>
  <linearGradient id="id23" gradientUnits="userSpaceOnUse" xlink:href="#id0" x1="57675.1" y1="29230.3" x2="59953.5" y2="29230.3">
  </linearGradient>
  <linearGradient id="id24" gradientUnits="userSpaceOnUse" xlink:href="#id0" x1="58067.7" y1="16817.9" x2="60345.7" y2="16817.9">
  </linearGradient>
  <linearGradient id="id25" gradientUnits="userSpaceOnUse" xlink:href="#id0" x1="58067.7" y1="18153.4" x2="60345.7" y2="18153.4">
  </linearGradient>
  <linearGradient id="id26" gradientUnits="userSpaceOnUse" xlink:href="#id0" x1="29223.1" y1="21413.1" x2="59457.2" y2="21413.1">
  </linearGradient>
  <linearGradient id="id27" gradientUnits="userSpaceOnUse" x1="9400.07" y1="48123.8" x2="9400.07" y2="47809.8">
   <stop offset="0" style="stop-opacity:1; stop-color:#4042E2"/>
   <stop offset="1" style="stop-opacity:1; stop-color:#4F52FF"/>
  </linearGradient>
  <linearGradient id="id28" gradientUnits="userSpaceOnUse" xlink:href="#id8" x1="60127.2" y1="29465.5" x2="67982.7" y2="29465.5">
  </linearGradient>
  <linearGradient id="id29" gradientUnits="userSpaceOnUse" xlink:href="#id8" x1="16359.5" y1="18223.1" x2="18996.5" y2="18223.1">
  </linearGradient>
  <linearGradient id="id30" gradientUnits="userSpaceOnUse" xlink:href="#id3" x1="60026.7" y1="39895" x2="58908.1" y2="39895">
  </linearGradient>
  <linearGradient id="id31" gradientUnits="userSpaceOnUse" xlink:href="#id8" x1="17746.9" y1="39199.8" x2="26924.6" y2="39199.8">
  </linearGradient>
  <linearGradient id="id32" gradientUnits="userSpaceOnUse" xlink:href="#id17" x1="60007.1" y1="32845.4" x2="59998" y2="33753.6">
  </linearGradient>
  <linearGradient id="id33" gradientUnits="userSpaceOnUse" xlink:href="#id17" x1="50799.9" y1="34742.6" x2="49454.1" y2="35324">
  </linearGradient>
  <linearGradient id="id34" gradientUnits="userSpaceOnUse" xlink:href="#id27" x1="74386.6" y1="46347" x2="77440.1" y2="42849.3">
  </linearGradient>
  <linearGradient id="id35" gradientUnits="userSpaceOnUse" xlink:href="#id27" x1="30768.3" y1="47259.8" x2="30768.3" y2="46945.5">
  </linearGradient>
  <linearGradient id="id36" gradientUnits="userSpaceOnUse" xlink:href="#id27" x1="9400.07" y1="45531.6" x2="9400.07" y2="45217.3">
  </linearGradient>
  <linearGradient id="id37" gradientUnits="userSpaceOnUse" xlink:href="#id0" x1="39783.2" y1="11296.6" x2="47900.9" y2="11296.6">
  </linearGradient>
  <linearGradient id="id38" gradientUnits="userSpaceOnUse" xlink:href="#id3" x1="56994.2" y1="36020.5" x2="53976.2" y2="36020.5">
  </linearGradient>
  <linearGradient id="id39" gradientUnits="userSpaceOnUse" xlink:href="#id0" x1="58853.3" y1="16975" x2="59482" y2="16975">
  </linearGradient>
  <linearGradient id="id40" gradientUnits="userSpaceOnUse" xlink:href="#id3" x1="59424.8" y1="51432.5" x2="58834.3" y2="51432.5">
  </linearGradient>
  <linearGradient id="id41" gradientUnits="userSpaceOnUse" xlink:href="#id8" x1="55848.3" y1="43920.6" x2="59420.3" y2="43920.6">
  </linearGradient>
  <linearGradient id="id42" gradientUnits="userSpaceOnUse" xlink:href="#id0" x1="75058.2" y1="42452" x2="75045.2" y2="43190.3">
  </linearGradient>
  <linearGradient id="id43" gradientUnits="userSpaceOnUse" xlink:href="#id3" x1="54188.4" y1="33511.3" x2="53657.5" y2="34148.3">
  </linearGradient>
  <linearGradient id="id44" gradientUnits="userSpaceOnUse" xlink:href="#id8" x1="63138.1" y1="40165.9" x2="72617.8" y2="40165.9">
  </linearGradient>
  <linearGradient id="id45" gradientUnits="userSpaceOnUse" xlink:href="#id0" x1="60767.3" y1="46915.4" x2="58931" y2="46915.4">
  </linearGradient>
  <linearGradient id="id46" gradientUnits="userSpaceOnUse" xlink:href="#id8" x1="62563.4" y1="47607.4" x2="66067.6" y2="47607.4">
  </linearGradient>
  <linearGradient id="id47" gradientUnits="userSpaceOnUse" xlink:href="#id3" x1="63559.9" y1="40295.5" x2="59816.7" y2="40295.5">
  </linearGradient>
  <linearGradient id="id48" gradientUnits="userSpaceOnUse" xlink:href="#id27" x1="9400.07" y1="49852.1" x2="9400.07" y2="49538.1">
  </linearGradient>
  <linearGradient id="id49" gradientUnits="userSpaceOnUse" x1="57679.4" y1="37646.6" x2="57717.2" y2="38273.3">
   <stop offset="0" style="stop-opacity:1; stop-color:#53D8FF"/>
   <stop offset="1" style="stop-opacity:1; stop-color:#3840F7"/>
  </linearGradient>
  <linearGradient id="id50" gradientUnits="userSpaceOnUse" xlink:href="#id17" x1="50109.4" y1="35347.8" x2="49888.2" y2="36168.5">
  </linearGradient>
  <linearGradient id="id51" gradientUnits="userSpaceOnUse" xlink:href="#id27" x1="64316.6" y1="45441.2" x2="66484.3" y2="42407.5">
  </linearGradient>
  <linearGradient id="id52" gradientUnits="userSpaceOnUse" xlink:href="#id27" x1="68945.1" y1="48610.3" x2="71977.9" y2="45167.4">
  </linearGradient>
  <linearGradient id="id53" gradientUnits="userSpaceOnUse" xlink:href="#id3" x1="50560.3" y1="35428.9" x2="50548.3" y2="35555.5">
  </linearGradient>
  <linearGradient id="id54" gradientUnits="userSpaceOnUse" xlink:href="#id17" x1="59058.3" y1="39506.1" x2="59372.4" y2="39926.7">
  </linearGradient>
  <linearGradient id="id55" gradientUnits="userSpaceOnUse" xlink:href="#id0" x1="50513.2" y1="45653.7" x2="49176.6" y2="42702.7">
  </linearGradient>
  <linearGradient id="id56" gradientUnits="userSpaceOnUse" xlink:href="#id27" x1="9400.07" y1="42904.4" x2="9400.07" y2="42659.3">
  </linearGradient>
  <linearGradient id="id57" gradientUnits="userSpaceOnUse" xlink:href="#id27" x1="50262.8" y1="39501.1" x2="52670.6" y2="38980">
  </linearGradient>
  <linearGradient id="id58" gradientUnits="userSpaceOnUse" xlink:href="#id27" x1="30768.3" y1="45531.6" x2="30768.3" y2="45217.3">
  </linearGradient>
  <linearGradient id="id59" gradientUnits="userSpaceOnUse" xlink:href="#id27" x1="51091.9" y1="40326.3" x2="48318.8" y2="39714.7">
  </linearGradient>
  <linearGradient id="id60" gradientUnits="userSpaceOnUse" xlink:href="#id27" x1="20079.8" y1="53008.1" x2="20167" y2="51017.2">
  </linearGradient>
  <linearGradient id="id61" gradientUnits="userSpaceOnUse" xlink:href="#id3" x1="50325.6" y1="36366.7" x2="50313.4" y2="36374.7">
  </linearGradient>
  <linearGradient id="id62" gradientUnits="userSpaceOnUse" xlink:href="#id27" x1="30768.3" y1="42904.4" x2="30768.3" y2="42659.3">
  </linearGradient>
  <linearGradient id="id63" gradientUnits="userSpaceOnUse" xlink:href="#id17" x1="50406.7" y1="36134.1" x2="50012.2" y2="34554.8">
  </linearGradient>
  <linearGradient id="id64" gradientUnits="userSpaceOnUse" xlink:href="#id0" x1="51062.3" y1="51638.3" x2="51090.2" y2="51673.3">
  </linearGradient>
  <linearGradient id="id65" gradientUnits="userSpaceOnUse" xlink:href="#id3" x1="51918.8" y1="50866.1" x2="47416.7" y2="47113.3">
  </linearGradient>
  <linearGradient id="id66" gradientUnits="userSpaceOnUse" xlink:href="#id3" x1="49582.2" y1="36174.5" x2="49544.6" y2="36201.9">
  </linearGradient>
  <linearGradient id="id67" gradientUnits="userSpaceOnUse" xlink:href="#id49" x1="57621.1" y1="37456.6" x2="57670" y2="37906.6">
  </linearGradient>
  <linearGradient id="id68" gradientUnits="userSpaceOnUse" xlink:href="#id0" x1="61854.3" y1="46851.4" x2="59580.3" y2="46851.4">
  </linearGradient>
  <linearGradient id="id69" gradientUnits="userSpaceOnUse" xlink:href="#id27" x1="61214" y1="51798.4" x2="61192" y2="52427.6">
  </linearGradient>
  <linearGradient id="id70" gradientUnits="userSpaceOnUse" xlink:href="#id17" x1="60217.3" y1="34640.5" x2="59914.6" y2="32931.5">
  </linearGradient>
  <linearGradient id="id71" gradientUnits="userSpaceOnUse" xlink:href="#id27" x1="9400.07" y1="41157.3" x2="9400.07" y2="40949.9">
  </linearGradient>
  <linearGradient id="id72" gradientUnits="userSpaceOnUse" xlink:href="#id3" x1="53861.3" y1="33519.3" x2="53772.8" y2="33698">
  </linearGradient>
  <linearGradient id="id73" gradientUnits="userSpaceOnUse" xlink:href="#id27" x1="30768.3" y1="49852.1" x2="30768.3" y2="49538.1">
  </linearGradient>
  <linearGradient id="id74" gradientUnits="userSpaceOnUse" xlink:href="#id27" x1="30768.3" y1="48123.8" x2="30768.3" y2="47809.8">
  </linearGradient>
  <linearGradient id="id75" gradientUnits="userSpaceOnUse" xlink:href="#id3" x1="73705.2" y1="15933.3" x2="74217.3" y2="12211.5">
  </linearGradient>
  <linearGradient id="id76" gradientUnits="userSpaceOnUse" xlink:href="#id27" x1="77590.6" y1="48703.8" x2="80690.3" y2="45115.3">
  </linearGradient>
  <linearGradient id="id77" gradientUnits="userSpaceOnUse" xlink:href="#id27" x1="79904" y1="44057.3" x2="83009.2" y2="40498.9">
  </linearGradient>
  <linearGradient id="id78" gradientUnits="userSpaceOnUse" xlink:href="#id3" x1="76959.3" y1="15971.3" x2="77100.7" y2="15718.4">
  </linearGradient>
  <linearGradient id="id79" gradientUnits="userSpaceOnUse" xlink:href="#id27" x1="30768.3" y1="42030.7" x2="30768.3" y2="41804.7">
  </linearGradient>
  <linearGradient id="id80" gradientUnits="userSpaceOnUse" xlink:href="#id27" x1="63371.9" y1="47363.4" x2="65521.5" y2="44334.4">
  </linearGradient>
  <linearGradient id="id81" gradientUnits="userSpaceOnUse" xlink:href="#id3" x1="76435.4" y1="18381.2" x2="76526.3" y2="18109.5">
  </linearGradient>
  <linearGradient id="id82" gradientUnits="userSpaceOnUse" xlink:href="#id3" x1="60012.3" y1="35106" x2="60001" y2="35144.2">
  </linearGradient>
  <linearGradient id="id83" gradientUnits="userSpaceOnUse" xlink:href="#id27" x1="30768.3" y1="40286.7" x2="30768.3" y2="40091.8">
  </linearGradient>
  <linearGradient id="id84" gradientUnits="userSpaceOnUse" xlink:href="#id27" x1="59708.5" y1="47352" x2="61839.4" y2="44369.8">
  </linearGradient>
  <linearGradient id="id85" gradientUnits="userSpaceOnUse" xlink:href="#id27" x1="19657.3" y1="49386.4" x2="20589.6" y2="39555.1">
  </linearGradient>
  <linearGradient id="id86" gradientUnits="userSpaceOnUse" xlink:href="#id27" x1="30768.3" y1="41157.3" x2="30768.3" y2="40949.9">
  </linearGradient>
  <linearGradient id="id87" gradientUnits="userSpaceOnUse" xlink:href="#id27" x1="57064.1" y1="45459.3" x2="59194.5" y2="42518.1">
  </linearGradient>
  <linearGradient id="id88" gradientUnits="userSpaceOnUse" xlink:href="#id27" x1="20123.4" y1="36766.5" x2="20123.4" y2="37091.7">
  </linearGradient>
  <linearGradient id="id89" gradientUnits="userSpaceOnUse" xlink:href="#id27" x1="70094" y1="46332.3" x2="73117.6" y2="42892.5">
  </linearGradient>
  <linearGradient id="id90" gradientUnits="userSpaceOnUse" xlink:href="#id27" x1="60651.4" y1="45450.1" x2="62800.8" y2="42463.4">
  </linearGradient>
  <linearGradient id="id91" gradientUnits="userSpaceOnUse" xlink:href="#id27" x1="58747.3" y1="49274.5" x2="60886.3" y2="46288.4">
  </linearGradient>
  <linearGradient id="id92" gradientUnits="userSpaceOnUse" xlink:href="#id17" x1="62335.4" y1="38256.6" x2="62499.1" y2="38478.1">
  </linearGradient>
  <linearGradient id="id93" gradientUnits="userSpaceOnUse" xlink:href="#id0" x1="75183.9" y1="36233.1" x2="74946.9" y2="36250.1">
  </linearGradient>
  <linearGradient id="id94" gradientUnits="userSpaceOnUse" xlink:href="#id27" x1="9400.07" y1="47259.8" x2="9400.07" y2="46945.5">
  </linearGradient>
  <linearGradient id="id95" gradientUnits="userSpaceOnUse" xlink:href="#id27" x1="9400.07" y1="48988.1" x2="9400.07" y2="48673.8">
  </linearGradient>
  <linearGradient id="id96" gradientUnits="userSpaceOnUse" xlink:href="#id27" x1="9400.07" y1="43777.9" x2="9400.07" y2="43514.1">
  </linearGradient>
  <linearGradient id="id97" gradientUnits="userSpaceOnUse" xlink:href="#id27" x1="9400.07" y1="40286.7" x2="9400.07" y2="40091.8">
  </linearGradient>
  <linearGradient id="id98" gradientUnits="userSpaceOnUse" xlink:href="#id27" x1="9400.07" y1="46395.5" x2="9400.07" y2="46081.2">
  </linearGradient>
  <linearGradient id="id99" gradientUnits="userSpaceOnUse" xlink:href="#id3" x1="59742.2" y1="35325.1" x2="60078.5" y2="37099.7">
  </linearGradient>
  <linearGradient id="id100" gradientUnits="userSpaceOnUse" xlink:href="#id0" x1="63207.1" y1="45046" x2="63195.2" y2="45702.5">
  </linearGradient>
  <linearGradient id="id101" gradientUnits="userSpaceOnUse" xlink:href="#id27" x1="9400.07" y1="44654.7" x2="9400.07" y2="44365.5">
  </linearGradient>
  <linearGradient id="id102" gradientUnits="userSpaceOnUse" xlink:href="#id27" x1="9400.07" y1="39416.5" x2="9400.07" y2="39234.2">
  </linearGradient>
  <linearGradient id="id103" gradientUnits="userSpaceOnUse" xlink:href="#id3" x1="50358.9" y1="49264.2" x2="49804.4" y2="49339.9">
  </linearGradient>
  <linearGradient id="id104" gradientUnits="userSpaceOnUse" xlink:href="#id0" x1="63346.2" y1="39717.1" x2="63054.8" y2="39728.4">
  </linearGradient>
  <linearGradient id="id105" gradientUnits="userSpaceOnUse" xlink:href="#id27" x1="55162.8" y1="49243" x2="57284" y2="46302.5">
  </linearGradient>
  <linearGradient id="id106" gradientUnits="userSpaceOnUse" xlink:href="#id3" x1="72964.7" y1="20185.5" x2="73385.2" y2="16872">
  </linearGradient>
  <linearGradient id="id107" gradientUnits="userSpaceOnUse" xlink:href="#id3" x1="59507" y1="34858" x2="59455.3" y2="35025.2">
  </linearGradient>
  <linearGradient id="id108" gradientUnits="userSpaceOnUse" xlink:href="#id27" x1="9400.07" y1="42030.7" x2="9400.07" y2="41804.7">
  </linearGradient>
  <linearGradient id="id109" gradientUnits="userSpaceOnUse" xlink:href="#id27" x1="30768.3" y1="44654.7" x2="30768.3" y2="44365.5">
  </linearGradient>
  <linearGradient id="id110" gradientUnits="userSpaceOnUse" xlink:href="#id27" x1="46937.3" y1="39163.5" x2="49386" y2="38596.4">
  </linearGradient>
  <linearGradient id="id111" gradientUnits="userSpaceOnUse" xlink:href="#id27" x1="58305.3" y1="51633.3" x2="58293.1" y2="52348.3">
  </linearGradient>
  <linearGradient id="id112" gradientUnits="userSpaceOnUse" xlink:href="#id0" x1="50472" y1="35427.3" x2="49464.9" y2="36009.5">
  </linearGradient>
  <linearGradient id="id113" gradientUnits="userSpaceOnUse" xlink:href="#id27" x1="75517.1" y1="44066.4" x2="78591.8" y2="40567.8">
  </linearGradient>
  <linearGradient id="id114" gradientUnits="userSpaceOnUse" xlink:href="#id3" x1="49540.1" y1="40638.2" x2="49596.6" y2="40911.2">
  </linearGradient>
  <linearGradient id="id115" gradientUnits="userSpaceOnUse" xlink:href="#id0" x1="60740.6" y1="33848.5" x2="59180.3" y2="35086.7">
  </linearGradient>
  <linearGradient id="id116" gradientUnits="userSpaceOnUse" xlink:href="#id0" x1="50772.7" y1="37070.7" x2="50688.1" y2="37061.9">
  </linearGradient>
  <linearGradient id="id117" gradientUnits="userSpaceOnUse" xlink:href="#id3" x1="76849.7" y1="14071.5" x2="70180.2" y2="18433.8">
  </linearGradient>
  <linearGradient id="id118" gradientUnits="userSpaceOnUse" xlink:href="#id3" x1="50292.7" y1="41446.5" x2="52011.1" y2="40573.3">
  </linearGradient>
  <linearGradient id="id119" gradientUnits="userSpaceOnUse" xlink:href="#id3" x1="70671.1" y1="14163.2" x2="70754.4" y2="13895.7">
  </linearGradient>
  <linearGradient id="id120" gradientUnits="userSpaceOnUse" xlink:href="#id27" x1="71222.5" y1="44075.6" x2="74267.3" y2="40634.8">
  </linearGradient>
  <linearGradient id="id121" gradientUnits="userSpaceOnUse" xlink:href="#id3" x1="48544.3" y1="36885.6" x2="46494.6" y2="39143.7">
  </linearGradient>
  <linearGradient id="id122" gradientUnits="userSpaceOnUse" xlink:href="#id0" x1="50414.8" y1="51890.1" x2="49098.5" y2="51876.3">
  </linearGradient>
  <linearGradient id="id123" gradientUnits="userSpaceOnUse" xlink:href="#id27" x1="30768.3" y1="39416.5" x2="30768.3" y2="39234.2">
  </linearGradient>
  <linearGradient id="id124" gradientUnits="userSpaceOnUse" xlink:href="#id27" x1="30768.3" y1="43777.9" x2="30768.3" y2="43514.1">
  </linearGradient>
  <linearGradient id="id125" gradientUnits="userSpaceOnUse" xlink:href="#id27" x1="30768.3" y1="48988.1" x2="30768.3" y2="48673.8">
  </linearGradient>
  <linearGradient id="id126" gradientUnits="userSpaceOnUse" xlink:href="#id27" x1="56121.9" y1="47341" x2="58235.3" y2="44404.4">
  </linearGradient>
  <linearGradient id="id127" gradientUnits="userSpaceOnUse" xlink:href="#id3" x1="69942.3" y1="16966.3" x2="70078" y2="16707.2">
  </linearGradient>
  <linearGradient id="id128" gradientUnits="userSpaceOnUse" xlink:href="#id27" x1="62387.6" y1="49316.5" x2="64547" y2="46263.2">
  </linearGradient>
  <linearGradient id="id129" gradientUnits="userSpaceOnUse" xlink:href="#id27" x1="78772.2" y1="46362.4" x2="81855.2" y2="42805.2">
  </linearGradient>
  <linearGradient id="id130" gradientUnits="userSpaceOnUse" xlink:href="#id17" x1="20614.5" y1="43029" x2="19583.1" y2="44674.7">
  </linearGradient>
  <linearGradient id="id131" gradientUnits="userSpaceOnUse" xlink:href="#id27" x1="73235.1" y1="48649.7" x2="76298.5" y2="45148.6">
  </linearGradient>
  <linearGradient id="id132" gradientUnits="userSpaceOnUse" xlink:href="#id3" x1="49757.4" y1="36279.9" x2="50235.2" y2="37942">
  </linearGradient>
  <linearGradient id="id133" gradientUnits="userSpaceOnUse" xlink:href="#id27" x1="30768.3" y1="46395.5" x2="30768.3" y2="46081.2">
  </linearGradient>
  <linearGradient id="id134" gradientUnits="userSpaceOnUse" xlink:href="#id8" x1="31450.2" y1="11042.8" x2="57447.3" y2="45453">
  </linearGradient>
 </defs>
 <g id="Capa_x0020_1">
  <metadata id="CorelCorpID_0Corel-Layer"/>
  <polygon class="fil0" points="0,58208 87313,58208 87313,0 0,0 "/>
  <path class="fil1" d="M64989 27736c1381,1319 3363,1793 5233,1366 1773,-405 3879,-288 6029,1176 4160,2834 4347,7878 2480,10998 -969,1620 -1280,3545 -787,5363 430,1588 73,3368 -3032,4186 -6269,1650 -40682,21 -45079,-716 -4396,-737 -20797,-4801 -10393,-10229 0,0 -18035,-19246 -6622,-29625 10332,-9396 21106,-4114 26039,-704 1857,1284 4081,1946 6346,1885 5772,-156 16450,1058 16019,12238 -58,1497 904,2838 2352,3280 517,158 1019,404 1415,782z"/>
  <path class="fil2" d="M9494 20727c-34,0 -66,-23 -76,-57 -25,-89 -49,-178 -72,-267 -11,-42 15,-85 57,-96 42,-10 85,15 95,57 23,88 46,175 71,262 12,42 -12,86 -54,98 -7,2 -14,3 -21,3z"/>
  <path class="fil2" d="M18052 9868c-1,0 -2,0 -3,0 -201,-9 -404,-11 -604,-6 -46,1 -79,-33 -80,-76 -1,-44 33,-80 76,-81 204,-5 410,-3 615,6 43,2 77,39 75,82 -2,42 -37,75 -79,75zm-2193 185c-36,0 -69,-25 -77,-62 -9,-42 18,-84 60,-93 199,-44 403,-80 605,-109 43,-7 83,23 89,66 6,43 -24,83 -67,89 -198,29 -398,65 -593,107 -6,1 -12,2 -17,2zm3775 35c-6,0 -12,-1 -18,-2 -195,-46 -394,-86 -592,-118 -43,-7 -72,-47 -65,-90 7,-43 47,-72 90,-65 201,33 404,73 603,120 42,10 69,52 59,94 -9,36 -41,61 -77,61zm-5295 450c-31,0 -60,-18 -73,-48 -17,-40 2,-86 42,-103 187,-80 380,-154 573,-220 41,-14 85,7 100,48 14,41 -8,86 -49,100 -189,65 -378,138 -563,217 -10,4 -20,6 -30,6zm6808 61c-11,0 -22,-2 -32,-7 -183,-82 -371,-158 -560,-226 -40,-15 -61,-60 -47,-101 15,-41 60,-62 101,-47 192,70 384,147 570,231 40,17 57,64 40,104 -14,29 -42,46 -72,46zm-8211 700c-25,0 -50,-12 -65,-34 -25,-36 -15,-85 21,-109 170,-114 346,-223 522,-324 38,-22 86,-9 107,29 22,38 9,85 -29,107 -173,99 -346,206 -512,318 -14,9 -29,13 -44,13zm-1237 1010c-20,0 -41,-8 -56,-24 -31,-31 -30,-80 1,-111 145,-143 298,-283 453,-415 33,-29 82,-25 110,8 29,34 25,83 -8,111 -152,130 -302,267 -445,408 -15,15 -35,23 -55,23zm-1028 1221c-16,0 -31,-4 -45,-14 -36,-24 -44,-73 -20,-109 116,-168 240,-333 368,-493 27,-33 77,-39 110,-11 34,27 40,76 13,110 -126,156 -248,319 -362,484 -15,22 -39,33 -64,33zm-782 1394c-11,0 -21,-3 -32,-7 -39,-18 -57,-64 -40,-104 83,-186 173,-372 269,-553 21,-38 68,-53 107,-32 38,20 53,67 32,106 -94,177 -183,360 -264,543 -13,29 -42,47 -72,47zm-505 1514c-6,0 -12,0 -18,-2 -42,-9 -69,-52 -59,-94 46,-199 100,-398 160,-593 13,-42 57,-65 98,-52 42,13 65,57 52,98 -59,191 -112,387 -157,582 -8,37 -41,61 -76,61zm-214 1582c-1,0 -2,0 -3,0 -44,-1 -77,-38 -76,-81 4,-94 10,-188 17,-282 8,-110 18,-221 31,-331 4,-43 44,-74 87,-70 43,5 74,44 69,87 -12,108 -23,218 -31,326 -6,92 -12,184 -16,276 -1,42 -36,75 -78,75zm83 1595c-39,0 -72,-28 -78,-67 -29,-201 -52,-407 -67,-611 -4,-43 29,-81 72,-84 43,-4 81,29 84,72 15,201 38,402 67,600 6,43 -24,83 -67,89 -4,1 -7,1 -11,1z"/>
  <path class="fil2" d="M22558 11401c-16,0 -32,-5 -45,-15 -74,-52 -149,-103 -225,-152 -36,-24 -47,-73 -23,-109 24,-36 73,-46 109,-23 77,51 153,103 229,156 35,25 44,74 19,109 -15,22 -40,34 -64,34z"/>
  <path class="fil2" d="M26069 16980c-38,0 -71,-27 -77,-66 -15,-89 -31,-178 -49,-267 -8,-42 19,-84 62,-92 43,-8 84,19 92,62 18,90 35,181 50,272 7,43 -22,83 -65,90 -4,1 -9,1 -13,1z"/>
  <path class="fil2" d="M26180 18530c-1,0 -1,0 -2,0 -43,0 -78,-36 -77,-80 1,-56 2,-112 2,-169 0,-155 -4,-313 -13,-468 -2,-43 31,-80 74,-83 43,-4 80,31 83,74 9,159 13,319 13,477 0,58 0,115 -2,173 0,42 -36,76 -78,76zm-198 1675c-6,0 -11,-1 -17,-2 -42,-9 -69,-51 -60,-94 45,-206 83,-417 113,-627 6,-43 46,-72 89,-66 43,6 73,46 67,89 -31,213 -69,428 -115,638 -9,37 -41,62 -77,62zm-524 1602c-11,0 -21,-2 -32,-7 -39,-17 -57,-63 -40,-103 86,-194 165,-393 235,-592 15,-41 60,-63 100,-48 41,14 63,59 48,100 -72,203 -152,406 -239,603 -13,30 -42,47 -72,47zm-832 1468c-16,0 -31,-5 -45,-15 -36,-25 -44,-74 -19,-109 122,-173 239,-353 348,-535 22,-37 71,-49 108,-27 37,23 49,71 27,108 -111,185 -230,368 -355,544 -15,22 -39,34 -64,34zm-1105 1274c-21,0 -41,-8 -57,-25 -30,-31 -28,-81 3,-111 154,-146 304,-299 447,-455 29,-32 78,-34 111,-5 32,29 34,79 5,111 -145,159 -298,315 -455,463 -15,15 -34,22 -54,22zm-1333 1032c-26,0 -51,-13 -66,-37 -23,-36 -12,-85 25,-108 179,-112 356,-233 526,-359 35,-26 84,-18 110,17 26,35 18,84 -16,110 -174,128 -354,250 -537,365 -13,8 -27,12 -42,12zm-9005 18c-14,0 -29,-4 -42,-12 -39,-24 -79,-49 -118,-75 -37,-23 -47,-72 -24,-108 24,-37 73,-47 109,-24 38,25 77,50 116,74 37,23 48,71 26,108 -15,24 -41,37 -67,37zm7496 732c-32,0 -61,-19 -73,-51 -16,-40 5,-86 45,-101 198,-75 395,-158 587,-248 39,-18 86,-1 104,38 19,39 2,86 -37,105 -196,91 -397,176 -598,252 -9,3 -19,5 -28,5zm-5983 12c-9,0 -18,-2 -27,-5 -202,-75 -404,-159 -599,-250 -40,-18 -57,-65 -39,-104 18,-39 65,-56 104,-38 193,88 391,171 589,245 41,15 61,60 46,101 -12,31 -42,51 -74,51zm4355 424c-38,0 -72,-27 -78,-66 -7,-42 22,-83 65,-90 209,-34 419,-76 624,-126 42,-11 85,15 95,58 11,42 -15,84 -57,94 -210,51 -424,95 -637,129 -4,1 -8,1 -12,1zm-2723 5c-4,0 -9,-1 -13,-1 -213,-34 -427,-77 -637,-126 -42,-10 -68,-53 -58,-95 10,-42 52,-68 95,-58 205,49 416,90 625,123 43,7 72,48 65,90 -6,39 -39,67 -77,67zm1359 106c-106,0 -214,-2 -322,-6 -43,-1 -77,-37 -76,-81 2,-43 39,-77 82,-75 106,3 212,4 316,5 106,0 214,-2 321,-6 45,-1 80,32 82,75 1,44 -32,80 -76,82 -109,4 -219,6 -327,6z"/>
  <path class="fil2" d="M12688 25267c-16,0 -32,-5 -46,-15 -74,-54 -148,-109 -221,-165 -34,-27 -41,-76 -14,-111 26,-34 76,-40 110,-14 72,56 144,110 218,163 35,26 43,75 17,110 -15,21 -39,32 -64,32z"/>
  <path class="fil2" d="M13055 22918c28,34 74,47 114,32l1169 -424c458,357 977,643 1541,839l278 1211c10,42 46,74 89,78l1483 158c43,4 85,-19 103,-59l527 -1125c592,-74 1159,-245 1682,-497l1054 659c37,24 84,21 118,-7l1160 -937c34,-27 46,-73 32,-114l-424 -1169c356,-458 642,-976 839,-1540l1211 -279c42,-10 74,-46 78,-89l158 -1483c4,-43 -19,-84 -59,-103l-1125 -526c-74,-593 -245,-1160 -497,-1683l659 -1054c23,-37 20,-84 -7,-118l-937 -1160c-27,-33 -73,-46 -114,-31l-1169 423c-458,-356 -976,-642 -1541,-839l-278 -1210c-10,-43 -46,-74 -89,-79l-1483 -157c-43,-5 -85,18 -103,58l-527 1125c-592,74 -1159,245 -1682,497l-1054 -659c-37,-23 -84,-20 -118,7l-1160 937c-34,28 -46,74 -31,115l423 1168c-356,458 -642,977 -839,1541l-1211 279c-42,9 -74,45 -78,88l-157 1483c-5,43 18,85 58,103l1125 527c74,593 245,1159 497,1682l-659 1054c-23,37 -20,84 7,118l937 1160z"/>
  <path class="fil3" d="M17681 16978c-59,0 -119,4 -179,12 -329,47 -620,220 -820,486 -200,266 -284,594 -237,923 97,680 728,1154 1409,1057 329,-47 620,-219 820,-485 200,-266 284,-594 237,-924 -47,-329 -219,-620 -485,-820 -218,-163 -478,-249 -745,-249zm-4 2648c-686,0 -1288,-506 -1387,-1205 -53,-371 41,-740 266,-1040 225,-299 553,-493 924,-546 371,-53 740,42 1040,266 299,225 494,553 546,924 110,766 -424,1477 -1190,1587 -67,9 -133,14 -199,14z"/>
  <path class="fil4" d="M17708 21878c-131,0 -263,-7 -395,-21l0 0c-261,-28 -518,-83 -765,-164 -33,-11 -54,-42 -54,-75 0,-8 1,-16 4,-24 14,-42 58,-64 99,-50 236,77 483,130 733,157l0 0c542,57 1079,-10 1577,-192 349,-127 679,-311 978,-548 9,-8 19,-15 28,-23 731,-591 1188,-1431 1287,-2366 14,-126 20,-252 20,-377 0,-802 -271,-1574 -782,-2206 -591,-731 -1431,-1188 -2366,-1287 -1929,-204 -3666,1198 -3871,3128 -13,125 -19,249 -19,374 0,509 110,1013 325,1476 5,10 7,22 7,33 0,29 -17,58 -45,71 -40,18 -86,1 -105,-38 -224,-484 -339,-1010 -339,-1542 0,-130 7,-260 20,-390 214,-2016 2028,-3483 4044,-3268 976,103 1854,581 2471,1345 534,660 818,1466 818,2303 0,131 -7,263 -21,395 -104,977 -582,1854 -1345,2471 -661,534 -1467,818 -2304,818z"/>
  <path class="fil2" d="M26599 13791l634 -288c271,178 574,315 897,400l210 664c7,23 29,39 53,40l835 22c24,0 47,-15 55,-37l244 -652c328,-68 637,-189 918,-353l618 322c21,11 48,7 65,-10l607 -574c17,-17 22,-43 12,-66l-288 -634c178,-271 315,-574 400,-897l664 -210c23,-7 39,-28 40,-53l22 -835c0,-24 -15,-46 -37,-55l-652 -244c-68,-328 -189,-637 -353,-918l322 -618c11,-21 7,-48 -9,-65l-575 -606c-17,-18 -43,-23 -66,-13l-634 288c-271,-178 -574,-315 -897,-400l-210 -664c-7,-23 -28,-39 -53,-40l-835 -22c-24,0 -46,15 -55,38l-244 651c-328,68 -637,189 -918,353l-618 -322c-21,-11 -48,-7 -65,10l-606 575c-18,16 -23,43 -13,65l288 634c-178,271 -315,574 -400,897l-664 210c-23,7 -39,29 -40,53l-21 835c-1,24 14,47 37,55l651 244c68,328 189,637 353,918l-322 618c-11,21 -7,48 10,65l575 606c16,18 43,23 65,13z"/>
  <path class="fil5" d="M28907 10288c-48,0 -97,5 -145,16 -357,80 -582,436 -502,793 39,172 143,320 292,414 150,95 328,126 500,87l0 0c357,-80 582,-435 502,-792 -69,-308 -344,-518 -647,-518zm-2 1484c-153,0 -304,-44 -437,-128 -185,-117 -313,-299 -361,-513 -99,-441 179,-881 620,-980 442,-99 881,179 981,620 99,442 -180,881 -621,980l0 0c-60,14 -121,21 -182,21z"/>
  <path class="fil2" d="M25149 13466c-25,0 -50,-12 -66,-35 -50,-78 -99,-158 -144,-239 -21,-38 -8,-86 30,-107 38,-21 85,-8 107,30 44,78 91,155 139,230 24,37 14,85 -23,109 -13,8 -28,12 -43,12z"/>
  <path class="fil2" d="M28300 6592c-39,0 -72,-29 -78,-68 -6,-43 24,-83 67,-89 202,-27 406,-42 609,-42 0,0 0,0 0,0 44,0 79,34 79,78 0,43 -35,78 -79,79 -195,0 -393,14 -587,41 -4,0 -8,1 -11,1zm-1492 480c-28,0 -55,-15 -69,-42 -21,-38 -6,-86 32,-106 179,-95 367,-179 557,-249 41,-15 86,6 101,47 15,41 -6,86 -46,101 -184,67 -365,148 -538,240 -12,6 -25,9 -37,9zm-1234 966c-19,0 -37,-7 -52,-20 -33,-29 -35,-79 -6,-111 135,-152 282,-295 436,-426 33,-29 83,-25 111,8 28,34 24,83 -9,111 -149,127 -290,265 -421,412 -16,17 -37,26 -59,26zm-827 1331c-9,0 -19,-1 -29,-5 -40,-16 -60,-62 -43,-102 75,-189 164,-374 264,-551 21,-37 69,-51 107,-29 37,21 51,69 29,107 -96,171 -182,349 -255,531 -12,31 -41,49 -73,49zm-317 1535c-1,0 -2,0 -2,0 -44,-1 -78,-37 -77,-80 6,-203 25,-407 58,-608 7,-43 48,-72 90,-65 43,7 72,47 65,90 -32,194 -50,391 -56,587 -1,43 -36,76 -78,76zm232 1551c-33,0 -64,-21 -75,-54 -49,-147 -91,-300 -126,-452 -10,-46 -20,-92 -28,-138 -9,-43 19,-84 62,-92 43,-8 84,20 92,62 8,45 18,89 28,133 33,148 74,295 121,437 14,42 -8,86 -49,100 -8,3 -17,4 -25,4z"/>
  <path class="fil2" d="M30303 6773c-9,0 -17,-1 -25,-4 -84,-28 -171,-54 -258,-77 -42,-11 -67,-53 -56,-95 11,-42 54,-68 96,-56 90,23 180,50 267,79 41,13 64,58 50,99 -11,33 -41,54 -74,54z"/>
  <path class="fil2" d="M32980 9163c-30,0 -59,-17 -72,-46 -37,-81 -77,-162 -119,-241 -21,-38 -6,-86 32,-106 39,-21 86,-6 106,32 44,82 86,166 124,250 18,40 1,86 -39,104 -10,5 -21,7 -32,7z"/>
  <path class="fil2" d="M33359 10534c-40,0 -74,-30 -78,-70 -18,-159 -45,-320 -81,-478 -7,-31 -14,-62 -22,-93 -10,-42 16,-84 58,-95 42,-10 85,16 95,58 8,32 15,64 23,96 36,163 64,329 83,495 5,43 -26,82 -70,87 -2,0 -5,0 -8,0zm-96 1539c-6,0 -12,0 -18,-2 -42,-10 -68,-52 -58,-94 45,-188 78,-380 98,-572 4,-43 43,-74 86,-70 43,5 75,43 70,86 -21,199 -55,398 -101,592 -9,36 -41,60 -77,60zm-613 1415c-15,0 -30,-4 -43,-13 -37,-23 -47,-72 -23,-108 106,-161 202,-331 286,-505 19,-39 66,-55 105,-36 39,19 55,66 37,105 -87,179 -187,355 -296,522 -16,23 -41,35 -66,35zm-1055 1124c-24,0 -47,-11 -63,-31 -26,-35 -19,-84 16,-110 154,-116 301,-243 439,-378 31,-30 81,-30 111,1 31,31 30,81 -1,111 -142,140 -295,272 -455,392 -14,10 -31,15 -47,15zm-1375 699c-33,0 -64,-22 -75,-56 -12,-42 11,-85 52,-98 185,-56 367,-126 542,-206 40,-18 86,0 104,39 18,40 1,86 -38,104 -182,83 -371,155 -562,213 -7,2 -15,4 -23,4zm-1317 197c-72,0 -145,-2 -217,-5 -43,-2 -76,-39 -74,-83 2,-43 39,-77 82,-74 191,9 386,6 580,-11 43,-3 81,29 84,72 4,43 -28,81 -71,85 -128,11 -257,16 -384,16z"/>
  <path class="fil2" d="M27576 15305c-8,0 -16,-1 -24,-3 -88,-28 -177,-59 -263,-92 -41,-15 -61,-60 -46,-101 16,-41 61,-61 102,-45 83,31 169,61 254,88 42,13 65,57 52,98 -11,34 -42,55 -75,55z"/>
  <path class="fil6" d="M28920 13032c-19,0 -37,0 -56,-1 -144,-3 -287,-22 -426,-54 -5,-2 -11,-3 -16,-4 -36,-9 -60,-41 -60,-77 0,-6 1,-12 2,-18 10,-42 53,-68 95,-58 133,32 271,51 409,54l0 0c1024,28 1889,-752 1980,-1760 4,-41 6,-83 7,-125 1,-17 1,-35 1,-52 0,-1044 -835,-1908 -1886,-1936 -1067,-30 -1959,818 -1988,1886 0,17 0,34 0,51 0,334 85,661 249,950 7,13 10,26 10,39 0,27 -15,54 -40,68 -38,22 -86,8 -107,-29 -177,-313 -269,-667 -269,-1028 0,-18 0,-37 0,-55 31,-1155 995,-2067 2149,-2039 1136,30 2039,964 2039,2093 0,19 0,37 -1,56 -29,1136 -963,2039 -2092,2039z"/>
  <path class="fil2" d="M58178 52139c-381,340 2625,-6770 1528,-16314 -517,-4498 -2012,-9898 -138,-12661 1560,-2300 8814,-3144 11203,-3362 299,-27 494,305 325,552 -835,1220 -2566,4030 -2567,6376 -2,3093 -2221,5678 -4525,6852 -2305,1175 -3530,2033 -3631,6269 -102,4238 -1110,11322 -2195,12288z"/>
  <path class="fil7" d="M67947 22018c0,0 -65,23 -187,72 -123,49 -300,127 -524,230 -223,104 -491,237 -790,404 -300,167 -629,370 -979,604 -349,236 -713,509 -1077,825 -363,315 -723,673 -1061,1071 -679,793 -1252,1769 -1575,2831l-58 200 -30 99 -23 101c-29,136 -63,270 -91,405 -52,277 -105,553 -156,827 -53,274 -105,545 -155,814 -51,268 -95,533 -141,794 -92,522 -182,1026 -256,1506 -39,240 -77,473 -114,699 -34,226 -67,444 -99,654 -31,210 -61,411 -89,602 -27,191 -52,373 -76,544 -49,341 -86,639 -117,884 -29,246 -51,439 -68,570 -14,132 -22,202 -22,202l0 2c-4,36 -36,62 -73,58 -34,-4 -60,-34 -59,-69 0,0 4,-71 11,-205 9,-132 17,-328 39,-575 20,-247 44,-548 79,-892 17,-172 35,-355 53,-548 24,-193 47,-395 72,-607 27,-211 50,-431 81,-659 32,-227 65,-462 99,-703 35,-241 65,-490 107,-743 41,-253 83,-511 126,-774 43,-262 84,-530 132,-799 49,-269 101,-541 152,-815 51,-274 102,-550 154,-828 28,-142 62,-281 95,-422l25 -106 31 -104 61 -207c173,-553 408,-1085 691,-1577 286,-492 617,-944 973,-1350 355,-406 737,-762 1117,-1076 380,-314 760,-584 1120,-815 361,-232 706,-420 1016,-578 310,-157 586,-281 816,-377 231,-97 416,-162 542,-206 125,-44 196,-64 196,-64l0 0c28,-9 57,8 66,36 7,27 -7,55 -34,65z"/>
  <path class="fil2" d="M61672 52264c-261,162 1320,-3068 1264,-5811 -57,-2742 229,-7451 2386,-10409 2158,-2957 4721,-3396 8153,-1091 2861,1921 4627,2868 5633,2995 248,32 394,300 290,529 -553,1216 -2159,4033 -5191,4059 -3867,33 -8711,-2138 -9985,51 -1274,2189 -1007,3344 -981,4337 27,993 162,4264 -1569,5340z"/>
  <path class="fil8" d="M72550 38475c-474,-326 -979,-610 -1498,-855 -518,-246 -1060,-443 -1614,-567 -554,-123 -1129,-164 -1678,-51 -67,17 -136,28 -202,49 -67,21 -133,39 -199,63l-399 153 -386 180 -371 208c-482,298 -913,678 -1266,1123 -353,446 -637,945 -863,1471l-85 197c-29,65 -50,134 -75,201 -48,135 -99,270 -143,406 -80,276 -167,550 -230,832 -144,558 -232,1129 -321,1701l0 1c-4,22 -25,37 -47,34 -22,-3 -37,-23 -35,-45 62,-577 135,-1154 261,-1724 32,-142 55,-286 96,-426l115 -423c42,-139 91,-277 137,-416 25,-69 44,-140 73,-207l83 -204c221,-541 498,-1067 866,-1531 364,-466 813,-868 1314,-1182l385 -220 400 -190 412 -161c70,-25 144,-44 216,-66 72,-22 146,-34 219,-51 592,-116 1198,-65 1770,69 575,135 1121,360 1642,624 261,132 513,279 760,435 246,157 486,321 715,504 18,15 21,42 7,60 -14,17 -39,21 -57,8l-2 0z"/>
  <path class="fil9" d="M32378 51241c430,277 -3648,-6277 -4053,-15876 -191,-4524 444,-10090 -1839,-12527 -1899,-2029 -9195,-1731 -11590,-1574 -299,20 -440,379 -234,596 1015,1075 3163,3580 3530,5898 484,3054 3079,5262 5538,6062 2460,801 3804,1457 4565,5627 761,4169 2861,11009 4083,11794z"/>
  <path class="fil2" d="M18048 22908c0,0 72,9 203,32 132,24 325,60 567,119 242,59 535,138 866,246 330,107 701,239 1093,412 392,172 809,380 1234,630 423,251 856,543 1271,889 414,345 813,740 1171,1181 357,443 672,932 928,1450l93 196 47 98 41 100c54,134 110,267 160,403 94,265 188,530 282,793 93,263 185,524 277,781 89,258 171,517 255,769 83,253 165,502 245,745 80,243 149,484 221,717 72,233 141,460 208,680 66,219 123,433 182,638 58,205 113,401 166,588 48,187 94,366 138,533 88,334 159,627 217,869 60,241 99,432 128,562 28,131 43,200 43,200 7,36 -16,71 -51,79 -35,7 -69,-14 -78,-48l0 -1c0,0 -19,-69 -53,-196 -36,-127 -89,-314 -157,-552 -68,-238 -150,-527 -252,-856 -51,-165 -104,-340 -160,-525 -58,-185 -119,-379 -183,-581 -64,-202 -131,-413 -200,-631 -71,-217 -145,-441 -220,-672 -149,-463 -316,-947 -488,-1448 -87,-250 -171,-505 -264,-762 -92,-258 -185,-518 -279,-780 -94,-263 -189,-527 -284,-793 -48,-128 -103,-256 -153,-385l-39 -96 -44 -94 -89 -188c-484,-999 -1203,-1874 -1997,-2551 -396,-340 -807,-638 -1215,-893 -408,-254 -812,-468 -1193,-646 -382,-177 -739,-326 -1060,-444 -322,-119 -608,-208 -844,-276 -237,-67 -425,-116 -553,-145 -129,-30 -197,-43 -197,-43 -29,-5 -48,-33 -43,-62 5,-27 32,-46 59,-43l1 1z"/>
  <path class="fil2" d="M27903 51512c252,177 -1147,-3137 -937,-5872 209,-2735 188,-7452 -1801,-10526 -1989,-3074 -4523,-3655 -8079,-1545 -2964,1758 -4780,2604 -5791,2675 -251,18 -410,278 -319,512 483,1245 1929,4148 4955,4343 3860,248 8817,-1648 9967,609 1149,2257 819,3395 737,4385 -82,989 -400,4248 1268,5419z"/>
  <path class="fil10" d="M17765 37066c239,-170 487,-320 742,-463 254,-142 515,-275 783,-393 534,-233 1092,-428 1674,-531 579,-101 1187,-118 1771,30 72,21 146,38 217,63 70,27 143,50 211,79l402 184 389 211 372 242c483,342 908,768 1246,1253 341,484 589,1025 779,1578l72 208c25,69 40,140 61,211 37,141 79,281 113,423l91 428c34,142 49,288 73,431 93,576 134,1156 164,1736 1,23 -17,42 -39,43 -22,1 -41,-15 -43,-37l0 -1c-58,-575 -113,-1151 -226,-1716 -47,-285 -119,-563 -183,-844 -36,-139 -80,-275 -120,-413 -21,-68 -38,-138 -64,-205l-74 -202c-196,-537 -452,-1052 -779,-1516 -328,-464 -736,-867 -1201,-1192l-359 -229 -375 -201 -390 -175c-65,-27 -130,-49 -195,-74 -65,-24 -134,-40 -200,-60 -541,-143 -1118,-135 -1677,-43 -561,93 -1113,259 -1644,476 -532,216 -1052,471 -1543,769l-1 1c-21,12 -47,6 -59,-15 -12,-19 -6,-43 12,-56z"/>
  <path class="fil11" d="M29708 18428c-174,0 -315,-140 -315,-314l0 -2278c0,-174 141,-314 315,-314 173,0 314,140 314,314l0 2278c0,174 -141,314 -314,314z"/>
  <path class="fil12" d="M30886 16818c0,152 -123,275 -275,275l-1728 0c-152,0 -275,-123 -275,-275l0 0c0,-152 123,-275 275,-275l1728 0c152,0 275,123 275,275l0 0z"/>
  <path class="fil13" d="M30886 18153c0,152 -123,275 -275,275l-1728 0c-152,0 -275,-123 -275,-275l0 0c0,-151 123,-275 275,-275l1728 0c152,0 275,124 275,275l0 0z"/>
  <path class="fil14" d="M59168 18428c-174,0 -315,-140 -315,-314l0 -2278c0,-174 141,-314 315,-314 173,0 314,140 314,314l0 2278c0,174 -141,314 -314,314z"/>
  <path class="fil15" d="M60346 16818c0,152 -123,275 -275,275l-1728 0c-152,0 -275,-123 -275,-275l0 0c0,-152 123,-275 275,-275l1728 0c152,0 275,123 275,275l0 0z"/>
  <path class="fil16" d="M60346 18153c0,152 -123,275 -275,275l-1728 0c-152,0 -275,-123 -275,-275l0 0c0,-151 123,-275 275,-275l1728 0c152,0 275,124 275,275l0 0z"/>
  <path class="fil17" d="M58775 29505c-174,0 -314,-140 -314,-314l0 -2278c0,-174 140,-314 314,-314 173,0 314,140 314,314l0 2278c0,174 -141,314 -314,314z"/>
  <path class="fil18" d="M59954 27895c0,152 -124,275 -276,275l-1728 0c-152,0 -275,-123 -275,-275l0 0c0,-152 123,-275 275,-275l1728 0c152,0 276,123 276,275l0 0z"/>
  <path class="fil19" d="M59954 29230c0,152 -124,275 -276,275l-1728 0c-152,0 -275,-123 -275,-275l0 0c0,-152 123,-275 275,-275l1728 0c152,0 276,123 276,275l0 0z"/>
  <path class="fil20" d="M29708 29505c-174,0 -315,-140 -315,-314l0 -2278c0,-174 141,-314 315,-314 173,0 314,140 314,314l0 2278c0,174 -141,314 -314,314z"/>
  <path class="fil21" d="M30886 27895c0,152 -123,275 -275,275l-1728 0c-152,0 -275,-123 -275,-275l0 0c0,-152 123,-275 275,-275l1728 0c152,0 275,123 275,275l0 0z"/>
  <path class="fil22" d="M30886 29230c0,152 -123,275 -275,275l-1728 0c-152,0 -275,-123 -275,-275l0 0c0,-152 123,-275 275,-275l1728 0c152,0 275,123 275,275l0 0z"/>
  <path class="fil23" d="M54282 51796c-153,0 -287,-112 -310,-268l-6651 -44006 -5842 647 -6363 43358c-25,172 -184,290 -356,265 -172,-25 -291,-184 -266,-356l6398 -43599c21,-141 134,-251 276,-266l6384 -707c168,-19 320,98 345,265l6696 44306c26,171 -92,331 -264,357 -16,3 -31,4 -47,4z"/>
  <path class="fil24" d="M59614 16229l-30077 0c-143,0 -268,-97 -304,-236 -36,-139 27,-284 152,-354l11429 -6319c152,-84 343,-29 427,123 84,152 29,343 -123,427l-10363 5730 27705 0 -10762 -6329c-149,-88 -199,-280 -111,-430 88,-149 281,-199 430,-111l11757 6914c122,71 181,216 143,353 -37,137 -161,232 -303,232z"/>
  <path class="fil25" d="M59143 27227l-29606 0c-125,0 -239,-75 -289,-191 -49,-115 -25,-249 62,-340l10508 -10990c120,-125 319,-130 444,-10 126,120 130,319 10,445l-9999 10458 28148 0 -9747 -10471c-118,-128 -111,-326 16,-445 127,-118 326,-111 444,16l10239 11000c85,91 108,225 58,339 -50,115 -163,189 -288,189z"/>
  <path class="fil26" d="M48832 15731c-80,0 -159,-30 -221,-90l-7629 -7534c-124,-122 -125,-321 -3,-445 122,-123 321,-124 445,-2l7629 7533c123,122 125,321 3,445 -62,62 -143,93 -224,93z"/>
  <path class="fil27" d="M40097 15731c-75,0 -151,-27 -211,-81 -129,-117 -138,-316 -21,-444l7489 -8241c117,-129 316,-138 444,-21 128,116 138,315 21,444l-7489 8240c-62,69 -147,103 -233,103z"/>
  <path class="fil28" d="M36316 41047c-82,0 -164,-32 -226,-96 -121,-124 -118,-323 7,-444l13946 -13564 -10313 -10812c-120,-126 -115,-325 10,-444 126,-120 325,-115 445,10l10527 11038c119,125 116,322 -8,442l-14169 13780c-61,60 -140,90 -219,90z"/>
  <path class="fil29" d="M52527 40968c-79,0 -158,-30 -219,-89l-14169 -13781c-124,-120 -127,-317 -8,-442l10527 -11037c120,-126 319,-131 445,-11 125,120 130,319 10,444l-10313 10813 13946 13564c125,121 128,320 7,444 -62,63 -144,95 -226,95z"/>
  <path class="fil30" d="M52726 41525l-16419 0c-174,0 -314,-141 -314,-314 0,-174 140,-315 314,-315l16419 0c173,0 314,141 314,315 0,173 -141,314 -314,314z"/>
  <path class="fil31" d="M34871 51345c-61,0 -123,-18 -178,-55 -143,-99 -179,-294 -80,-437l6752 -9821c98,-143 294,-179 437,-81 143,99 179,294 81,437l-6753 9821c-60,88 -159,136 -259,136z"/>
  <path class="fil32" d="M54273 51345c-101,0 -199,-48 -260,-136l-6752 -9821c-99,-143 -62,-338 80,-437 144,-98 339,-62 438,81l6752 9821c99,143 62,338 -81,437 -54,37 -116,55 -177,55z"/>
  <polygon class="fil33" points="74544,42508 74823,29662 75586,29662 75586,42821 "/>
  <path class="fil34" d="M75949 42821c0,203 -96,354 -214,354l-1366 0c-118,0 -215,-151 -215,-354l0 0c0,-202 97,-353 215,-353l1366 0c118,0 214,151 214,353l0 0z"/>
  <path class="fil35" d="M79108 23217c-150,-740 -2632,3543 -3457,4597 -823,1054 -181,1385 -181,1385l108 102c0,0 1,0 1,0 325,64 658,-65 819,-351 762,-1356 2833,-5128 2710,-5733z"/>
  <path class="fil35" d="M79086 36201c723,223 -1847,-4009 -2376,-5238 -530,-1228 -1121,-813 -1121,-813l-132 55c-1,0 -1,0 -1,0 -233,231 -267,600 -93,878 825,1319 3133,4936 3723,5118z"/>
  <path class="fil35" d="M67811 30933c-634,-411 4260,-1157 5542,-1539 1282,-382 1335,337 1335,337l34 137 0 1c0,327 -280,590 -604,635 -1541,214 -5789,765 -6307,429z"/>
  <path class="fil36" d="M75985 29974c-150,398 -594,599 -992,449 -398,-150 -599,-593 -449,-991 150,-398 594,-599 991,-449 398,149 599,593 450,991z"/>
  <path class="fil35" d="M75266 29235c-66,0 -132,14 -195,42 -114,52 -202,146 -246,264 -91,243 32,515 275,607 243,92 516,-32 607,-275l0 0c44,-118 40,-246 -12,-361 -51,-114 -145,-202 -263,-246 -54,-21 -110,-31 -166,-31zm-1 1022c-64,0 -129,-11 -193,-35 -284,-107 -428,-425 -321,-709 52,-137 154,-246 288,-307 134,-61 283,-66 421,-14 137,52 246,154 307,288 61,134 65,283 14,421l0 0c-83,220 -293,356 -516,356z"/>
  <polygon class="fil37" points="62756,45122 63003,34062 63645,34062 63645,45384 "/>
  <path class="fil38" d="M63974 45374c0,175 -83,315 -185,315l-1176 0c-103,0 -185,-140 -185,-315l0 0c0,-174 82,-314 185,-314l1176 0c102,0 185,140 185,314l0 0z"/>
  <path class="fil35" d="M66696 28493c-130,-638 -2269,3053 -2979,3961 -710,908 -156,1193 -156,1193l93 88c0,0 1,0 1,0 280,55 567,-56 706,-302 656,-1169 2441,-4419 2335,-4940z"/>
  <path class="fil35" d="M66677 39680c622,192 -1591,-3454 -2048,-4513 -456,-1059 -965,-701 -965,-701l-115 48c0,0 0,0 0,0 -201,199 -230,517 -80,756 711,1137 2700,4253 3208,4410z"/>
  <path class="fil35" d="M56962 35141c-547,-354 3670,-997 4775,-1326 1104,-330 1161,290 1161,290l40 119 0 0c0,282 -252,508 -532,547 -1328,184 -4998,659 -5444,370z"/>
  <path class="fil39" d="M64004 34315c-129,343 -512,516 -854,387 -343,-129 -516,-512 -387,-855 129,-342 512,-516 854,-387 343,129 516,512 387,855z"/>
  <path class="fil35" d="M63385 33684c-56,0 -112,11 -165,35 -98,45 -172,124 -210,224 -38,100 -34,209 10,307 45,97 124,172 224,210 100,37 209,34 307,-11 97,-44 172,-123 209,-223l0 0c38,-100 34,-209 -10,-307 -44,-97 -123,-172 -224,-210 -45,-17 -93,-25 -141,-25zm0 880c-56,0 -113,-10 -169,-31 -119,-45 -215,-134 -268,-251 -52,-116 -57,-247 -11,-366 45,-120 134,-215 251,-268 116,-53 247,-57 366,-12 120,45 215,134 268,251 53,116 57,247 12,366l0 0c-73,192 -255,311 -449,311z"/>
  <polygon class="fil35" points="59168,52209 60582,52209 60582,45217 59168,45217 "/>
  <path class="fil35" d="M61367 52390c0,17 -25,30 -45,30l-2904 21c-65,1 -115,-51 -115,-116l0 -145c0,-32 5,-63 29,-86 23,-23 50,-35 83,-35l2912 50c17,0 40,13 40,29l0 252z"/>
  <path class="fil9" d="M67968 42667l-11096 138c-61,1 -135,48 -164,105l-3025 5966c-29,58 -3,105 58,106l11079 66c66,1 143,-48 172,-107l3041 -6168c30,-59 0,-106 -65,-106z"/>
  <path class="fil40" d="M60038 43182l-3019 34c-61,0 -135,47 -164,104l-695 1372c-29,58 -3,104 59,104l3017 -20c63,0 138,-48 167,-106l696 -1385c30,-58 2,-104 -61,-103z"/>
  <path class="fil41" d="M63667 43141l-3083 35c-63,0 -137,48 -166,106l-697 1386c-29,58 -1,105 62,104l3082 -19c64,-1 140,-49 169,-108l697 -1399c29,-59 1,-106 -64,-105z"/>
  <path class="fil42" d="M67376 43100l-3150 35c-65,0 -140,49 -169,107l-698 1401c-29,59 0,107 64,106l3149 -21c65,0 142,-48 171,-108l699 -1415c29,-59 -1,-106 -66,-105z"/>
  <path class="fil43" d="M59088 45070l-3017 17c-62,1 -135,48 -164,105l-699 1379c-29,57 -3,104 59,104l3016 -3c63,0 138,-47 167,-105l699 -1392c29,-58 2,-105 -61,-105z"/>
  <path class="fil44" d="M62716 45050l-3081 17c-64,1 -138,48 -167,107l-700 1392c-29,58 -2,106 61,106l3081 -3c64,0 140,-48 169,-107l701 -1406c29,-59 1,-106 -64,-106z"/>
  <path class="fil45" d="M66424 45029l-3149 18c-65,0 -140,48 -169,107l-702 1408c-29,59 -1,107 64,107l3147 -3c66,-1 143,-49 172,-109l702 -1421c29,-60 0,-107 -65,-107z"/>
  <path class="fil46" d="M58134 46968l-3016 0c-61,0 -135,47 -164,105l-702 1385c-29,58 -3,105 58,105l3015 15c63,0 138,-47 167,-106l703 -1398c29,-59 2,-106 -61,-106z"/>
  <path class="fil47" d="M61761 46968l-3081 0c-63,0 -137,47 -167,106l-703 1399c-29,59 -2,107 61,107l3079 15c65,0 140,-48 170,-107l704 -1413c29,-59 1,-107 -63,-107z"/>
  <path class="fil48" d="M65466 46968l-3147 0c-65,0 -140,48 -170,107l-758 1522 3263 15c66,0 143,-48 173,-108l705 -1428c29,-60 0,-108 -66,-108z"/>
  <path class="fil49" d="M64748 48848c0,0 0,0 0,0l-2146 -12c-21,0 -39,-18 -39,-39 0,-22 18,-39 39,-39l1 0 2145 11 0 0c44,0 98,-55 123,-108l1122 -2272c9,-20 33,-27 52,-18 20,10 28,33 19,53l-1122 2272c-36,73 -112,152 -194,152z"/>
  <path class="fil50" d="M55888 44962c-6,0 -12,-2 -18,-4 -20,-10 -27,-34 -17,-53l958 -1891c36,-71 134,-105 210,-106l2359 -28c19,0 40,17 40,39 1,21 -17,39 -39,39l-2359 29c-54,0 -122,24 -141,63l-958 1890c-7,14 -21,22 -35,22z"/>
  <polygon class="fil35" points="74015,52209 75586,52209 75586,43725 74015,43725 "/>
  <path class="fil35" d="M76608 52421c0,20 -23,36 -45,36l-3495 25c-78,1 -153,-62 -153,-139l0 -174c0,-38 25,-75 53,-103 28,-27 70,-42 109,-42l3485 60c23,0 46,16 46,34l0 303z"/>
  <path class="fil9" d="M84532 40772l-13293 165c-74,1 -162,57 -197,126l-3624 7148c-35,69 -4,126 69,127l13274 79c79,1 171,-58 206,-129l3644 -7389c35,-71 0,-128 -79,-127z"/>
  <path class="fil51" d="M75032 41388l-3617 41c-74,0 -162,57 -197,126l-833 1643c-34,69 -3,125 71,124l3616 -23c75,-1 164,-58 199,-127l834 -1660c34,-69 2,-124 -73,-124z"/>
  <path class="fil52" d="M79381 41340l-3695 41c-75,1 -164,58 -199,127l-834 1661c-35,70 -3,126 73,125l3693 -24c77,0 167,-58 202,-128l836 -1677c34,-70 1,-126 -76,-125z"/>
  <path class="fil53" d="M83824 41290l-3775 42c-77,1 -167,59 -202,129l-836 1678c-35,71 -1,127 76,127l3773 -25c79,0 171,-58 205,-129l837 -1695c35,-71 0,-128 -78,-127z"/>
  <path class="fil54" d="M73894 43651l-3615 21c-74,0 -162,56 -197,125l-837 1652c-35,69 -3,125 70,125l3614 -4c76,0 165,-56 200,-126l838 -1667c35,-70 2,-126 -73,-126z"/>
  <path class="fil55" d="M78241 43627l-3693 20c-75,1 -164,58 -199,127l-839 1669c-35,70 -2,127 73,127l3691 -3c77,0 168,-58 203,-129l840 -1685c35,-70 1,-127 -76,-126z"/>
  <path class="fil56" d="M82682 43602l-3773 21c-76,0 -167,58 -203,128l-839 1687c-36,71 -2,128 76,128l3771 -4c79,0 171,-58 206,-129l841 -1703c35,-71 0,-129 -79,-128z"/>
  <path class="fil57" d="M72751 45925l-3613 0c-74,0 -163,56 -198,126l-840 1658c-35,70 -4,127 69,127l3613 17c74,0 164,-56 199,-126l843 -1675c35,-71 2,-127 -73,-127z"/>
  <path class="fil58" d="M77096 45925l-3691 0c-75,0 -165,56 -200,127l-843 1676c-35,71 -2,128 74,128l3689 18c76,0 167,-57 203,-128l843 -1693c36,-71 2,-128 -75,-128z"/>
  <path class="fil59" d="M81536 45925l-3772 0c-77,0 -168,57 -203,128l-907 1823 3909 18c78,1 171,-57 206,-129l844 -1711c36,-72 1,-129 -77,-129z"/>
  <path class="fil0" d="M80675 48169c0,0 0,0 0,0l-2571 -14c-22,0 -39,-17 -39,-39 0,-22 18,-39 39,-39l1 0 2570 13c0,0 0,0 0,0 56,0 123,-67 155,-133l1343 -2723c10,-19 33,-27 53,-17 19,9 27,33 18,52l-1343 2722c-43,86 -131,178 -226,178z"/>
  <path class="fil0" d="M70059 43513c-6,0 -12,-1 -18,-4 -19,-10 -27,-34 -16,-53l1147 -2265c42,-83 157,-122 246,-123l2826 -34c0,0 0,0 1,0 21,0 39,18 39,39 0,22 -18,40 -39,40l-2827 34c-66,1 -150,29 -176,80l-1148 2264c-7,14 -21,22 -35,22z"/>
  <polygon class="fil60" points="5747,51659 34500,51659 34500,37283 5747,37283 "/>
  <path class="fil61" d="M34814 36674c0,-54 -44,-98 -98,-98l-29185 0c-54,0 -98,44 -98,98l0 510c0,55 44,99 98,99l29185 0c54,0 98,-44 98,-99l0 -510z"/>
  <path class="fil62" d="M34814 51757c0,-54 -44,-98 -98,-98l-29185 0c-54,0 -98,44 -98,98l0 511c0,54 44,98 98,98l29185 0c54,0 98,-44 98,-98l0 -511z"/>
  <path class="fil9" d="M10775 38795c0,-54 -44,-98 -98,-98l-2554 0c-54,0 -98,44 -98,98l0 11509c0,54 44,98 98,98l2554 0c54,0 98,-44 98,-98l0 -11509z"/>
  <polygon class="fil63" points="8261,39482 10539,39482 10539,39168 8261,39168 "/>
  <polygon class="fil64" points="8261,40346 10539,40346 10539,40032 8261,40032 "/>
  <polygon class="fil65" points="8261,41211 10539,41211 10539,40896 8261,40896 "/>
  <polygon class="fil66" points="8261,42075 10539,42075 10539,41761 8261,41761 "/>
  <polygon class="fil67" points="8261,42939 10539,42939 10539,42625 8261,42625 "/>
  <polygon class="fil68" points="8261,43803 10539,43803 10539,43489 8261,43489 "/>
  <polygon class="fil69" points="8261,44667 10539,44667 10539,44353 8261,44353 "/>
  <polygon class="fil70" points="8261,45532 10539,45532 10539,45217 8261,45217 "/>
  <polygon class="fil71" points="8261,46396 10539,46396 10539,46081 8261,46081 "/>
  <polygon class="fil72" points="8261,47260 10539,47260 10539,46946 8261,46946 "/>
  <polygon class="fil73" points="8261,48124 10539,48124 10539,47810 8261,47810 "/>
  <polygon class="fil74" points="8261,48988 10539,48988 10539,48674 8261,48674 "/>
  <polygon class="fil75" points="8261,49852 10539,49852 10539,49538 8261,49538 "/>
  <path class="fil9" d="M32143 50304c0,54 -44,98 -98,98l-2553 0c-55,0 -99,-44 -99,-98l0 -11509c0,-54 44,-98 99,-98l2553 0c54,0 98,44 98,98l0 11509z"/>
  <polygon class="fil76" points="29629,39482 31907,39482 31907,39168 29629,39168 "/>
  <polygon class="fil77" points="29629,40346 31907,40346 31907,40032 29629,40032 "/>
  <polygon class="fil78" points="29629,41211 31907,41211 31907,40896 29629,40896 "/>
  <polygon class="fil79" points="29629,42075 31907,42075 31907,41761 29629,41761 "/>
  <polygon class="fil80" points="29629,42939 31907,42939 31907,42625 29629,42625 "/>
  <polygon class="fil81" points="29629,43803 31907,43803 31907,43489 29629,43489 "/>
  <polygon class="fil82" points="29629,44667 31907,44667 31907,44353 29629,44353 "/>
  <polygon class="fil83" points="29629,45532 31907,45532 31907,45217 29629,45217 "/>
  <polygon class="fil84" points="29629,46396 31907,46396 31907,46081 29629,46081 "/>
  <polygon class="fil85" points="29629,47260 31907,47260 31907,46946 29629,46946 "/>
  <polygon class="fil86" points="29629,48124 31907,48124 31907,47810 29629,47810 "/>
  <polygon class="fil87" points="29629,48988 31907,48988 31907,48674 29629,48674 "/>
  <polygon class="fil88" points="29629,49852 31907,49852 31907,49538 29629,49538 "/>
  <path class="fil89" d="M22734 42806c-9,-17 -27,-24 -47,-24l-2145 0c-16,0 -32,-12 -42,-25 -10,-13 -13,-31 -9,-47l897 -3503c7,-25 -5,-50 -28,-61 -23,-11 -50,-5 -65,15l-3827 5132c-12,16 -14,65 -5,82 9,18 27,57 47,57l1969 0c15,0 30,-21 40,-8 10,12 14,14 11,30l-817 4050c-5,25 8,46 31,55 23,10 50,1 64,-20l3923 -5680c11,-16 12,-36 3,-53z"/>
  <path class="fil9" d="M26094 49420c0,239 -193,432 -432,432l-11156 0c-238,0 -432,-193 -432,-432l0 0c0,-239 194,-432 432,-432l11156 0c239,0 432,193 432,432l0 0z"/>
  <path class="fil0" d="M16226 27465c33,0 62,26 81,55 33,29 34,67 31,99l-149 1426 1229 -1818 -209 0c-83,0 -120,-77 -144,-140 -23,-58 -23,-187 7,-245l448 -872 -1267 0c-7,0 -14,18 -21,17l-356 1431c-2,6 5,14 5,14l0 3c0,0 -5,5 -1,13 4,6 4,-5 7,3 4,8 6,12 12,12l270 0c16,0 34,2 57,2zm-73 1848c-24,0 -47,-7 -69,-21 -50,-32 -67,-113 -62,-162l154 -1510 -305 0c-72,0 -106,-53 -129,-100l-8 -7c-22,-42 -32,-72 -17,-129l382 -1492c14,-56 55,-75 89,-75 33,0 56,-1 72,11 1,1 3,-15 4,-15l1279 0c0,0 1,18 1,18 15,-16 41,-32 80,-32 30,0 67,21 85,66 20,53 19,81 -5,129l-4 8 -489 939c-6,17 -8,66 -1,85 5,15 17,44 26,44l209 0c-4,0 -2,17 1,16 14,-6 32,-4 55,-4 34,0 76,24 93,77 22,69 9,110 -24,159l-1326 1945c-21,31 -54,50 -91,50z"/>
  <path class="fil0" d="M18868 28888c-16,0 -32,-4 -46,-15 -35,-25 -43,-74 -17,-109 37,-51 73,-105 106,-158 23,-37 71,-49 108,-26 37,23 48,71 26,108 -36,57 -74,114 -113,168 -15,21 -39,32 -64,32z"/>
  <path class="fil0" d="M14435 28623c-28,0 -54,-14 -69,-40 -68,-121 -127,-249 -175,-379 -15,-41 5,-86 46,-101 41,-15 86,5 101,46 46,123 101,243 165,358 21,37 8,85 -30,106 -12,7 -25,10 -38,10zm498 638c-19,0 -39,-7 -54,-21 -101,-95 -196,-199 -281,-309 -27,-34 -21,-83 13,-110 34,-27 84,-21 110,14 81,103 171,201 266,291 31,29 33,79 3,111 -15,16 -36,24 -57,24zm3364 201c-24,0 -48,-11 -63,-32 -26,-35 -18,-84 17,-110 19,-14 38,-29 58,-44 84,-66 165,-137 240,-213 31,-30 81,-30 111,0 31,31 31,80 1,111 -80,80 -166,156 -256,226 -20,16 -41,32 -61,47 -14,10 -31,15 -47,15zm-2696 256c-11,0 -23,-2 -34,-8 -125,-59 -247,-129 -362,-208 -36,-24 -45,-73 -21,-109 25,-36 74,-45 110,-21 108,74 222,140 341,197 39,18 56,65 37,104 -14,29 -42,45 -71,45zm1978 119c-32,0 -63,-21 -74,-54 -14,-41 8,-86 49,-99 124,-42 246,-94 362,-155 39,-20 86,-5 106,33 20,39 6,86 -33,106 -123,65 -253,120 -385,164 -8,3 -16,5 -25,5zm-1202 113c-4,0 -8,0 -11,-1 -138,-19 -275,-49 -409,-88 -41,-13 -65,-57 -53,-98 13,-42 56,-66 98,-53 126,37 255,66 385,83 43,6 73,46 67,89 -5,39 -39,68 -77,68zm405 24c-43,0 -78,-34 -79,-77 -1,-43 34,-79 77,-80 132,-2 263,-14 392,-37 43,-8 84,22 91,64 8,43 -21,84 -64,91 -137,24 -277,37 -416,39 0,0 -1,0 -1,0z"/>
  <path class="fil0" d="M14153 27862c-37,0 -70,-26 -77,-63 -13,-66 -24,-133 -33,-200 -5,-43 26,-82 69,-87 43,-6 82,25 87,68 8,63 18,126 31,188 8,42 -19,84 -62,92 -5,1 -10,2 -15,2z"/>
  <path class="fil0" d="M14619 25770c-16,0 -32,-6 -47,-16 -34,-26 -42,-75 -16,-110 40,-54 83,-107 127,-158 28,-32 78,-36 111,-7 32,28 36,77 8,110 -42,48 -82,98 -120,149 -15,21 -39,32 -63,32z"/>
  <path class="fil0" d="M16474 24718c-40,0 -74,-31 -78,-71 -5,-43 27,-82 70,-86 136,-14 274,-17 411,-10 43,3 77,40 74,83 -2,43 -38,76 -82,74 -129,-6 -259,-3 -387,9 -3,1 -6,1 -8,1zm1179 151c-9,0 -19,-1 -27,-5 -121,-44 -246,-80 -373,-106 -42,-9 -70,-51 -61,-93 9,-43 50,-70 93,-61 134,27 267,66 395,113 41,15 62,60 47,101 -12,32 -42,51 -74,51zm-1950 46c-31,0 -60,-18 -73,-47 -17,-40 2,-86 42,-104 126,-53 257,-98 389,-132 42,-11 85,15 96,57 11,42 -15,85 -57,96 -125,31 -248,73 -367,124 -10,4 -20,6 -30,6zm2646 340c-17,0 -34,-5 -48,-16 -102,-79 -211,-151 -324,-213 -37,-21 -51,-69 -30,-107 21,-38 69,-52 107,-31 119,67 235,143 343,227 34,26 40,76 14,110 -16,20 -39,30 -62,30zm-3323 80c-22,0 -44,-9 -60,-27 -28,-33 -24,-83 9,-111 30,-26 60,-51 92,-75 76,-60 157,-116 240,-168 37,-23 85,-11 108,26 23,36 12,85 -25,108 -78,48 -154,101 -227,158 -29,23 -58,46 -86,70 -15,13 -33,19 -51,19zm3871 498c-25,0 -49,-12 -64,-34 -26,-37 -54,-74 -82,-111 -51,-65 -106,-129 -163,-189 -30,-32 -29,-81 3,-111 31,-30 81,-29 111,3 60,63 119,131 173,201 30,38 59,77 87,117 24,36 16,85 -20,109 -14,10 -29,15 -45,15zm352 714c-33,0 -64,-22 -75,-55 -38,-123 -87,-244 -144,-360 -19,-38 -3,-86 36,-105 39,-19 86,-3 105,36 61,123 112,251 153,381 13,42 -10,86 -51,99 -8,3 -16,4 -24,4z"/>
  <path class="fil0" d="M19363 27133c-41,0 -75,-32 -78,-73 -5,-63 -13,-126 -22,-189 -7,-43 23,-83 65,-89 43,-7 83,22 90,65 10,67 18,134 23,201 4,43 -29,81 -72,85 -2,0 -4,0 -6,0z"/>
  <path class="fil0" d="M24956 30919l35 0 47 70 -4 45 -104 1000 857 -1272 -117 0c-77,0 -109,-64 -128,-113 -17,-45 -18,-148 7,-197l288 -554 -887 0c-4,0 -7,19 -11,18l-258 1024c8,21 13,22 21,49 2,6 4,9 7,9l145 0c7,0 15,-8 28,-20l6 -44 68 -15zm-80 1417c-22,0 -43,-6 -63,-19 -44,-28 -60,-102 -55,-145l103 -1017 -198 0c-72,0 -93,-53 -112,-117 -3,-12 -6,-14 -9,-20 -20,-39 -24,-69 -14,-112l288 -1126c12,-49 52,-85 81,-85 51,0 74,46 86,46l915 0c13,0 34,-79 88,-79l54 0 24 78 33 71 -42 43 -366 695c-2,9 -3,30 0,43 2,5 8,13 13,13l136 0c15,0 31,5 53,5 32,0 71,27 88,77 18,58 6,97 -21,137l-998 1465c-19,28 -50,47 -84,47z"/>
  <path class="fil0" d="M26892 32055c-17,0 -33,-5 -48,-16 -34,-26 -41,-76 -14,-110 38,-50 74,-102 107,-155 23,-37 71,-49 108,-26 37,23 48,71 26,108 -36,58 -75,115 -116,168 -16,21 -39,31 -63,31z"/>
  <path class="fil0" d="M23722 32029c-24,0 -48,-11 -63,-32 -84,-114 -157,-236 -216,-364 -18,-39 -1,-86 39,-104 39,-18 86,-1 104,38 54,118 122,232 199,337 26,35 19,84 -16,110 -14,10 -30,15 -47,15zm604 540c-13,0 -26,-3 -39,-10 -122,-71 -237,-154 -343,-249 -32,-29 -35,-78 -6,-110 29,-33 79,-36 111,-7 97,87 204,164 317,229 37,22 50,70 29,108 -15,25 -41,39 -69,39zm1952 16c-27,0 -54,-15 -68,-41 -21,-37 -8,-85 30,-106 86,-48 170,-104 248,-165 25,-19 49,-39 73,-60 33,-28 82,-24 111,9 28,33 24,82 -8,110 -26,23 -52,44 -79,65 -85,66 -175,126 -269,178 -12,7 -25,10 -38,10zm-1181 236c-3,0 -6,0 -9,0 -140,-16 -279,-46 -414,-90 -41,-14 -63,-58 -50,-99 14,-41 58,-64 99,-51 124,41 253,69 383,83 43,5 74,44 69,87 -5,40 -39,70 -78,70zm407 4c-40,0 -74,-31 -78,-71 -4,-44 28,-82 71,-86 130,-12 259,-38 384,-77 41,-13 85,11 98,52 13,42 -11,86 -52,98 -135,42 -275,70 -415,83 -3,1 -6,1 -8,1z"/>
  <path class="fil0" d="M23383 31291c-36,0 -68,-24 -77,-61 -15,-66 -26,-133 -35,-201 -5,-43 25,-82 68,-88 43,-5 83,25 88,69 8,62 19,124 33,185 9,43 -17,85 -59,94 -6,2 -12,2 -18,2z"/>
  <path class="fil0" d="M23724 29669c-16,0 -33,-5 -47,-15 -35,-26 -42,-75 -16,-110 40,-55 84,-108 130,-158 29,-32 79,-34 111,-5 32,29 34,79 5,111 -42,46 -83,95 -120,145 -15,21 -39,32 -63,32z"/>
  <path class="fil0" d="M24871 28918c-35,0 -68,-24 -76,-61 -10,-42 17,-84 59,-94 135,-31 274,-48 413,-52 43,-3 80,34 81,77 1,44 -34,79 -77,80 -129,3 -257,20 -382,48 -6,2 -12,2 -18,2zm1182 92c-9,0 -19,-2 -29,-6 -119,-47 -243,-83 -370,-106 -42,-8 -71,-48 -63,-91 8,-43 48,-71 91,-63 137,24 272,63 401,114 40,16 59,62 43,102 -12,31 -41,50 -73,50zm-1906 240c-24,0 -48,-11 -64,-32 -25,-35 -17,-84 18,-110 112,-82 233,-153 359,-211 39,-18 86,-1 104,39 18,39 0,86 -39,104 -116,53 -228,119 -332,195 -14,10 -30,15 -46,15zm2572 198c-21,0 -41,-7 -56,-23 -91,-91 -191,-172 -298,-243 -36,-24 -46,-73 -22,-109 24,-36 73,-46 109,-22 115,76 224,165 322,263 31,31 31,81 0,111 -15,16 -35,23 -55,23zm439 666c-31,0 -61,-19 -73,-50 -48,-119 -108,-233 -179,-340 -24,-37 -14,-85 22,-109 37,-24 85,-14 109,22 77,116 142,240 194,369 16,40 -4,86 -44,102 -10,4 -19,6 -29,6z"/>
  <path class="fil0" d="M27293 30695c-40,0 -75,-31 -78,-72 -5,-63 -13,-126 -24,-187 -7,-43 21,-84 64,-92 42,-7 83,21 91,64 12,67 21,135 26,202 3,44 -29,81 -72,85 -3,0 -5,0 -7,0z"/>
  <path class="fil0" d="M24007 23142l30 0 40 58 -3 37 -90 846 735 -1098 -101 0c-65,0 -93,-45 -109,-88 -15,-38 -16,-115 6,-157l246 -462 -759 0c-3,0 -6,9 -10,8l-221 873c8,18 12,25 19,48 1,6 3,14 5,14l125 0c5,0 13,-15 24,-25l5 -39 58 -15zm-69 1209c-18,0 -37,-5 -54,-16 -37,-24 -50,-69 -47,-105l88 -852 -169 0c-62,0 -80,-65 -96,-120 -3,-10 -5,-21 -7,-26 -18,-33 -21,-64 -12,-101l246 -966c11,-42 44,-78 70,-78 43,0 63,34 73,34l783 0c11,0 30,-79 76,-79l46 0 20 76 29 66 -36 40 -314 596c-2,7 -3,45 1,56 1,5 6,30 10,30l117 0c12,0 27,-14 45,-14 27,0 61,14 75,56 16,50 6,79 -18,114l-853 1251c-17,24 -44,38 -73,38z"/>
  <path class="fil0" d="M25664 24111c-14,0 -29,-5 -41,-14 -30,-23 -35,-65 -13,-95 33,-42 64,-87 92,-132 20,-32 61,-42 93,-22 31,19 41,61 21,92 -30,50 -64,98 -99,144 -13,18 -33,27 -53,27z"/>
  <path class="fil0" d="M22950 24088c-20,0 -41,-9 -54,-27 -72,-97 -134,-202 -185,-312 -15,-34 0,-73 33,-89 34,-15 74,-1 90,33 46,101 104,198 170,288 22,30 16,72 -14,94 -12,9 -26,13 -40,13zm517 462c-11,0 -22,-2 -33,-8 -105,-61 -204,-132 -294,-213 -27,-25 -30,-67 -5,-95 25,-28 67,-30 95,-5 83,74 174,140 271,196 32,18 43,60 25,92 -13,21 -35,33 -59,33zm1671 14c-23,0 -46,-12 -59,-34 -18,-33 -6,-74 27,-92 73,-41 145,-88 212,-141 21,-16 42,-33 62,-51 28,-24 71,-21 95,7 24,28 21,71 -7,95 -22,19 -44,37 -67,55 -73,57 -150,108 -230,153 -10,5 -22,8 -33,8zm-1011 202c-3,0 -5,0 -8,0 -120,-14 -239,-39 -354,-77 -35,-12 -54,-50 -43,-85 12,-35 50,-54 85,-43 106,35 216,59 327,71 37,4 64,38 60,74 -4,35 -33,60 -67,60zm348 3c-34,0 -63,-26 -66,-61 -4,-37 23,-69 60,-73 112,-10 222,-32 329,-65 35,-11 73,9 84,44 11,36 -9,73 -44,84 -116,36 -236,60 -356,71 -2,0 -4,0 -7,0z"/>
  <path class="fil0" d="M22660 23457c-31,0 -59,-22 -66,-53 -13,-56 -23,-114 -30,-172 -5,-37 22,-70 58,-75 37,-5 71,22 76,59 6,53 16,106 27,158 9,37 -14,73 -50,81 -5,1 -10,2 -15,2z"/>
  <path class="fil0" d="M22952 22068c-14,0 -28,-4 -40,-13 -30,-22 -37,-64 -14,-94 34,-47 72,-92 111,-135 25,-28 67,-30 95,-5 27,25 29,68 4,95 -36,40 -70,82 -102,125 -14,18 -34,27 -54,27z"/>
  <path class="fil0" d="M23934 21425c-31,0 -58,-21 -66,-52 -8,-36 15,-72 51,-81 116,-26 235,-41 354,-44 36,-2 68,29 68,66 1,37 -28,68 -65,69 -110,2 -220,16 -327,41 -5,1 -10,1 -15,1zm1012 79c-9,0 -17,-2 -25,-5 -102,-41 -209,-71 -317,-91 -36,-6 -61,-41 -54,-78 7,-37 41,-61 78,-54 117,21 232,54 343,98 34,13 51,53 37,87 -10,26 -36,43 -62,43zm-1632 205c-21,0 -41,-9 -55,-27 -22,-30 -15,-72 15,-94 96,-71 200,-131 307,-181 34,-15 74,0 90,33 15,34 0,74 -34,89 -99,46 -195,102 -284,167 -12,9 -26,13 -39,13zm2201 170c-17,0 -34,-7 -47,-20 -78,-77 -164,-148 -255,-208 -31,-20 -40,-62 -20,-93 21,-31 63,-40 94,-19 99,65 192,141 276,225 26,27 26,69 0,95 -13,14 -31,20 -48,20zm376 570c-27,0 -52,-16 -62,-43 -41,-101 -92,-199 -153,-291 -21,-31 -12,-73 19,-94 31,-20 72,-11 93,19 66,100 121,206 166,316 13,35 -3,74 -38,88 -8,3 -17,5 -25,5z"/>
  <path class="fil0" d="M26007 22946c-35,0 -64,-27 -67,-62 -4,-53 -11,-107 -20,-160 -7,-36 18,-71 54,-78 37,-6 72,18 78,55 10,57 18,115 22,173 3,37 -24,69 -61,72 -2,0 -4,0 -6,0z"/>
  <path class="fil90" d="M59368 51434c0,0 70,390 103,776 13,151 -103,282 -254,288 -514,21 -1614,63 -2008,45 -60,-2 -98,-63 -77,-118l0 0c19,-46 54,-84 100,-105l1816 -834 320 -52z"/>
  <path class="fil91" d="M59425 51205l-55 466c0,0 -318,149 -536,-18l132 -520 459 72z"/>
  <path class="fil92" d="M59383 42437c24,121 129,6077 -508,8747 -10,43 12,88 53,105 98,40 289,98 519,105 71,3 135,-43 155,-111 182,-620 1054,-3723 1168,-6687 126,-3312 0,-113 0,-113l-75 -2047 -1312 1z"/>
  <path class="fil93" d="M61458 51637c0,0 109,197 216,720 19,95 -47,185 -143,195 -170,16 -431,38 -641,37 -96,-1 -171,-85 -160,-181 23,-191 95,-504 319,-748l409 -23z"/>
  <path class="fil94" d="M61554 51038l-129 705c0,0 -128,95 -381,26l62 -759 448 28z"/>
  <path class="fil95" d="M61903 42619c521,3143 -112,7767 -326,8672 -14,56 -58,98 -114,108 -96,16 -252,28 -408,-17 -53,-15 -90,-63 -93,-119 -28,-732 24,-5224 -462,-6999 -25,-90 -79,-169 -155,-223l-942 -669 -72 -1082 2572 329z"/>
  <path class="fil96" d="M58585 36665c1561,-26 3283,409 3283,409 465,2715 81,5845 81,5845 -1208,317 -2571,-193 -2571,-193 -201,-1135 -1137,-4328 -1137,-4328 -763,-94 -1391,-314 -1908,-605 394,-458 580,-1039 661,-1383 552,171 1110,263 1591,255z"/>
  <path class="fil97" d="M53976 34366c153,-185 347,-97 347,-97 230,970 1434,1756 2671,2141 -81,344 -267,925 -661,1383 -2053,-1154 -2357,-3427 -2357,-3427z"/>
  <path class="fil98" d="M54013 34413c-16,51 170,129 279,-80 4,-100 65,-528 5,-609 -318,-434 -935,-977 -935,-977 -104,102 -18,204 -18,204l299 311c-62,113 -139,209 -174,345 -28,104 -11,215 41,309 53,95 124,218 192,314 129,182 311,183 311,183z"/>
  <path class="fil99" d="M53774 33464l273 231 85 231 -243 269c0,0 -81,-456 -142,-555 -61,-99 -29,-147 27,-176z"/>
  <path class="fil100" d="M61269 38585l599 -1511c0,0 1457,991 1697,2247 -276,20 -777,92 -1267,339 -108,-593 -1029,-1075 -1029,-1075z"/>
  <path class="fil101" d="M59995 40007c0,0 1637,925 2189,136 115,-165 142,-327 114,-483 490,-247 991,-319 1267,-339 72,378 34,781 -189,1188 -967,1769 -3597,-98 -3597,-98l216 -404z"/>
  <path class="fil2" d="M60192 41177l-893 -3119c-10,-35 -41,-61 -77,-65 -162,-19 -631,-72 -1172,-118 -652,-55 -1410,-100 -1862,-62 -64,6 -103,74 -75,132 257,520 1316,2638 1846,3332 18,23 45,36 74,36l2072 -19c60,-1 104,-59 87,-117z"/>
  <path class="fil102" d="M57957 37605l-647 -108c-35,-6 -63,27 -52,60l64 194c6,17 20,30 38,32l623 83c33,5 59,-25 52,-56l-40 -170c-5,-18 -19,-32 -38,-35z"/>
  <path class="fil103" d="M58442 38153l-53 -278c-6,-28 -28,-49 -57,-52l-1308 -132c-44,-5 -79,35 -69,78l83 347c7,27 31,47 60,49l1278 64c41,2 74,-35 66,-76z"/>
  <path class="fil104" d="M59976 40424c0,0 125,-512 75,-693 -51,-182 -148,-415 -472,-363 -324,52 -707,188 -707,188 0,0 20,237 266,160l-153 119c0,0 22,189 230,88l-142 156c0,0 89,156 242,56 154,-100 227,350 661,289z"/>
  <path class="fil105" d="M60166 35398l496 1436c9,23 -1,50 -23,62 -136,75 -623,291 -1211,-81 -61,-39 -103,-102 -112,-174l-161 -1243 1011 0z"/>
  <path class="fil106" d="M59086 34068c0,0 -546,1027 -476,1441 70,415 746,385 1336,48l412 -1108 -1272 -381z"/>
  <path class="fil107" d="M59920 35013c-24,-11 -33,-40 -19,-62 44,-67 126,-203 152,-322 0,0 98,-63 -249,-146 -348,-83 -866,-212 -975,-508 -106,-288 326,-750 618,-436 19,21 50,23 67,1 73,-95 265,-292 531,-173 250,112 278,295 274,387 -1,27 23,48 50,43 126,-24 428,-45 570,265 116,256 40,401 -28,471 -23,23 -13,61 17,70 83,26 190,96 180,290 -15,268 -315,245 -400,232 -15,-2 -29,3 -38,14 -73,81 -403,425 -760,466 -31,4 -55,-27 -45,-56l155 -449c7,-21 -3,-44 -23,-53l-77 -34z"/>
  <path class="fil108" d="M59858 35077c0,0 388,-267 416,-42 29,224 -349,325 -537,241l121 -199z"/>
  <path class="fil109" d="M58870 33606c0,0 618,-1068 1723,-430 1106,639 508,1423 508,1423l-2231 -993z"/>
  <path class="fil110" d="M61136 33663c0,0 -1332,-1063 -1961,79 -258,-113 -305,-136 -305,-136 0,0 558,-1023 1320,-678 763,344 947,510 946,735z"/>
  <path class="fil0" d="M59611 33970c4,2 9,2 12,0l9 -5c198,-106 530,-284 750,-193 107,44 210,111 310,174 70,45 144,92 217,130 99,53 209,109 335,172l0 0c6,3 15,0 18,-7 4,-6 1,-15 -6,-18 -126,-63 -235,-119 -335,-171 -72,-38 -144,-84 -214,-129 -101,-64 -207,-131 -314,-176 -232,-96 -571,85 -774,194l-8 4c-7,4 -10,12 -6,19 1,3 4,5 6,6z"/>
  <path class="fil111" d="M61097 34772l-2626 -1011c-17,-6 -27,-22 -27,-40 0,-17 12,-33 29,-38 135,-44 360,-105 449,-65 288,129 2179,981 2179,981 0,0 47,22 -4,173z"/>
  <path class="fil112" d="M76394 16253c0,1589 -1289,2878 -2879,2878 -1590,0 -2879,-1289 -2879,-2878 0,-1590 1289,-2879 2879,-2879 1590,0 2879,1289 2879,2879z"/>
  <path class="fil113" d="M76442 18364c-12,0 -23,-3 -33,-10 -26,-18 -33,-54 -15,-80 26,-40 52,-80 77,-120 17,-27 52,-35 80,-18 26,16 35,52 18,79 -25,42 -52,83 -80,123 -11,17 -29,26 -47,26z"/>
  <path class="fil114" d="M70164 17532c-24,0 -47,-15 -55,-39 -31,-93 -60,-188 -84,-283 -8,-31 11,-62 42,-70 31,-8 62,11 70,42 24,92 51,184 82,273 10,30 -6,63 -36,74 -7,2 -13,3 -19,3zm233 531c-21,0 -40,-11 -51,-30 -46,-86 -90,-176 -129,-265 -13,-30 0,-64 30,-77 29,-12 63,1 76,30 38,87 80,173 125,257 15,28 4,63 -23,78 -9,5 -18,7 -28,7zm317 486c-17,0 -34,-8 -45,-22 -61,-78 -118,-159 -171,-241 -18,-26 -10,-62 16,-80 27,-17 63,-10 80,17 52,79 108,158 166,233 20,25 15,61 -11,81 -10,8 -22,12 -35,12zm5363 267c-13,0 -28,-5 -39,-16 -23,-22 -24,-59 -2,-82 65,-69 128,-141 188,-215 20,-25 56,-28 81,-8 25,20 29,56 9,81 -62,76 -126,151 -194,222 -12,12 -27,18 -43,18zm-4971 161c-14,0 -29,-5 -40,-15 -71,-67 -142,-137 -208,-210 -21,-23 -19,-60 5,-81 23,-22 60,-20 80,3 65,70 133,139 202,203 23,22 25,58 3,82 -11,12 -27,18 -42,18zm4539 226c-17,0 -35,-8 -46,-23 -20,-26 -14,-62 11,-81 14,-11 28,-21 41,-32 61,-48 122,-98 180,-150 24,-21 60,-19 82,5 21,24 19,60 -5,81 -60,54 -122,106 -186,156 -14,11 -28,21 -42,32 -10,8 -23,12 -35,12zm-4084 132c-10,0 -21,-3 -31,-9 -82,-54 -163,-112 -240,-173 -25,-19 -29,-56 -9,-81 20,-25 56,-29 81,-10 75,59 152,115 231,167 27,18 34,54 17,80 -11,17 -30,26 -49,26zm3595 179c-21,0 -41,-11 -52,-31 -14,-28 -4,-63 25,-78 83,-44 166,-92 247,-143 27,-17 62,-9 80,18 17,27 8,62 -18,79 -83,53 -169,103 -256,149 -8,4 -18,6 -26,6zm-3086 100c-8,0 -16,-2 -24,-5 -89,-40 -178,-84 -264,-131 -28,-15 -38,-50 -23,-79 15,-28 51,-38 78,-22 84,45 170,88 256,126 30,13 43,47 30,76 -9,22 -31,35 -53,35zm2552 127c-25,0 -47,-15 -55,-39 -10,-31 6,-63 36,-73 91,-30 181,-64 267,-101 30,-13 64,1 77,30 12,30 -2,64 -31,76 -90,38 -183,74 -276,104 -6,2 -12,3 -18,3zm-2004 64c-5,0 -10,0 -15,-2 -95,-24 -189,-53 -282,-86 -30,-10 -46,-43 -35,-73 10,-30 42,-46 73,-36 89,32 181,59 273,83 31,8 49,40 42,71 -7,26 -31,43 -56,43zm1439 72c-28,0 -52,-20 -57,-48 -4,-32 18,-62 49,-67 94,-14 188,-33 280,-55 31,-8 62,12 70,43 7,31 -12,62 -43,69 -95,23 -193,43 -290,58 -2,0 -6,0 -9,0zm-868 28c-2,0 -3,0 -5,0 -97,-9 -196,-22 -292,-39 -32,-6 -53,-36 -48,-67 6,-32 36,-52 67,-47 94,16 189,29 283,37 32,3 56,32 53,63 -3,30 -28,53 -58,53zm324 15l-35 -1c-31,0 -57,-26 -57,-58 1,-32 25,-58 59,-57l33 0c84,0 169,-3 252,-9 32,-2 60,21 62,53 3,32 -21,60 -53,62 -87,6 -174,10 -261,10z"/>
  <path class="fil115" d="M70020 16966c-27,0 -51,-20 -56,-48 -9,-49 -16,-97 -22,-146 -3,-31 19,-60 50,-64 32,-4 61,18 65,50 6,47 13,94 21,141 5,31 -16,61 -48,66 -3,1 -6,1 -10,1z"/>
  <path class="fil116" d="M70669 14144c-12,0 -25,-3 -35,-11 -26,-19 -31,-55 -12,-81 29,-39 59,-78 90,-116 20,-25 57,-29 82,-9 24,20 28,57 8,82 -30,37 -59,74 -87,112 -11,15 -29,23 -46,23z"/>
  <path class="fil117" d="M73785 12726c-2,0 -4,0 -5,0 -90,-8 -182,-11 -272,-11l-9 0c-32,0 -58,-26 -58,-58 0,-32 26,-58 58,-58l9 0c93,0 188,4 281,11 32,3 55,31 53,62 -2,31 -27,54 -57,54zm-855 36c-28,0 -52,-20 -57,-48 -5,-32 16,-61 48,-67 95,-15 192,-27 288,-35 32,-4 60,21 62,53 3,31 -21,59 -53,62 -93,8 -186,19 -278,35 -4,0 -7,0 -10,0zm1419 54c-5,0 -10,-1 -14,-2 -91,-22 -183,-41 -276,-55 -32,-5 -53,-35 -48,-67 5,-31 35,-53 67,-48 94,16 190,35 284,58 31,7 50,38 42,69 -6,27 -29,45 -55,45zm-1972 85c-25,0 -47,-15 -56,-40 -10,-30 6,-63 37,-73 91,-31 185,-58 278,-82 32,-7 63,11 70,42 8,31 -11,63 -41,71 -91,22 -182,49 -270,79 -6,2 -12,3 -18,3zm2513 94c-8,0 -15,-2 -22,-5 -86,-36 -174,-69 -264,-99 -30,-10 -46,-42 -36,-73 10,-30 42,-47 73,-37 91,31 183,65 272,103 29,12 43,46 31,75 -10,22 -31,36 -54,36zm-3038 132c-21,0 -40,-11 -51,-31 -15,-28 -4,-63 24,-78 85,-45 173,-88 262,-126 29,-12 63,1 75,30 14,30 0,64 -29,76 -86,37 -171,78 -254,122 -8,5 -18,7 -27,7zm3544 132c-11,0 -21,-3 -31,-9 -79,-50 -161,-97 -243,-140 -28,-15 -40,-50 -25,-78 15,-29 50,-40 78,-25 86,45 170,93 252,145 27,17 35,53 18,80 -11,17 -30,27 -49,27zm-4025 176c-17,0 -34,-8 -45,-23 -20,-25 -15,-62 10,-81 77,-58 157,-114 238,-166 27,-18 63,-10 80,17 17,27 10,63 -17,80 -79,50 -156,105 -230,161 -11,8 -23,12 -36,12zm4482 166c-14,0 -28,-5 -39,-15 -70,-62 -143,-121 -217,-177 -26,-19 -31,-56 -12,-81 19,-26 55,-31 81,-12 77,58 153,120 225,184 24,21 26,57 5,81 -12,13 -28,20 -43,20zm-4908 214c-13,0 -28,-5 -40,-15 -23,-23 -23,-59 -1,-82 66,-70 137,-138 209,-202 23,-22 60,-19 81,4 21,24 19,61 -5,82 -69,62 -137,128 -201,196 -12,11 -27,17 -43,17zm5303 197c-17,0 -34,-7 -45,-21 -59,-72 -122,-143 -186,-210 -22,-23 -22,-60 2,-82 22,-22 59,-21 81,2 67,69 132,142 192,217 21,24 17,61 -7,81 -12,9 -24,13 -37,13zm325 470c-20,0 -40,-11 -50,-29 -47,-81 -98,-161 -151,-238 -18,-26 -11,-62 15,-80 26,-18 62,-12 80,15 55,79 107,161 156,245 16,27 6,63 -21,79 -9,5 -19,8 -29,8zm245 515c-23,0 -45,-14 -54,-37 -33,-87 -70,-174 -110,-259 -14,-28 -2,-63 28,-77 28,-13 63,-1 76,28 42,87 80,177 115,267 11,30 -5,63 -34,74 -7,3 -14,4 -21,4zm159 549c-27,0 -51,-19 -57,-47 -18,-91 -41,-183 -67,-273 -9,-30 9,-62 40,-71 31,-9 62,9 71,39 27,93 50,188 70,282 6,32 -14,62 -45,69 -4,0 -8,1 -12,1z"/>
  <path class="fil118" d="M77037 15975c-30,0 -55,-23 -58,-54 -3,-47 -8,-94 -13,-141 -4,-32 19,-61 50,-65 32,-3 60,19 64,51 6,49 11,97 15,146 2,32 -22,60 -53,62 -2,1 -4,1 -5,1z"/>
  <path class="fil119" d="M49213 37851l-578 1832c0,0 -670,494 -1525,22 -131,-72 -267,-166 -405,-290 -1038,-926 -349,-2273 -349,-2273 0,0 -792,-319 -440,-992 24,-45 92,-38 106,12 51,185 176,510 438,625 14,5 26,12 38,17 12,-35 12,-77 -16,-121 -82,-124 66,-294 66,-294 0,0 10,150 123,244 98,82 145,262 78,410 -142,551 -354,1279 473,1812 84,54 172,87 262,102 791,132 1729,-1106 1729,-1106z"/>
  <path class="fil120" d="M49213 37851l-578 1832c0,0 -670,494 -1525,22l374 -748c791,132 1729,-1106 1729,-1106z"/>
  <path class="fil121" d="M49387 35603c0,0 -328,-1139 897,-826 0,0 599,-84 616,481 0,0 260,391 271,872 0,0 1178,305 1364,777 191,484 85,1251 -399,1384 0,0 385,204 190,641 -194,437 -1135,727 -1674,177 0,0 -1573,170 -1516,-937 0,0 -719,-488 70,-1386 787,-898 181,-1183 181,-1183z"/>
  <path class="fil122" d="M49291 37649c247,-74 968,-211 1653,421 116,107 163,270 122,423 -184,677 -669,2679 -244,3545 0,0 -750,827 -1568,161 0,0 -368,-1601 -849,-2303 -332,-486 530,-1822 748,-2145 33,-49 81,-85 138,-102z"/>
  <path class="fil123" d="M50044 36338c0,0 366,1035 394,1492 0,0 -404,184 -785,-127 0,0 -41,-1034 -98,-1219l489 -146z"/>
  <path class="fil124" d="M49387 35281c0,0 -988,1316 -425,1718 562,403 1266,-533 1266,-533 0,0 239,-728 13,-982 -227,-254 -854,-203 -854,-203z"/>
  <path class="fil125" d="M49838 34971c0,0 -442,94 -509,291 -66,198 615,398 806,412l136 806c0,0 475,-744 304,-1185 -171,-440 -737,-324 -737,-324z"/>
  <path class="fil126" d="M50045 36363c0,0 382,-422 524,-138 142,285 -347,485 -511,343l-13 -205z"/>
  <path class="fil127" d="M48298 45559c3,73 -125,649 -194,957 -28,123 -9,253 54,363l2405 4047c29,49 50,102 63,157 44,190 135,655 88,1079l-125 258 538 -122 117 -1445 -152 -93c-132,-80 -234,-200 -293,-342 -217,-528 -757,-1873 -896,-2528 -158,-744 -985,-1349 -985,-1349l145 -344 -765 -638z"/>
  <path class="fil128" d="M51725 51801c0,0 -291,-461 -325,-640 -34,-179 -129,-496 -308,-401 0,0 -84,871 -56,1212 30,340 -384,329 -384,329 0,0 -114,16 -198,100 -57,57 -16,157 65,163 136,8 351,10 577,-33 78,-15 137,-82 142,-163l60 -1002 366 463 61 -28z"/>
  <path class="fil129" d="M49734 46204c0,0 85,3620 97,4134 11,514 -81,1653 -597,1994l224 166c0,0 281,-238 554,-697 308,-515 401,-609 401,-609l-102 -209c-45,-91 -58,-195 -37,-295 111,-539 482,-2332 584,-2718 120,-455 128,-1064 -288,-1574 -417,-509 -836,-192 -836,-192z"/>
  <path class="fil130" d="M50210 52661c16,0 30,-11 32,-27 17,-121 89,-605 147,-730 67,-143 286,-747 0,-799 0,0 -710,1038 -847,1178 -136,140 -308,49 -308,49 0,0 -133,39 -233,167 -48,61 -3,150 74,151l478 5c139,1 264,-83 316,-212 84,-211 229,-519 397,-656l-87 839c-2,19 13,35 31,35z"/>
  <path class="fil131" d="M49140 41808c0,0 108,344 -58,910l-1027 3587c-16,57 14,116 70,135 307,111 1317,422 2696,327 69,-5 128,-54 143,-121 90,-410 401,-1805 464,-2092 243,-1092 515,-2270 -679,-2983 -551,236 -1065,375 -1609,237z"/>
  <path class="fil132" d="M49137 35377c0,0 418,-999 1453,-569 1034,430 602,1181 602,1181l-2055 -612z"/>
  <path class="fil133" d="M51117 35170c0,0 -1280,-775 -1698,291 -237,-70 -282,-84 -282,-84 0,0 371,-954 1074,-740 702,214 881,337 906,533z"/>
  <path class="fil134" d="M51281 35668c-2,0 -3,-1 -4,-1 -115,-40 -217,-76 -311,-111 -68,-25 -137,-57 -203,-88 -95,-45 -192,-91 -290,-117 -201,-55 -470,138 -631,252l-7 5c-5,4 -13,3 -17,-3 -4,-5 -3,-13 3,-17l7 -5c164,-117 438,-313 652,-256 99,27 198,73 293,118 66,31 134,63 201,88 95,35 197,71 311,111 6,2 9,9 7,15 -2,5 -6,9 -11,9z"/>
  <path class="fil135" d="M51209 36140l-2401 -582c-15,-4 -26,-17 -28,-33 -1,-15 7,-30 21,-37 113,-53 302,-131 384,-107 265,80 2007,608 2007,608 0,0 43,13 17,151z"/>
  <path class="fil136" d="M52461 40421c0,0 8,1 8,0 -129,-102 -817,-106 -817,-106 0,0 -499,-722 -668,-901 -5,-6 -11,-12 -16,-16 -3,-4 -7,-8 -13,-12 -61,-57 -127,-115 -198,-174 -79,-66 -142,-150 -180,-245 -264,-665 -55,-1101 426,-822 0,0 1015,844 1410,2040 5,15 8,29 13,43 16,55 31,108 45,157 1,4 -3,9 -2,13 3,8 -11,15 -8,23z"/>
  <path class="fil137" d="M49949 40856c0,0 1181,667 1579,97 82,-118 145,-525 124,-638 354,-178 621,84 819,70 52,273 77,539 -83,832 -697,1276 -2595,-70 -2595,-70l156 -291z"/>
  <path class="fil9" d="M50091 41700l-645 -2250c-7,-26 -28,-44 -55,-48 -117,-13 -455,-51 -846,-84 -470,-40 -1016,-72 -1343,-45 -46,4 -74,53 -53,95 185,375 949,1903 1331,2404 13,16 33,26 54,26l1494 -14c44,-1 75,-42 63,-84z"/>
  <path class="fil2" d="M48479 39123l-467 -78c-25,-4 -45,19 -38,43l47 141c4,11 14,20 27,22l450 60c23,3 42,-18 37,-41l-29 -122c-3,-13 -14,-23 -27,-25z"/>
  <path class="fil2" d="M48828 39518l-38 -200c-4,-20 -20,-36 -41,-38l-943 -96c-32,-3 -57,26 -50,58l60 249c5,20 22,35 43,36l922 46c30,2 53,-26 47,-55z"/>
  <path class="fil138" d="M49935 41156c0,0 90,-369 54,-500 -36,-131 -106,-299 -340,-262 -234,38 -510,136 -510,136 0,0 14,171 192,116l-111 85c0,0 16,137 166,63l-102 114c0,0 64,112 175,40 110,-72 163,253 476,208z"/>
  <path class="fil9" d="M56150 10584c57,25 119,50 179,73 60,23 121,45 183,67 31,10 47,45 36,76 -11,31 -44,47 -76,37 -62,-22 -124,-45 -186,-68 -62,-24 -123,-48 -185,-75 -31,-14 -44,-49 -31,-79 13,-31 49,-45 79,-31l0 0 1 0z"/>
  <path class="fil9" d="M56883 10843l376 101 3 1c32,8 50,41 42,73 -9,31 -41,50 -73,42l-382 -103c-32,-8 -51,-41 -42,-73 8,-32 41,-51 73,-42l0 0 3 1z"/>
  <path class="fil9" d="M57640 11028l385 65 2 1c33,5 54,36 48,68 -5,32 -35,54 -68,48l-389 -66c-33,-5 -54,-36 -49,-68 6,-32 36,-54 68,-49l0 0 3 1z"/>
  <path class="fil9" d="M58411 11140c130,12 259,21 389,26 33,1 58,29 56,61 -1,32 -28,57 -61,56 -131,-5 -263,-14 -395,-26 -32,-3 -56,-32 -53,-64 3,-32 32,-56 64,-53l0 0z"/>
  <path class="fil9" d="M59190 11170c129,-2 259,-8 389,-19 31,-2 59,22 61,54 3,32 -20,60 -53,63 -131,10 -263,17 -395,19 -33,1 -59,-25 -60,-57 -1,-32 25,-59 58,-60l0 0z"/>
  <path class="fil9" d="M59965 11108c128,-19 255,-42 382,-70 31,-7 62,13 69,44 7,31 -13,62 -44,69 -129,29 -260,52 -391,72 -31,4 -61,-17 -66,-49 -4,-32 18,-61 50,-66l0 0z"/>
  <path class="fil9" d="M60722 10941c125,-38 247,-80 368,-126 29,-12 63,3 74,33 12,29 -3,62 -33,74 -123,48 -248,91 -375,129 -31,9 -63,-8 -72,-39 -9,-30 8,-62 38,-71l0 0z"/>
  <path class="fil9" d="M61446 10660l347 -178 3 -1c28,-14 62,-3 76,25 15,28 3,63 -24,77l-352 180c-28,15 -63,4 -77,-24 -14,-28 -4,-63 24,-77l0 0 3 -2z"/>
  <path class="fil9" d="M62134 10290l332 -204 2 -1c27,-17 62,-8 78,18 17,27 8,62 -18,78l-337 207c-26,17 -62,8 -78,-18 -16,-27 -8,-62 19,-79l0 0 2 -1z"/>
  <path class="fil9" d="M62791 9869l316 -229 2 -2c25,-18 61,-12 79,13 18,25 13,60 -12,78l-320 233c-25,19 -61,13 -79,-12 -18,-25 -13,-61 13,-79l0 0 1 -2z"/>
  <path class="fil9" d="M63411 9396c99,-84 195,-171 288,-261 23,-22 58,-21 80,1 21,22 21,57 -2,79 -95,92 -193,181 -293,266 -24,20 -59,18 -80,-6 -20,-24 -17,-59 7,-79l0 0z"/>
  <path class="fil9" d="M63966 8853c84,-98 163,-200 234,-307 17,-25 51,-32 77,-15 25,17 33,51 15,77 -73,111 -155,217 -242,318 -20,23 -55,26 -78,5 -24,-20 -26,-55 -6,-78l0 0z"/>
  <path class="fil9" d="M64382 8211c49,-117 84,-239 97,-363 3,-30 30,-52 60,-49 31,3 53,30 49,60 -14,137 -52,270 -104,394 -12,29 -44,42 -72,30 -29,-12 -42,-44 -30,-72l0 0z"/>
  <path class="fil9" d="M64449 7480c-17,-60 -40,-119 -67,-173 -27,-50 -65,-95 -112,-133 -23,-20 -26,-54 -6,-77 19,-24 53,-27 77,-7 54,45 104,101 138,166 31,63 56,127 75,194 9,29 -8,59 -37,68 -29,8 -60,-9 -68,-38l0 0z"/>
  <path class="fil9" d="M63941 7014c-122,-33 -248,-49 -375,-49 -30,0 -54,-24 -55,-54 0,-30 25,-55 55,-55 136,0 272,17 403,52 29,8 47,38 39,67 -8,29 -38,47 -67,39l0 0z"/>
  <path class="fil9" d="M63196 7019c-58,19 -114,44 -163,77 -25,17 -48,35 -67,56 -20,19 -37,46 -56,69l-6 7c-19,23 -53,26 -75,7 -23,-19 -26,-52 -8,-75 23,-28 41,-56 67,-83 26,-27 55,-50 84,-70 60,-40 125,-69 190,-91 29,-9 60,6 69,34 9,29 -6,59 -34,69l-1 0z"/>
  <path class="fil9" d="M62800 7560c-3,122 26,245 70,363 11,28 -2,59 -30,69 -28,11 -59,-3 -70,-31 -47,-126 -80,-262 -77,-403 0,-30 25,-53 54,-53 30,1 54,25 53,55l0 0z"/>
  <path class="fil9" d="M63043 8264c68,109 144,213 227,310 19,23 17,56 -6,75 -22,19 -55,17 -74,-6 -87,-101 -167,-209 -237,-323 -16,-25 -8,-58 17,-73 25,-16 58,-8 73,17l0 0z"/>
  <path class="fil9" d="M63541 8848c96,85 198,164 305,237 24,17 30,49 14,73 -17,25 -50,31 -74,14 -110,-75 -216,-156 -315,-244 -22,-20 -24,-53 -5,-75 19,-22 53,-24 75,-5l0 0z"/>
  <path class="fil9" d="M64177 9286c114,62 230,118 349,169 26,12 39,43 27,69 -11,27 -42,39 -68,28 -122,-53 -241,-110 -358,-173 -26,-14 -36,-46 -22,-71 14,-26 46,-35 71,-22l1 0z"/>
  <path class="fil9" d="M64889 9596c122,42 246,80 372,115 27,8 44,37 36,64 -8,28 -36,44 -64,36 -128,-35 -254,-74 -379,-117 -27,-9 -41,-39 -32,-66 10,-27 39,-42 67,-32l0 0z"/>
  <path class="fil9" d="M65639 9805c127,27 255,51 383,71 29,5 48,31 43,59 -4,29 -31,48 -59,43 -130,-20 -260,-44 -389,-72 -28,-6 -46,-34 -40,-62 7,-28 34,-45 62,-39l0 0z"/>
  <path class="fil9" d="M66409 9926c129,13 259,23 389,29 28,1 50,25 49,54 -2,28 -26,50 -54,48 -132,-6 -263,-15 -394,-28 -29,-3 -50,-28 -47,-57 3,-28 29,-49 57,-46l0 0z"/>
  <path class="fil9" d="M67188 9964l390 -9 3 0c28,-1 51,21 52,49 0,28 -22,52 -50,52l-395 10c-28,1 -51,-21 -52,-50 -1,-28 22,-51 50,-52l0 0 2 0z"/>
  <path class="fil9" d="M67968 9928l389 -41 2 0c28,-3 52,17 56,45 2,27 -18,52 -46,55l-392 42c-28,3 -53,-17 -56,-45 -3,-28 17,-52 45,-55l0 0 2 -1z"/>
  <path class="fil9" d="M68744 9832l386 -66 1 0c28,-5 54,13 58,41 5,27 -13,53 -41,57l-388 68c-28,4 -54,-14 -58,-41 -5,-28 13,-54 41,-58l0 0 1 -1z"/>
  <path class="fil9" d="M69514 9690l383 -85 0 0c27,-6 54,11 60,37 6,27 -11,54 -38,59l-384 86c-28,6 -54,-11 -60,-38 -6,-27 11,-53 38,-59l0 0 1 0z"/>
  <path class="fil9" d="M70277 9513l381 -97 0 0c27,-7 53,9 60,35 6,27 -9,54 -35,60l-382 98c-26,7 -53,-9 -60,-35 -6,-27 10,-54 36,-61l0 0 0 0z"/>
  <path class="fil9" d="M71037 9315l378 -104c26,-7 53,8 61,34 7,26 -9,53 -34,61l-379 104c-27,7 -53,-9 -61,-35 -7,-26 8,-53 34,-60l1 0z"/>
  <path class="fil9" d="M71794 9106l379 -105c25,-7 52,8 59,34 7,26 -8,53 -34,60l-378 105c-26,7 -53,-8 -60,-34 -7,-25 8,-52 33,-60l1 0z"/>
  <path class="fil9" d="M72552 8898l380 -101c26,-7 52,9 58,34 7,26 -8,52 -34,59l0 0 -379 101 0 0c-27,7 -53,-8 -59,-34 -7,-26 7,-52 34,-59l0 0z"/>
  <path class="fil9" d="M73313 8700l383 -91c26,-6 51,10 57,35 6,26 -9,52 -35,58l0 0 -382 91 0 0c-27,7 -52,-9 -58,-35 -7,-26 9,-51 35,-58l0 0z"/>
  <path class="fil9" d="M74081 8525l386 -76c26,-5 51,12 56,37 5,26 -12,51 -38,56l-1 0 -384 76 -1 0c-25,5 -51,-12 -56,-38 -5,-25 11,-50 37,-55l1 0z"/>
  <path class="fil9" d="M74856 8383l390 -54c26,-3 49,15 53,40 4,26 -14,50 -40,53l-2 0 -387 54 -1 1c-26,3 -50,-15 -53,-41 -4,-25 14,-49 40,-53l0 0z"/>
  <path class="fil9" d="M75639 8289l394 -25c25,-2 47,18 49,43 1,26 -18,48 -43,50l-2 0 -390 25 -2 0c-26,2 -48,-18 -50,-43 -1,-26 18,-48 44,-50l0 0z"/>
  <path class="fil9" d="M76427 8255l394 5c25,0 45,20 45,45 0,25 -21,45 -46,45l-1 0 -392 -3 -1 0c-25,-1 -46,-21 -45,-47 0,-25 21,-45 46,-45l0 0z"/>
  <path class="fil9" d="M77215 8280c131,10 263,22 394,39 24,3 40,24 37,48 -3,23 -24,40 -48,37 -129,-15 -259,-27 -388,-36 -25,-2 -43,-23 -42,-47 2,-24 23,-43 47,-41l0 0z"/>
  <path class="fil9" d="M77999 8378c130,24 259,52 387,84 22,5 35,28 30,50 -5,22 -28,35 -50,30 -126,-31 -254,-58 -382,-81 -22,-4 -38,-26 -33,-49 3,-23 25,-38 48,-34l0 0z"/>
  <path class="fil9" d="M78766 8572c125,41 249,87 371,139 20,9 29,32 21,52 -9,20 -32,29 -52,21 -120,-50 -242,-95 -365,-136 -22,-6 -33,-29 -26,-50 7,-22 29,-33 51,-26l0 0z"/>
  <polygon class="fil35" points="55659,9440 55595,10682 54781,10105 "/>
  <path class="fil9" d="M50107 8437l3204 3118c62,60 144,92 230,89 86,-3 166,-40 223,-104l3010 -3335c34,-38 42,-94 19,-140 -22,-46 -70,-74 -122,-71l-6564 443z"/>
  <polygon class="fil35" points="55659,9440 50107,8437 55175,9979 55171,10325 "/>
  <polygon class="fil35" points="54885,10297 55595,10682 55175,9979 "/>
 </g>
</svg>
