<?xml version="1.0" encoding="UTF-8"?>
<!DOCTYPE svg PUBLIC "-//W3C//DTD SVG 1.1//EN" "http://www.w3.org/Graphics/SVG/1.1/DTD/svg11.dtd">
<!-- Creator: CorelDRAW X7 -->
<svg xmlns="http://www.w3.org/2000/svg" xml:space="preserve" width="176.389mm" height="131.233mm" version="1.1" style="shape-rendering:geometricPrecision; text-rendering:geometricPrecision; image-rendering:optimizeQuality; fill-rule:evenodd; clip-rule:evenodd"
viewBox="0 0 17639 13123"
 xmlns:xlink="http://www.w3.org/1999/xlink">
 <defs>
  <style type="text/css">
   <![CDATA[
    .fil15 {fill:#FEFEFE;fill-rule:nonzero}
    .fil29 {fill:#F58E82;fill-rule:nonzero}
    .fil18 {fill:#F9FCFE;fill-rule:nonzero}
    .fil3 {fill:#F9F8F8;fill-rule:nonzero}
    .fil17 {fill:#F7F7F8;fill-rule:nonzero}
    .fil2 {fill:#F3F4F4;fill-rule:nonzero}
    .fil16 {fill:#F1F3F4;fill-rule:nonzero}
    .fil1 {fill:#F1F1F0;fill-rule:nonzero}
    .fil0 {fill:#EDEDEB;fill-rule:nonzero}
    .fil6 {fill:#E7EDF8;fill-rule:nonzero}
    .fil5 {fill:#D7E4F4;fill-rule:nonzero}
    .fil26 {fill:#D0DEF2;fill-rule:nonzero}
    .fil34 {fill:#CD7468;fill-rule:nonzero}
    .fil28 {fill:#CBDBF1;fill-rule:nonzero}
    .fil35 {fill:#CECFCF;fill-rule:nonzero}
    .fil13 {fill:#C3D7EF;fill-rule:nonzero}
    .fil36 {fill:#C7C6C6;fill-rule:nonzero}
    .fil25 {fill:#C0D6EE;fill-rule:nonzero}
    .fil22 {fill:#C4C8CB;fill-rule:nonzero}
    .fil21 {fill:#C0C6C8;fill-rule:nonzero}
    .fil23 {fill:#B9CEEA;fill-rule:nonzero}
    .fil10 {fill:#BEC3C5;fill-rule:nonzero}
    .fil37 {fill:#B6CFEC;fill-rule:nonzero}
    .fil9 {fill:#BAC0C2;fill-rule:nonzero}
    .fil11 {fill:#AFC9E9;fill-rule:nonzero}
    .fil19 {fill:#B4B9BA;fill-rule:nonzero}
    .fil8 {fill:#A9B0B3;fill-rule:nonzero}
    .fil14 {fill:#9CAFCF;fill-rule:nonzero}
    .fil30 {fill:#8BAFDC;fill-rule:nonzero}
    .fil31 {fill:#8A8F90;fill-rule:nonzero}
    .fil33 {fill:#6990CA;fill-rule:nonzero}
    .fil12 {fill:#6790CA;fill-rule:nonzero}
    .fil24 {fill:#566267;fill-rule:nonzero}
    .fil27 {fill:#485357;fill-rule:nonzero}
    .fil4 {fill:#4B7ABC;fill-rule:nonzero}
    .fil20 {fill:#425055;fill-rule:nonzero}
    .fil7 {fill:#313F44;fill-rule:nonzero}
    .fil32 {fill:#2E373B;fill-rule:nonzero}
    .fil38 {fill:#3B6BB2;fill-rule:nonzero}
   ]]>
  </style>
 </defs>
 <g id="Capa_x0020_1">
  <metadata id="CorelCorpID_0Corel-Layer"/>
  <polygon class="fil0" points="0,11539 17639,11539 17639,11530 0,11530 "/>
  <polygon class="fil0" points="14703,12107 15872,12107 15872,12098 14703,12098 "/>
  <polygon class="fil0" points="11378,12202 11685,12202 11685,12194 11378,12194 "/>
  <polygon class="fil0" points="13991,11779 14668,11779 14668,11770 13991,11770 "/>
  <polygon class="fil0" points="1851,11838 3374,11838 3374,11830 1851,11830 "/>
  <polygon class="fil0" points="3689,11838 3912,11838 3912,11830 3689,11830 "/>
  <polygon class="fil0" points="4638,11987 7943,11987 7943,11979 4638,11979 "/>
  <path class="fil0" d="M1549 -13c-106,0 -192,87 -192,193l0 9575c0,107 86,193 192,193l6812 0c106,0 193,-86 193,-193l0 -9575c0,-106 -87,-193 -193,-193l-6812 0zm6812 9970l-6812 0c-111,0 -201,-91 -201,-202l0 -9575c0,-111 90,-201 201,-201l6812 0c111,0 202,90 202,201l0 9575c0,111 -91,202 -202,202z"/>
  <path class="fil0" d="M9180 -13c-106,0 -193,87 -193,193l0 9575c0,107 87,193 193,193l6812 0c106,0 192,-86 192,-193l0 -9575c0,-106 -86,-193 -192,-193l-6812 0zm6812 9970l-6812 0c-111,0 -202,-91 -202,-202l0 -9575c0,-111 91,-201 202,-201l6812 0c111,0 201,90 201,201l0 9575c0,111 -90,202 -201,202z"/>
  <path class="fil1" d="M6370 2525c0,-158 -128,-286 -286,-286 -29,0 -56,4 -82,12 4,-28 6,-58 6,-88 0,-335 -272,-606 -606,-606 -39,0 -76,4 -112,10 -93,-152 -261,-254 -453,-254 -290,0 -526,233 -530,522l-9 0c-270,0 -488,219 -488,488 0,270 218,489 488,489l1794 0 0 -1c154,-4 278,-130 278,-286z"/>
  <path class="fil1" d="M13599 5454c0,-158 -128,-286 -287,-286 -28,0 -56,4 -82,12 4,-29 7,-58 7,-88 0,-335 -272,-607 -607,-607 -38,0 -75,4 -112,11 -93,-153 -260,-255 -452,-255 -291,0 -526,233 -530,523l-9 -1c-270,0 -489,219 -489,489 0,270 219,488 489,488l1794 0 0 0c154,-4 278,-130 278,-286z"/>
  <path class="fil1" d="M4619 7680c0,-158 -128,-287 -286,-287 -29,0 -56,5 -82,13 4,-29 6,-59 6,-88 0,-335 -271,-607 -606,-607 -38,0 -76,4 -112,11 -93,-153 -261,-255 -453,-255 -290,0 -525,233 -530,523l-9 -1c-269,0 -488,219 -488,489 0,269 219,488 488,488l1794 0 0 0c154,-5 278,-131 278,-286z"/>
  <path class="fil1" d="M15436 7912c0,-158 -128,-286 -286,-286 -28,0 -56,4 -82,12 4,-29 6,-58 6,-88 0,-335 -271,-607 -606,-607 -38,0 -76,4 -112,11 -93,-153 -261,-255 -452,-255 -291,0 -526,233 -531,523l-9 -1c-269,0 -488,219 -488,489 0,270 219,488 488,488l1795 0 -1 0c155,-4 278,-131 278,-286z"/>
  <path class="fil1" d="M9524 6177c0,-106 -86,-193 -193,-193 -19,0 -37,3 -55,8 3,-19 4,-39 4,-59 0,-226 -183,-409 -408,-409 -26,0 -51,3 -76,7 -62,-102 -175,-171 -305,-171 -195,0 -354,157 -357,352l-6 0c-182,0 -329,147 -329,329 0,182 147,329 329,329l1209 0 0 0c104,-3 187,-88 187,-193z"/>
  <path class="fil1" d="M14955 2523c0,-107 -87,-193 -193,-193 -19,0 -38,3 -56,8 3,-19 5,-39 5,-59 0,-226 -183,-409 -409,-409 -26,0 -51,3 -75,7 -63,-103 -176,-172 -305,-172 -196,0 -355,158 -358,353l-5 -1c-182,0 -330,148 -330,330 0,181 148,329 330,329l1208 0 0 0c104,-3 188,-88 188,-193z"/>
  <polygon class="fil2" points="2080,11036 2080,9378 2222,9378 2222,8587 2430,8587 2430,5839 2729,5839 2729,5485 3369,5186 3369,4829 3458,4829 3458,5839 3582,5839 3582,8587 3706,8587 3706,7142 4043,7142 4043,6398 4137,6398 4137,8587 4393,8587 4393,7754 4561,7754 4561,7541 4951,7541 4951,6814 5165,6814 5165,6300 5427,6300 5427,5551 5521,5551 5521,6300 5784,6300 5784,6814 5997,6814 5997,7541 6387,7541 6387,7754 6556,7754 6556,8587 6755,8587 6755,7541 7145,7541 7145,5290 7270,5290 7270,5042 8103,5042 8103,5290 8280,5290 8280,6921 8989,6921 8989,7080 9255,7080 9255,7205 8989,7205 8989,7843 9734,7843 9734,5715 9893,5715 9893,5263 10239,5263 10239,3659 10337,3659 10337,5263 10585,5263 10585,5715 12040,5715 12040,5567 12129,5567 12129,6577 12253,6577 12253,6595 12327,6595 12327,7605 12451,7605 12451,7880 12714,7880 12714,7136 12808,7136 12808,8908 12912,8908 12912,8164 13006,8164 13006,9325 13063,9325 13063,8492 13232,8492 13232,8279 13622,8279 13622,7552 13835,7552 13835,7038 14098,7038 14098,6289 14192,6289 14192,7038 14454,7038 14454,7552 14668,7552 14668,8279 15058,8279 15058,8492 15226,8492 15226,9307 15257,9307 15257,9325 15340,9325 15340,11036 "/>
  <polygon class="fil3" points="11128,5915 11228,5915 11228,5815 11128,5815 "/>
  <polygon class="fil3" points="11128,6084 11228,6084 11228,5983 11128,5983 "/>
  <polygon class="fil3" points="11128,6757 11228,6757 11228,6657 11128,6657 "/>
  <polygon class="fil3" points="11128,6926 11228,6926 11228,6825 11128,6825 "/>
  <polygon class="fil3" points="11128,7094 11228,7094 11228,6994 11128,6994 "/>
  <polygon class="fil3" points="11128,7599 11228,7599 11228,7499 11128,7499 "/>
  <polygon class="fil3" points="11128,7768 11228,7768 11228,7667 11128,7667 "/>
  <polygon class="fil3" points="10968,6589 11068,6589 11068,6488 10968,6488 "/>
  <polygon class="fil3" points="10968,6757 11068,6757 11068,6657 10968,6657 "/>
  <polygon class="fil3" points="10968,6926 11068,6926 11068,6825 10968,6825 "/>
  <polygon class="fil3" points="10968,7094 11068,7094 11068,6994 10968,6994 "/>
  <polygon class="fil3" points="10968,7263 11068,7263 11068,7162 10968,7162 "/>
  <polygon class="fil3" points="10968,7599 11068,7599 11068,7499 10968,7499 "/>
  <polygon class="fil3" points="10968,7768 11068,7768 11068,7667 10968,7667 "/>
  <polygon class="fil3" points="10808,5915 10909,5915 10909,5815 10808,5815 "/>
  <polygon class="fil3" points="10808,6084 10909,6084 10909,5983 10808,5983 "/>
  <polygon class="fil3" points="10808,6252 10909,6252 10909,6152 10808,6152 "/>
  <polygon class="fil3" points="10808,6420 10909,6420 10909,6320 10808,6320 "/>
  <polygon class="fil3" points="10808,6589 10909,6589 10909,6488 10808,6488 "/>
  <polygon class="fil3" points="10808,6757 10909,6757 10909,6657 10808,6657 "/>
  <polygon class="fil3" points="10808,6926 10909,6926 10909,6825 10808,6825 "/>
  <polygon class="fil3" points="10808,7094 10909,7094 10909,6994 10808,6994 "/>
  <polygon class="fil3" points="10808,7263 10909,7263 10909,7162 10808,7162 "/>
  <polygon class="fil3" points="10808,7431 10909,7431 10909,7331 10808,7331 "/>
  <polygon class="fil3" points="10808,7768 10909,7768 10909,7667 10808,7667 "/>
  <polygon class="fil3" points="10649,5915 10749,5915 10749,5815 10649,5815 "/>
  <polygon class="fil3" points="10649,6084 10749,6084 10749,5983 10649,5983 "/>
  <polygon class="fil3" points="10649,6252 10749,6252 10749,6152 10649,6152 "/>
  <polygon class="fil3" points="10649,6420 10749,6420 10749,6320 10649,6320 "/>
  <polygon class="fil3" points="10649,6589 10749,6589 10749,6488 10649,6488 "/>
  <polygon class="fil3" points="10649,6757 10749,6757 10749,6657 10649,6657 "/>
  <polygon class="fil3" points="10649,6926 10749,6926 10749,6825 10649,6825 "/>
  <polygon class="fil3" points="10649,8442 10749,8442 10749,8341 10649,8341 "/>
  <polygon class="fil3" points="10489,5915 10590,5915 10590,5815 10489,5815 "/>
  <polygon class="fil3" points="10489,6084 10590,6084 10590,5983 10489,5983 "/>
  <polygon class="fil3" points="10489,6252 10590,6252 10590,6152 10489,6152 "/>
  <polygon class="fil3" points="10489,6420 10590,6420 10590,6320 10489,6320 "/>
  <polygon class="fil3" points="10489,6589 10590,6589 10590,6488 10489,6488 "/>
  <polygon class="fil3" points="10489,6757 10590,6757 10590,6657 10489,6657 "/>
  <polygon class="fil3" points="10489,6926 10590,6926 10590,6825 10489,6825 "/>
  <polygon class="fil3" points="10489,7094 10590,7094 10590,6994 10489,6994 "/>
  <polygon class="fil3" points="10489,8105 10590,8105 10590,8004 10489,8004 "/>
  <polygon class="fil3" points="10489,8273 10590,8273 10590,8173 10489,8173 "/>
  <polygon class="fil3" points="10489,8442 10590,8442 10590,8341 10489,8341 "/>
  <polygon class="fil3" points="10489,8610 10590,8610 10590,8509 10489,8509 "/>
  <polygon class="fil3" points="10489,9284 10590,9284 10590,9183 10489,9183 "/>
  <polygon class="fil3" points="10330,5915 10430,5915 10430,5815 10330,5815 "/>
  <polygon class="fil3" points="10330,6084 10430,6084 10430,5983 10330,5983 "/>
  <polygon class="fil3" points="10330,6252 10430,6252 10430,6152 10330,6152 "/>
  <polygon class="fil3" points="10330,6420 10430,6420 10430,6320 10330,6320 "/>
  <polygon class="fil3" points="10330,6589 10430,6589 10430,6488 10330,6488 "/>
  <polygon class="fil3" points="10330,6757 10430,6757 10430,6657 10330,6657 "/>
  <polygon class="fil3" points="10330,6926 10430,6926 10430,6825 10330,6825 "/>
  <polygon class="fil3" points="10330,7094 10430,7094 10430,6994 10330,6994 "/>
  <polygon class="fil3" points="10330,7263 10430,7263 10430,7162 10330,7162 "/>
  <polygon class="fil3" points="10330,7431 10430,7431 10430,7331 10330,7331 "/>
  <polygon class="fil3" points="10330,7936 10430,7936 10430,7836 10330,7836 "/>
  <polygon class="fil3" points="10330,8105 10430,8105 10430,8004 10330,8004 "/>
  <polygon class="fil3" points="10330,8273 10430,8273 10430,8173 10330,8173 "/>
  <polygon class="fil3" points="10330,8442 10430,8442 10430,8341 10330,8341 "/>
  <polygon class="fil3" points="10330,8610 10430,8610 10430,8509 10330,8509 "/>
  <polygon class="fil3" points="10330,9284 10430,9284 10430,9183 10330,9183 "/>
  <polygon class="fil3" points="10170,5915 10271,5915 10271,5815 10170,5815 "/>
  <polygon class="fil3" points="10170,6084 10271,6084 10271,5983 10170,5983 "/>
  <polygon class="fil3" points="10170,6252 10271,6252 10271,6152 10170,6152 "/>
  <polygon class="fil3" points="10170,6420 10271,6420 10271,6320 10170,6320 "/>
  <polygon class="fil3" points="10170,6589 10271,6589 10271,6488 10170,6488 "/>
  <polygon class="fil3" points="10170,6757 10271,6757 10271,6657 10170,6657 "/>
  <polygon class="fil3" points="10170,6926 10271,6926 10271,6825 10170,6825 "/>
  <polygon class="fil3" points="10170,7094 10271,7094 10271,6994 10170,6994 "/>
  <polygon class="fil3" points="10170,7263 10271,7263 10271,7162 10170,7162 "/>
  <polygon class="fil3" points="10170,7431 10271,7431 10271,7331 10170,7331 "/>
  <polygon class="fil3" points="10170,7599 10271,7599 10271,7499 10170,7499 "/>
  <polygon class="fil3" points="10170,7768 10271,7768 10271,7667 10170,7667 "/>
  <polygon class="fil3" points="10170,7936 10271,7936 10271,7836 10170,7836 "/>
  <polygon class="fil3" points="10170,8105 10271,8105 10271,8004 10170,8004 "/>
  <polygon class="fil3" points="10170,8273 10271,8273 10271,8173 10170,8173 "/>
  <polygon class="fil3" points="10170,8442 10271,8442 10271,8341 10170,8341 "/>
  <polygon class="fil3" points="10170,8610 10271,8610 10271,8509 10170,8509 "/>
  <polygon class="fil3" points="10170,8778 10271,8778 10271,8678 10170,8678 "/>
  <polygon class="fil3" points="10011,5915 10111,5915 10111,5815 10011,5815 "/>
  <polygon class="fil3" points="10011,6084 10111,6084 10111,5983 10011,5983 "/>
  <polygon class="fil3" points="10011,6252 10111,6252 10111,6152 10011,6152 "/>
  <polygon class="fil3" points="10011,6420 10111,6420 10111,6320 10011,6320 "/>
  <polygon class="fil3" points="10011,6589 10111,6589 10111,6488 10011,6488 "/>
  <polygon class="fil3" points="10011,6757 10111,6757 10111,6657 10011,6657 "/>
  <polygon class="fil3" points="10011,6926 10111,6926 10111,6825 10011,6825 "/>
  <polygon class="fil3" points="10011,7094 10111,7094 10111,6994 10011,6994 "/>
  <polygon class="fil3" points="10011,7263 10111,7263 10111,7162 10011,7162 "/>
  <polygon class="fil3" points="10011,7431 10111,7431 10111,7331 10011,7331 "/>
  <polygon class="fil3" points="10011,7936 10111,7936 10111,7836 10011,7836 "/>
  <polygon class="fil3" points="10011,8105 10111,8105 10111,8004 10011,8004 "/>
  <polygon class="fil3" points="10011,8273 10111,8273 10111,8173 10011,8173 "/>
  <polygon class="fil3" points="10011,8442 10111,8442 10111,8341 10011,8341 "/>
  <polygon class="fil3" points="9851,5915 9952,5915 9952,5815 9851,5815 "/>
  <polygon class="fil3" points="9851,6084 9952,6084 9952,5983 9851,5983 "/>
  <polygon class="fil3" points="9851,6252 9952,6252 9952,6152 9851,6152 "/>
  <polygon class="fil3" points="9851,6420 9952,6420 9952,6320 9851,6320 "/>
  <polygon class="fil3" points="9851,6589 9952,6589 9952,6488 9851,6488 "/>
  <polygon class="fil3" points="9851,6757 9952,6757 9952,6657 9851,6657 "/>
  <polygon class="fil3" points="9851,6926 9952,6926 9952,6825 9851,6825 "/>
  <polygon class="fil3" points="9851,7094 9952,7094 9952,6994 9851,6994 "/>
  <polygon class="fil3" points="9851,7263 9952,7263 9952,7162 9851,7162 "/>
  <polygon class="fil3" points="9851,7431 9952,7431 9952,7331 9851,7331 "/>
  <polygon class="fil3" points="9851,7936 9952,7936 9952,7836 9851,7836 "/>
  <polygon class="fil3" points="9851,8105 9952,8105 9952,8004 9851,8004 "/>
  <polygon class="fil3" points="9851,8273 9952,8273 9952,8173 9851,8173 "/>
  <polygon class="fil3" points="8055,5478 8155,5478 8155,5377 8055,5377 "/>
  <polygon class="fil3" points="8055,5646 8155,5646 8155,5546 8055,5546 "/>
  <polygon class="fil3" points="8055,5815 8155,5815 8155,5714 8055,5714 "/>
  <polygon class="fil3" points="8055,5983 8155,5983 8155,5883 8055,5883 "/>
  <polygon class="fil3" points="8055,6152 8155,6152 8155,6051 8055,6051 "/>
  <polygon class="fil3" points="8055,6320 8155,6320 8155,6220 8055,6220 "/>
  <polygon class="fil3" points="8055,6488 8155,6488 8155,6388 8055,6388 "/>
  <polygon class="fil3" points="8055,6657 8155,6657 8155,6556 8055,6556 "/>
  <polygon class="fil3" points="8055,7162 8155,7162 8155,7062 8055,7062 "/>
  <polygon class="fil3" points="8055,7331 8155,7331 8155,7230 8055,7230 "/>
  <polygon class="fil3" points="7895,5478 7995,5478 7995,5377 7895,5377 "/>
  <polygon class="fil3" points="7895,5646 7995,5646 7995,5546 7895,5546 "/>
  <polygon class="fil3" points="7895,5815 7995,5815 7995,5714 7895,5714 "/>
  <polygon class="fil3" points="7895,5983 7995,5983 7995,5883 7895,5883 "/>
  <polygon class="fil3" points="7895,6152 7995,6152 7995,6051 7895,6051 "/>
  <polygon class="fil3" points="7895,6320 7995,6320 7995,6220 7895,6220 "/>
  <polygon class="fil3" points="7895,6488 7995,6488 7995,6388 7895,6388 "/>
  <polygon class="fil3" points="7895,6657 7995,6657 7995,6556 7895,6556 "/>
  <polygon class="fil3" points="7895,7331 7995,7331 7995,7230 7895,7230 "/>
  <polygon class="fil3" points="7735,5478 7836,5478 7836,5377 7735,5377 "/>
  <polygon class="fil3" points="7735,5646 7836,5646 7836,5546 7735,5546 "/>
  <polygon class="fil3" points="7735,5815 7836,5815 7836,5714 7735,5714 "/>
  <polygon class="fil3" points="7735,5983 7836,5983 7836,5883 7735,5883 "/>
  <polygon class="fil3" points="7735,6152 7836,6152 7836,6051 7735,6051 "/>
  <polygon class="fil3" points="7735,6320 7836,6320 7836,6220 7735,6220 "/>
  <polygon class="fil3" points="7735,6488 7836,6488 7836,6388 7735,6388 "/>
  <polygon class="fil3" points="7735,6657 7836,6657 7836,6556 7735,6556 "/>
  <polygon class="fil3" points="7576,5478 7676,5478 7676,5377 7576,5377 "/>
  <polygon class="fil3" points="7576,5646 7676,5646 7676,5546 7576,5546 "/>
  <polygon class="fil3" points="7576,5815 7676,5815 7676,5714 7576,5714 "/>
  <polygon class="fil3" points="7576,5983 7676,5983 7676,5883 7576,5883 "/>
  <polygon class="fil3" points="7576,6152 7676,6152 7676,6051 7576,6051 "/>
  <polygon class="fil3" points="7576,6320 7676,6320 7676,6220 7576,6220 "/>
  <polygon class="fil3" points="7576,6657 7676,6657 7676,6556 7576,6556 "/>
  <polygon class="fil3" points="7576,6825 7676,6825 7676,6725 7576,6725 "/>
  <polygon class="fil3" points="7576,7331 7676,7331 7676,7230 7576,7230 "/>
  <polygon class="fil3" points="7576,7499 7676,7499 7676,7398 7576,7398 "/>
  <polygon class="fil3" points="7576,7667 7676,7667 7676,7567 7576,7567 "/>
  <polygon class="fil3" points="7576,7836 7676,7836 7676,7735 7576,7735 "/>
  <polygon class="fil3" points="7576,8004 7676,8004 7676,7904 7576,7904 "/>
  <polygon class="fil3" points="7576,8173 7676,8173 7676,8072 7576,8072 "/>
  <polygon class="fil3" points="7576,8341 7676,8341 7676,8241 7576,8241 "/>
  <polygon class="fil3" points="7416,5478 7517,5478 7517,5377 7416,5377 "/>
  <polygon class="fil3" points="7416,5646 7517,5646 7517,5546 7416,5546 "/>
  <polygon class="fil3" points="7416,5815 7517,5815 7517,5714 7416,5714 "/>
  <polygon class="fil3" points="7416,5983 7517,5983 7517,5883 7416,5883 "/>
  <polygon class="fil3" points="7416,6152 7517,6152 7517,6051 7416,6051 "/>
  <polygon class="fil3" points="7416,6320 7517,6320 7517,6220 7416,6220 "/>
  <polygon class="fil3" points="7416,6825 7517,6825 7517,6725 7416,6725 "/>
  <polygon class="fil3" points="7416,6994 7517,6994 7517,6893 7416,6893 "/>
  <polygon class="fil3" points="7416,7162 7517,7162 7517,7062 7416,7062 "/>
  <polygon class="fil3" points="7416,7331 7517,7331 7517,7230 7416,7230 "/>
  <polygon class="fil3" points="7416,7499 7517,7499 7517,7398 7416,7398 "/>
  <polygon class="fil3" points="7416,7667 7517,7667 7517,7567 7416,7567 "/>
  <polygon class="fil3" points="7416,7836 7517,7836 7517,7735 7416,7735 "/>
  <polygon class="fil3" points="7416,8004 7517,8004 7517,7904 7416,7904 "/>
  <polygon class="fil3" points="7416,8173 7517,8173 7517,8072 7416,8072 "/>
  <polygon class="fil3" points="7416,8341 7517,8341 7517,8241 7416,8241 "/>
  <polygon class="fil3" points="7416,8509 7517,8509 7517,8409 7416,8409 "/>
  <polygon class="fil3" points="7416,8846 7517,8846 7517,8746 7416,8746 "/>
  <polygon class="fil3" points="7257,5478 7357,5478 7357,5377 7257,5377 "/>
  <polygon class="fil3" points="7257,5646 7357,5646 7357,5546 7257,5546 "/>
  <polygon class="fil3" points="7257,5815 7357,5815 7357,5714 7257,5714 "/>
  <polygon class="fil3" points="7257,5983 7357,5983 7357,5883 7257,5883 "/>
  <polygon class="fil3" points="7257,6152 7357,6152 7357,6051 7257,6051 "/>
  <polygon class="fil3" points="7257,6320 7357,6320 7357,6220 7257,6220 "/>
  <polygon class="fil3" points="7257,6825 7357,6825 7357,6725 7257,6725 "/>
  <polygon class="fil3" points="7257,6994 7357,6994 7357,6893 7257,6893 "/>
  <polygon class="fil3" points="7257,7162 7357,7162 7357,7062 7257,7062 "/>
  <polygon class="fil3" points="7257,7331 7357,7331 7357,7230 7257,7230 "/>
  <polygon class="fil3" points="7257,7836 7357,7836 7357,7735 7257,7735 "/>
  <polygon class="fil3" points="7257,8004 7357,8004 7357,7904 7257,7904 "/>
  <polygon class="fil3" points="7257,8173 7357,8173 7357,8072 7257,8072 "/>
  <polygon class="fil3" points="7257,8341 7357,8341 7357,8241 7257,8241 "/>
  <polygon class="fil3" points="7257,8509 7357,8509 7357,8409 7257,8409 "/>
  <polygon class="fil3" points="7257,8846 7357,8846 7357,8746 7257,8746 "/>
  <polygon class="fil3" points="7257,9015 7357,9015 7357,8914 7257,8914 "/>
  <polygon class="fil3" points="5809,7044 5909,7044 5909,6943 5809,6943 "/>
  <polygon class="fil3" points="5809,7212 5909,7212 5909,7112 5809,7112 "/>
  <polygon class="fil3" points="5809,7381 5909,7381 5909,7280 5809,7280 "/>
  <polygon class="fil3" points="5809,7549 5909,7549 5909,7449 5809,7449 "/>
  <polygon class="fil3" points="5809,7718 5909,7718 5909,7617 5809,7617 "/>
  <polygon class="fil3" points="5809,7886 5909,7886 5909,7786 5809,7786 "/>
  <polygon class="fil3" points="5809,8054 5909,8054 5909,7954 5809,7954 "/>
  <polygon class="fil3" points="5809,8560 5909,8560 5909,8459 5809,8459 "/>
  <polygon class="fil3" points="5809,8728 5909,8728 5909,8628 5809,8628 "/>
  <polygon class="fil3" points="5809,8897 5909,8897 5909,8796 5809,8796 "/>
  <polygon class="fil3" points="5649,7044 5750,7044 5750,6943 5649,6943 "/>
  <polygon class="fil3" points="5649,7212 5750,7212 5750,7112 5649,7112 "/>
  <polygon class="fil3" points="5649,7381 5750,7381 5750,7280 5649,7280 "/>
  <polygon class="fil3" points="5649,7549 5750,7549 5750,7449 5649,7449 "/>
  <polygon class="fil3" points="5649,7718 5750,7718 5750,7617 5649,7617 "/>
  <polygon class="fil3" points="5649,7886 5750,7886 5750,7786 5649,7786 "/>
  <polygon class="fil3" points="5649,8054 5750,8054 5750,7954 5649,7954 "/>
  <polygon class="fil3" points="5490,7044 5590,7044 5590,6943 5490,6943 "/>
  <polygon class="fil3" points="5490,7212 5590,7212 5590,7112 5490,7112 "/>
  <polygon class="fil3" points="5490,7381 5590,7381 5590,7280 5490,7280 "/>
  <polygon class="fil3" points="5490,7549 5590,7549 5590,7449 5490,7449 "/>
  <polygon class="fil3" points="5490,7718 5590,7718 5590,7617 5490,7617 "/>
  <polygon class="fil3" points="5490,7886 5590,7886 5590,7786 5490,7786 "/>
  <polygon class="fil3" points="5490,8054 5590,8054 5590,7954 5490,7954 "/>
  <polygon class="fil3" points="5330,7044 5431,7044 5431,6943 5330,6943 "/>
  <polygon class="fil3" points="5330,7212 5431,7212 5431,7112 5330,7112 "/>
  <polygon class="fil3" points="5330,7381 5431,7381 5431,7280 5330,7280 "/>
  <polygon class="fil3" points="5330,7549 5431,7549 5431,7449 5330,7449 "/>
  <polygon class="fil3" points="5330,7718 5431,7718 5431,7617 5330,7617 "/>
  <polygon class="fil3" points="5330,7886 5431,7886 5431,7786 5330,7786 "/>
  <polygon class="fil3" points="5330,8054 5431,8054 5431,7954 5330,7954 "/>
  <polygon class="fil3" points="5330,8223 5431,8223 5431,8122 5330,8122 "/>
  <polygon class="fil3" points="5330,8391 5431,8391 5431,8291 5330,8291 "/>
  <polygon class="fil3" points="5330,8560 5431,8560 5431,8459 5330,8459 "/>
  <polygon class="fil3" points="5330,8728 5431,8728 5431,8628 5330,8628 "/>
  <polygon class="fil3" points="5171,7044 5271,7044 5271,6943 5171,6943 "/>
  <polygon class="fil3" points="5171,7212 5271,7212 5271,7112 5171,7112 "/>
  <polygon class="fil3" points="5171,7381 5271,7381 5271,7280 5171,7280 "/>
  <polygon class="fil3" points="5171,7549 5271,7549 5271,7449 5171,7449 "/>
  <polygon class="fil3" points="5171,7718 5271,7718 5271,7617 5171,7617 "/>
  <polygon class="fil3" points="5171,7886 5271,7886 5271,7786 5171,7786 "/>
  <polygon class="fil3" points="5171,8054 5271,8054 5271,7954 5171,7954 "/>
  <polygon class="fil3" points="5171,8223 5271,8223 5271,8122 5171,8122 "/>
  <polygon class="fil3" points="5171,8391 5271,8391 5271,8291 5171,8291 "/>
  <polygon class="fil3" points="5171,8560 5271,8560 5271,8459 5171,8459 "/>
  <polygon class="fil3" points="5171,8728 5271,8728 5271,8628 5171,8628 "/>
  <polygon class="fil3" points="5171,8897 5271,8897 5271,8796 5171,8796 "/>
  <polygon class="fil3" points="5171,9402 5271,9402 5271,9301 5171,9301 "/>
  <polygon class="fil3" points="5171,9570 5271,9570 5271,9470 5171,9470 "/>
  <polygon class="fil3" points="5011,7044 5112,7044 5112,6943 5011,6943 "/>
  <polygon class="fil3" points="5011,7212 5112,7212 5112,7112 5011,7112 "/>
  <polygon class="fil3" points="5011,7381 5112,7381 5112,7280 5011,7280 "/>
  <polygon class="fil3" points="5011,7886 5112,7886 5112,7786 5011,7786 "/>
  <polygon class="fil3" points="5011,8054 5112,8054 5112,7954 5011,7954 "/>
  <polygon class="fil3" points="5011,8223 5112,8223 5112,8122 5011,8122 "/>
  <polygon class="fil3" points="5011,8391 5112,8391 5112,8291 5011,8291 "/>
  <polygon class="fil3" points="5011,8560 5112,8560 5112,8459 5011,8459 "/>
  <polygon class="fil3" points="5011,8728 5112,8728 5112,8628 5011,8628 "/>
  <polygon class="fil3" points="5011,8897 5112,8897 5112,8796 5011,8796 "/>
  <polygon class="fil3" points="5011,9402 5112,9402 5112,9301 5011,9301 "/>
  <polygon class="fil3" points="5011,9570 5112,9570 5112,9470 5011,9470 "/>
  <polygon class="fil3" points="5011,9739 5112,9739 5112,9638 5011,9638 "/>
  <polygon class="fil3" points="3339,6033 3439,6033 3439,5933 3339,5933 "/>
  <polygon class="fil3" points="3339,6202 3439,6202 3439,6101 3339,6101 "/>
  <polygon class="fil3" points="3339,6370 3439,6370 3439,6270 3339,6270 "/>
  <polygon class="fil3" points="3339,6539 3439,6539 3439,6438 3339,6438 "/>
  <polygon class="fil3" points="3339,6707 3439,6707 3439,6607 3339,6607 "/>
  <polygon class="fil3" points="3339,6875 3439,6875 3439,6775 3339,6775 "/>
  <polygon class="fil3" points="3339,7044 3439,7044 3439,6943 3339,6943 "/>
  <polygon class="fil3" points="3339,7212 3439,7212 3439,7112 3339,7112 "/>
  <polygon class="fil3" points="3339,7381 3439,7381 3439,7280 3339,7280 "/>
  <polygon class="fil3" points="3339,7549 3439,7549 3439,7449 3339,7449 "/>
  <polygon class="fil3" points="3339,7718 3439,7718 3439,7617 3339,7617 "/>
  <polygon class="fil3" points="3339,7886 3439,7886 3439,7786 3339,7786 "/>
  <polygon class="fil3" points="3339,8054 3439,8054 3439,7954 3339,7954 "/>
  <polygon class="fil3" points="3339,8223 3439,8223 3439,8122 3339,8122 "/>
  <polygon class="fil3" points="3339,8391 3439,8391 3439,8291 3339,8291 "/>
  <polygon class="fil3" points="3339,8560 3439,8560 3439,8459 3339,8459 "/>
  <polygon class="fil3" points="3339,8728 3439,8728 3439,8628 3339,8628 "/>
  <polygon class="fil3" points="3339,8897 3439,8897 3439,8796 3339,8796 "/>
  <polygon class="fil3" points="3339,9065 3439,9065 3439,8965 3339,8965 "/>
  <polygon class="fil3" points="3339,9233 3439,9233 3439,9133 3339,9133 "/>
  <polygon class="fil3" points="3339,9402 3439,9402 3439,9301 3339,9301 "/>
  <polygon class="fil3" points="3339,9570 3439,9570 3439,9470 3339,9470 "/>
  <polygon class="fil3" points="3339,9739 3439,9739 3439,9638 3339,9638 "/>
  <polygon class="fil3" points="3179,6033 3280,6033 3280,5933 3179,5933 "/>
  <polygon class="fil3" points="3179,6202 3280,6202 3280,6101 3179,6101 "/>
  <polygon class="fil3" points="3179,6370 3280,6370 3280,6270 3179,6270 "/>
  <polygon class="fil3" points="3179,6539 3280,6539 3280,6438 3179,6438 "/>
  <polygon class="fil3" points="3179,6707 3280,6707 3280,6607 3179,6607 "/>
  <polygon class="fil3" points="3179,6875 3280,6875 3280,6775 3179,6775 "/>
  <polygon class="fil3" points="3179,7044 3280,7044 3280,6943 3179,6943 "/>
  <polygon class="fil3" points="3179,7212 3280,7212 3280,7112 3179,7112 "/>
  <polygon class="fil3" points="3179,7381 3280,7381 3280,7280 3179,7280 "/>
  <polygon class="fil3" points="3179,7549 3280,7549 3280,7449 3179,7449 "/>
  <polygon class="fil3" points="3179,7718 3280,7718 3280,7617 3179,7617 "/>
  <polygon class="fil3" points="3179,7886 3280,7886 3280,7786 3179,7786 "/>
  <polygon class="fil3" points="3179,8054 3280,8054 3280,7954 3179,7954 "/>
  <polygon class="fil3" points="3179,8223 3280,8223 3280,8122 3179,8122 "/>
  <polygon class="fil3" points="3179,8391 3280,8391 3280,8291 3179,8291 "/>
  <polygon class="fil3" points="3179,8560 3280,8560 3280,8459 3179,8459 "/>
  <polygon class="fil3" points="3179,8728 3280,8728 3280,8628 3179,8628 "/>
  <polygon class="fil3" points="3179,8897 3280,8897 3280,8796 3179,8796 "/>
  <polygon class="fil3" points="3179,9065 3280,9065 3280,8965 3179,8965 "/>
  <polygon class="fil3" points="3020,6033 3120,6033 3120,5933 3020,5933 "/>
  <polygon class="fil3" points="3020,6202 3120,6202 3120,6101 3020,6101 "/>
  <polygon class="fil3" points="3020,6370 3120,6370 3120,6270 3020,6270 "/>
  <polygon class="fil3" points="3020,6539 3120,6539 3120,6438 3020,6438 "/>
  <polygon class="fil3" points="3020,6707 3120,6707 3120,6607 3020,6607 "/>
  <polygon class="fil3" points="3020,6875 3120,6875 3120,6775 3020,6775 "/>
  <polygon class="fil3" points="3020,7044 3120,7044 3120,6943 3020,6943 "/>
  <polygon class="fil3" points="3020,7212 3120,7212 3120,7112 3020,7112 "/>
  <polygon class="fil3" points="3020,7381 3120,7381 3120,7280 3020,7280 "/>
  <polygon class="fil3" points="3020,7549 3120,7549 3120,7449 3020,7449 "/>
  <polygon class="fil3" points="3020,7718 3120,7718 3120,7617 3020,7617 "/>
  <polygon class="fil3" points="3020,7886 3120,7886 3120,7786 3020,7786 "/>
  <polygon class="fil3" points="3020,8054 3120,8054 3120,7954 3020,7954 "/>
  <polygon class="fil3" points="3020,8223 3120,8223 3120,8122 3020,8122 "/>
  <polygon class="fil3" points="3020,8391 3120,8391 3120,8291 3020,8291 "/>
  <polygon class="fil3" points="3020,8560 3120,8560 3120,8459 3020,8459 "/>
  <polygon class="fil3" points="3020,8728 3120,8728 3120,8628 3020,8628 "/>
  <polygon class="fil3" points="3020,8897 3120,8897 3120,8796 3020,8796 "/>
  <polygon class="fil3" points="3020,9065 3120,9065 3120,8965 3020,8965 "/>
  <polygon class="fil3" points="2860,6033 2961,6033 2961,5933 2860,5933 "/>
  <polygon class="fil3" points="2860,6202 2961,6202 2961,6101 2860,6101 "/>
  <polygon class="fil3" points="2860,6370 2961,6370 2961,6270 2860,6270 "/>
  <polygon class="fil3" points="2860,6539 2961,6539 2961,6438 2860,6438 "/>
  <polygon class="fil3" points="2860,6707 2961,6707 2961,6607 2860,6607 "/>
  <polygon class="fil3" points="2860,6875 2961,6875 2961,6775 2860,6775 "/>
  <polygon class="fil3" points="2860,7044 2961,7044 2961,6943 2860,6943 "/>
  <polygon class="fil3" points="2860,7212 2961,7212 2961,7112 2860,7112 "/>
  <polygon class="fil3" points="2860,7381 2961,7381 2961,7280 2860,7280 "/>
  <polygon class="fil3" points="2860,7549 2961,7549 2961,7449 2860,7449 "/>
  <polygon class="fil3" points="2860,7718 2961,7718 2961,7617 2860,7617 "/>
  <polygon class="fil3" points="2860,7886 2961,7886 2961,7786 2860,7786 "/>
  <polygon class="fil3" points="2860,8054 2961,8054 2961,7954 2860,7954 "/>
  <polygon class="fil3" points="2860,8223 2961,8223 2961,8122 2860,8122 "/>
  <polygon class="fil3" points="2860,8391 2961,8391 2961,8291 2860,8291 "/>
  <polygon class="fil3" points="2701,6033 2801,6033 2801,5933 2701,5933 "/>
  <polygon class="fil3" points="2701,6202 2801,6202 2801,6101 2701,6101 "/>
  <polygon class="fil3" points="2701,6370 2801,6370 2801,6270 2701,6270 "/>
  <polygon class="fil3" points="2701,6539 2801,6539 2801,6438 2701,6438 "/>
  <polygon class="fil3" points="2701,6707 2801,6707 2801,6607 2701,6607 "/>
  <polygon class="fil3" points="2701,6875 2801,6875 2801,6775 2701,6775 "/>
  <polygon class="fil3" points="2701,7044 2801,7044 2801,6943 2701,6943 "/>
  <polygon class="fil3" points="2701,7212 2801,7212 2801,7112 2701,7112 "/>
  <polygon class="fil3" points="2701,7381 2801,7381 2801,7280 2701,7280 "/>
  <polygon class="fil3" points="2701,7549 2801,7549 2801,7449 2701,7449 "/>
  <polygon class="fil3" points="2701,7718 2801,7718 2801,7617 2701,7617 "/>
  <polygon class="fil3" points="2701,7886 2801,7886 2801,7786 2701,7786 "/>
  <polygon class="fil3" points="2701,8054 2801,8054 2801,7954 2701,7954 "/>
  <polygon class="fil3" points="2541,6033 2641,6033 2641,5933 2541,5933 "/>
  <polygon class="fil3" points="2541,6202 2641,6202 2641,6101 2541,6101 "/>
  <polygon class="fil3" points="2541,6370 2641,6370 2641,6270 2541,6270 "/>
  <polygon class="fil3" points="2541,6539 2641,6539 2641,6438 2541,6438 "/>
  <polygon class="fil3" points="2541,6707 2641,6707 2641,6607 2541,6607 "/>
  <polygon class="fil3" points="2541,6875 2641,6875 2641,6775 2541,6775 "/>
  <polygon class="fil3" points="2541,7044 2641,7044 2641,6943 2541,6943 "/>
  <polygon class="fil3" points="2541,7212 2641,7212 2641,7112 2541,7112 "/>
  <polygon class="fil3" points="2541,7381 2641,7381 2641,7280 2541,7280 "/>
  <polygon class="fil3" points="2541,7549 2641,7549 2641,7449 2541,7449 "/>
  <polygon class="fil3" points="2541,7718 2641,7718 2641,7617 2541,7617 "/>
  <polygon class="fil3" points="2541,7886 2641,7886 2641,7786 2541,7786 "/>
  <polygon class="fil3" points="14266,7263 14366,7263 14366,7162 14266,7162 "/>
  <polygon class="fil3" points="14266,7431 14366,7431 14366,7331 14266,7331 "/>
  <polygon class="fil3" points="14266,7599 14366,7599 14366,7499 14266,7499 "/>
  <polygon class="fil3" points="14266,7768 14366,7768 14366,7667 14266,7667 "/>
  <polygon class="fil3" points="14266,7936 14366,7936 14366,7836 14266,7836 "/>
  <polygon class="fil3" points="14266,8105 14366,8105 14366,8004 14266,8004 "/>
  <polygon class="fil3" points="14266,8273 14366,8273 14366,8173 14266,8173 "/>
  <polygon class="fil3" points="14266,8442 14366,8442 14366,8341 14266,8341 "/>
  <polygon class="fil3" points="14266,8610 14366,8610 14366,8509 14266,8509 "/>
  <polygon class="fil3" points="14266,8778 14366,8778 14366,8678 14266,8678 "/>
  <polygon class="fil3" points="14266,8947 14366,8947 14366,8846 14266,8846 "/>
  <polygon class="fil3" points="14266,9115 14366,9115 14366,9015 14266,9015 "/>
  <polygon class="fil3" points="14266,9284 14366,9284 14366,9183 14266,9183 "/>
  <polygon class="fil3" points="14266,9452 14366,9452 14366,9352 14266,9352 "/>
  <polygon class="fil3" points="14266,9620 14366,9620 14366,9520 14266,9520 "/>
  <polygon class="fil3" points="14266,9789 14366,9789 14366,9688 14266,9688 "/>
  <polygon class="fil3" points="14266,9957 14366,9957 14366,9857 14266,9857 "/>
  <polygon class="fil3" points="14266,10126 14366,10126 14366,10025 14266,10025 "/>
  <polygon class="fil3" points="14266,10294 14366,10294 14366,10194 14266,10194 "/>
  <polygon class="fil3" points="14266,10463 14366,10463 14366,10362 14266,10362 "/>
  <polygon class="fil3" points="14106,7263 14206,7263 14206,7162 14106,7162 "/>
  <polygon class="fil3" points="14106,7431 14206,7431 14206,7331 14106,7331 "/>
  <polygon class="fil3" points="14106,7599 14206,7599 14206,7499 14106,7499 "/>
  <polygon class="fil3" points="14106,7768 14206,7768 14206,7667 14106,7667 "/>
  <polygon class="fil3" points="14106,7936 14206,7936 14206,7836 14106,7836 "/>
  <polygon class="fil3" points="14106,8105 14206,8105 14206,8004 14106,8004 "/>
  <polygon class="fil3" points="14106,8273 14206,8273 14206,8173 14106,8173 "/>
  <polygon class="fil3" points="14106,8442 14206,8442 14206,8341 14106,8341 "/>
  <polygon class="fil3" points="14106,8610 14206,8610 14206,8509 14106,8509 "/>
  <polygon class="fil3" points="14106,8778 14206,8778 14206,8678 14106,8678 "/>
  <polygon class="fil3" points="14106,8947 14206,8947 14206,8846 14106,8846 "/>
  <polygon class="fil3" points="14106,9115 14206,9115 14206,9015 14106,9015 "/>
  <polygon class="fil3" points="14106,9284 14206,9284 14206,9183 14106,9183 "/>
  <polygon class="fil3" points="14106,9452 14206,9452 14206,9352 14106,9352 "/>
  <polygon class="fil3" points="14106,9620 14206,9620 14206,9520 14106,9520 "/>
  <polygon class="fil3" points="14106,9789 14206,9789 14206,9688 14106,9688 "/>
  <polygon class="fil3" points="14106,9957 14206,9957 14206,9857 14106,9857 "/>
  <polygon class="fil3" points="14106,10126 14206,10126 14206,10025 14106,10025 "/>
  <polygon class="fil3" points="13946,7263 14047,7263 14047,7162 13946,7162 "/>
  <polygon class="fil3" points="13946,7431 14047,7431 14047,7331 13946,7331 "/>
  <polygon class="fil3" points="13946,7599 14047,7599 14047,7499 13946,7499 "/>
  <polygon class="fil3" points="13946,7768 14047,7768 14047,7667 13946,7667 "/>
  <polygon class="fil3" points="13946,7936 14047,7936 14047,7836 13946,7836 "/>
  <polygon class="fil3" points="13946,8105 14047,8105 14047,8004 13946,8004 "/>
  <polygon class="fil3" points="13946,8273 14047,8273 14047,8173 13946,8173 "/>
  <polygon class="fil3" points="13946,8442 14047,8442 14047,8341 13946,8341 "/>
  <polygon class="fil3" points="13946,8610 14047,8610 14047,8509 13946,8509 "/>
  <polygon class="fil3" points="13946,8778 14047,8778 14047,8678 13946,8678 "/>
  <polygon class="fil3" points="13946,8947 14047,8947 14047,8846 13946,8846 "/>
  <polygon class="fil3" points="13946,9115 14047,9115 14047,9015 13946,9015 "/>
  <polygon class="fil3" points="13946,9284 14047,9284 14047,9183 13946,9183 "/>
  <polygon class="fil3" points="13946,9452 14047,9452 14047,9352 13946,9352 "/>
  <polygon class="fil3" points="13946,9620 14047,9620 14047,9520 13946,9520 "/>
  <polygon class="fil3" points="13946,9789 14047,9789 14047,9688 13946,9688 "/>
  <polygon class="fil3" points="13946,9957 14047,9957 14047,9857 13946,9857 "/>
  <polygon class="fil3" points="13946,10126 14047,10126 14047,10025 13946,10025 "/>
  <polygon class="fil3" points="14862,8492 14963,8492 14963,8391 14862,8391 "/>
  <polygon class="fil3" points="14862,8660 14963,8660 14963,8560 14862,8560 "/>
  <polygon class="fil3" points="14862,8829 14963,8829 14963,8728 14862,8728 "/>
  <polygon class="fil3" points="14862,8997 14963,8997 14963,8897 14862,8897 "/>
  <polygon class="fil3" points="14862,9165 14963,9165 14963,9065 14862,9065 "/>
  <polygon class="fil3" points="14862,9334 14963,9334 14963,9233 14862,9233 "/>
  <polygon class="fil3" points="14862,9502 14963,9502 14963,9402 14862,9402 "/>
  <polygon class="fil3" points="14862,9671 14963,9671 14963,9570 14862,9570 "/>
  <polygon class="fil3" points="14862,9839 14963,9839 14963,9739 14862,9739 "/>
  <polygon class="fil3" points="14862,10008 14963,10008 14963,9907 14862,9907 "/>
  <polygon class="fil3" points="14862,10176 14963,10176 14963,10075 14862,10075 "/>
  <polygon class="fil3" points="14862,10344 14963,10344 14963,10244 14862,10244 "/>
  <polygon class="fil3" points="14862,10513 14963,10513 14963,10412 14862,10412 "/>
  <polygon class="fil3" points="14703,8492 14803,8492 14803,8391 14703,8391 "/>
  <polygon class="fil3" points="14703,8660 14803,8660 14803,8560 14703,8560 "/>
  <polygon class="fil3" points="14703,8829 14803,8829 14803,8728 14703,8728 "/>
  <polygon class="fil3" points="14703,8997 14803,8997 14803,8897 14703,8897 "/>
  <polygon class="fil3" points="14703,9165 14803,9165 14803,9065 14703,9065 "/>
  <polygon class="fil3" points="14703,9334 14803,9334 14803,9233 14703,9233 "/>
  <polygon class="fil3" points="14703,9502 14803,9502 14803,9402 14703,9402 "/>
  <polygon class="fil3" points="14703,9671 14803,9671 14803,9570 14703,9570 "/>
  <polygon class="fil3" points="14703,9839 14803,9839 14803,9739 14703,9739 "/>
  <polygon class="fil3" points="14703,10008 14803,10008 14803,9907 14703,9907 "/>
  <polygon class="fil3" points="14703,10176 14803,10176 14803,10075 14703,10075 "/>
  <polygon class="fil3" points="14703,10344 14803,10344 14803,10244 14703,10244 "/>
  <polygon class="fil3" points="14703,10513 14803,10513 14803,10412 14703,10412 "/>
  <polygon class="fil3" points="14543,8492 14644,8492 14644,8391 14543,8391 "/>
  <polygon class="fil3" points="14543,8660 14644,8660 14644,8560 14543,8560 "/>
  <polygon class="fil3" points="14543,8829 14644,8829 14644,8728 14543,8728 "/>
  <polygon class="fil3" points="14543,8997 14644,8997 14644,8897 14543,8897 "/>
  <polygon class="fil3" points="14543,9165 14644,9165 14644,9065 14543,9065 "/>
  <polygon class="fil3" points="14543,9334 14644,9334 14644,9233 14543,9233 "/>
  <polygon class="fil3" points="14543,9502 14644,9502 14644,9402 14543,9402 "/>
  <polygon class="fil3" points="14543,9671 14644,9671 14644,9570 14543,9570 "/>
  <polygon class="fil3" points="14543,9839 14644,9839 14644,9739 14543,9739 "/>
  <polygon class="fil3" points="14543,10008 14644,10008 14644,9907 14543,9907 "/>
  <polygon class="fil3" points="14543,10176 14644,10176 14644,10075 14543,10075 "/>
  <polygon class="fil3" points="14543,10344 14644,10344 14644,10244 14543,10244 "/>
  <polygon class="fil3" points="14543,10513 14644,10513 14644,10412 14543,10412 "/>
  <polygon class="fil3" points="14543,10681 14644,10681 14644,10581 14543,10581 "/>
  <polygon class="fil3" points="13657,8542 13757,8542 13757,8442 13657,8442 "/>
  <polygon class="fil3" points="13657,8710 13757,8710 13757,8610 13657,8610 "/>
  <polygon class="fil3" points="13657,8879 13757,8879 13757,8778 13657,8778 "/>
  <polygon class="fil3" points="13657,9047 13757,9047 13757,8947 13657,8947 "/>
  <polygon class="fil3" points="13657,9216 13757,9216 13757,9115 13657,9115 "/>
  <polygon class="fil3" points="13657,9384 13757,9384 13757,9284 13657,9284 "/>
  <polygon class="fil3" points="13657,9553 13757,9553 13757,9452 13657,9452 "/>
  <polygon class="fil3" points="13657,9721 13757,9721 13757,9620 13657,9620 "/>
  <polygon class="fil3" points="13657,9889 13757,9889 13757,9789 13657,9789 "/>
  <polygon class="fil3" points="13657,10058 13757,10058 13757,9957 13657,9957 "/>
  <polygon class="fil3" points="13657,10563 13757,10563 13757,10463 13657,10463 "/>
  <polygon class="fil3" points="13497,8542 13598,8542 13598,8442 13497,8442 "/>
  <polygon class="fil3" points="13497,8710 13598,8710 13598,8610 13497,8610 "/>
  <polygon class="fil3" points="13497,8879 13598,8879 13598,8778 13497,8778 "/>
  <polygon class="fil3" points="13497,9047 13598,9047 13598,8947 13497,8947 "/>
  <polygon class="fil3" points="13497,9216 13598,9216 13598,9115 13497,9115 "/>
  <polygon class="fil3" points="13497,9384 13598,9384 13598,9284 13497,9284 "/>
  <polygon class="fil3" points="13497,9553 13598,9553 13598,9452 13497,9452 "/>
  <polygon class="fil3" points="13497,9721 13598,9721 13598,9620 13497,9620 "/>
  <polygon class="fil3" points="13497,9889 13598,9889 13598,9789 13497,9789 "/>
  <polygon class="fil3" points="13497,10395 13598,10395 13598,10294 13497,10294 "/>
  <polygon class="fil3" points="13497,10563 13598,10563 13598,10463 13497,10463 "/>
  <polygon class="fil3" points="13338,8542 13438,8542 13438,8442 13338,8442 "/>
  <polygon class="fil3" points="13338,8710 13438,8710 13438,8610 13338,8610 "/>
  <polygon class="fil3" points="13338,8879 13438,8879 13438,8778 13338,8778 "/>
  <polygon class="fil3" points="13338,9047 13438,9047 13438,8947 13338,8947 "/>
  <polygon class="fil3" points="13338,9216 13438,9216 13438,9115 13338,9115 "/>
  <polygon class="fil3" points="13338,9384 13438,9384 13438,9284 13338,9284 "/>
  <polygon class="fil3" points="13338,9553 13438,9553 13438,9452 13338,9452 "/>
  <polygon class="fil3" points="13338,9721 13438,9721 13438,9620 13338,9620 "/>
  <polygon class="fil3" points="13338,10226 13438,10226 13438,10126 13338,10126 "/>
  <polygon class="fil3" points="13338,10395 13438,10395 13438,10294 13338,10294 "/>
  <polygon class="fil3" points="13338,10563 13438,10563 13438,10463 13338,10463 "/>
  <polygon class="fil3" points="11854,5983 11955,5983 11955,5883 11854,5883 "/>
  <polygon class="fil3" points="11854,6152 11955,6152 11955,6051 11854,6051 "/>
  <polygon class="fil3" points="11854,6320 11955,6320 11955,6220 11854,6220 "/>
  <polygon class="fil3" points="11854,6488 11955,6488 11955,6388 11854,6388 "/>
  <polygon class="fil3" points="11854,6657 11955,6657 11955,6556 11854,6556 "/>
  <polygon class="fil3" points="11854,6825 11955,6825 11955,6725 11854,6725 "/>
  <polygon class="fil3" points="11854,6994 11955,6994 11955,6893 11854,6893 "/>
  <polygon class="fil3" points="11854,7162 11955,7162 11955,7062 11854,7062 "/>
  <polygon class="fil3" points="11854,7331 11955,7331 11955,7230 11854,7230 "/>
  <polygon class="fil3" points="11854,7499 11955,7499 11955,7398 11854,7398 "/>
  <polygon class="fil3" points="11854,7667 11955,7667 11955,7567 11854,7567 "/>
  <polygon class="fil3" points="11854,7836 11955,7836 11955,7735 11854,7735 "/>
  <polygon class="fil3" points="11854,8004 11955,8004 11955,7904 11854,7904 "/>
  <polygon class="fil3" points="11854,8173 11955,8173 11955,8072 11854,8072 "/>
  <polygon class="fil3" points="11854,8341 11955,8341 11955,8241 11854,8241 "/>
  <polygon class="fil3" points="11854,8509 11955,8509 11955,8409 11854,8409 "/>
  <polygon class="fil3" points="11854,8678 11955,8678 11955,8577 11854,8577 "/>
  <polygon class="fil3" points="11854,9015 11955,9015 11955,8914 11854,8914 "/>
  <polygon class="fil3" points="11854,9183 11955,9183 11955,9083 11854,9083 "/>
  <polygon class="fil3" points="11854,9352 11955,9352 11955,9251 11854,9251 "/>
  <polygon class="fil3" points="11854,9520 11955,9520 11955,9420 11854,9420 "/>
  <polygon class="fil3" points="11854,9688 11955,9688 11955,9588 11854,9588 "/>
  <polygon class="fil3" points="11695,5983 11795,5983 11795,5883 11695,5883 "/>
  <polygon class="fil3" points="11695,6152 11795,6152 11795,6051 11695,6051 "/>
  <polygon class="fil3" points="11695,6320 11795,6320 11795,6220 11695,6220 "/>
  <polygon class="fil3" points="11695,6488 11795,6488 11795,6388 11695,6388 "/>
  <polygon class="fil3" points="11695,6657 11795,6657 11795,6556 11695,6556 "/>
  <polygon class="fil3" points="11695,6825 11795,6825 11795,6725 11695,6725 "/>
  <polygon class="fil3" points="11695,6994 11795,6994 11795,6893 11695,6893 "/>
  <polygon class="fil3" points="11695,7162 11795,7162 11795,7062 11695,7062 "/>
  <polygon class="fil3" points="11695,7331 11795,7331 11795,7230 11695,7230 "/>
  <polygon class="fil3" points="11695,7499 11795,7499 11795,7398 11695,7398 "/>
  <polygon class="fil3" points="11695,7667 11795,7667 11795,7567 11695,7567 "/>
  <polygon class="fil3" points="11695,7836 11795,7836 11795,7735 11695,7735 "/>
  <polygon class="fil3" points="11695,8004 11795,8004 11795,7904 11695,7904 "/>
  <polygon class="fil3" points="11695,8173 11795,8173 11795,8072 11695,8072 "/>
  <polygon class="fil3" points="11695,8341 11795,8341 11795,8241 11695,8241 "/>
  <polygon class="fil3" points="11695,8509 11795,8509 11795,8409 11695,8409 "/>
  <polygon class="fil3" points="11695,9520 11795,9520 11795,9420 11695,9420 "/>
  <polygon class="fil3" points="11695,9688 11795,9688 11795,9588 11695,9588 "/>
  <polygon class="fil3" points="11535,5983 11636,5983 11636,5883 11535,5883 "/>
  <polygon class="fil3" points="11535,6152 11636,6152 11636,6051 11535,6051 "/>
  <polygon class="fil3" points="11535,6320 11636,6320 11636,6220 11535,6220 "/>
  <polygon class="fil3" points="11535,6488 11636,6488 11636,6388 11535,6388 "/>
  <polygon class="fil3" points="11535,6657 11636,6657 11636,6556 11535,6556 "/>
  <polygon class="fil3" points="11535,6825 11636,6825 11636,6725 11535,6725 "/>
  <polygon class="fil3" points="11535,6994 11636,6994 11636,6893 11535,6893 "/>
  <polygon class="fil3" points="11535,7162 11636,7162 11636,7062 11535,7062 "/>
  <polygon class="fil3" points="11535,7331 11636,7331 11636,7230 11535,7230 "/>
  <polygon class="fil3" points="11535,7499 11636,7499 11636,7398 11535,7398 "/>
  <polygon class="fil3" points="11535,7667 11636,7667 11636,7567 11535,7567 "/>
  <polygon class="fil3" points="11535,7836 11636,7836 11636,7735 11535,7735 "/>
  <polygon class="fil3" points="11535,8004 11636,8004 11636,7904 11535,7904 "/>
  <polygon class="fil3" points="11535,8173 11636,8173 11636,8072 11535,8072 "/>
  <polygon class="fil3" points="11535,8341 11636,8341 11636,8241 11535,8241 "/>
  <polygon class="fil3" points="11535,8509 11636,8509 11636,8409 11535,8409 "/>
  <polygon class="fil3" points="11535,8846 11636,8846 11636,8746 11535,8746 "/>
  <polygon class="fil3" points="11535,9015 11636,9015 11636,8914 11535,8914 "/>
  <polygon class="fil3" points="11535,9183 11636,9183 11636,9083 11535,9083 "/>
  <polygon class="fil3" points="11535,9352 11636,9352 11636,9251 11535,9251 "/>
  <polygon class="fil3" points="11535,9688 11636,9688 11636,9588 11535,9588 "/>
  <polygon class="fil3" points="12434,8105 12534,8105 12534,8004 12434,8004 "/>
  <polygon class="fil3" points="12434,8273 12534,8273 12534,8173 12434,8173 "/>
  <polygon class="fil3" points="12434,8442 12534,8442 12534,8341 12434,8341 "/>
  <polygon class="fil3" points="12434,8610 12534,8610 12534,8509 12434,8509 "/>
  <polygon class="fil3" points="12434,8778 12534,8778 12534,8678 12434,8678 "/>
  <polygon class="fil3" points="12434,8947 12534,8947 12534,8846 12434,8846 "/>
  <polygon class="fil3" points="12434,9115 12534,9115 12534,9015 12434,9015 "/>
  <polygon class="fil3" points="12434,9452 12534,9452 12534,9352 12434,9352 "/>
  <polygon class="fil3" points="12434,9620 12534,9620 12534,9520 12434,9520 "/>
  <polygon class="fil3" points="12434,9789 12534,9789 12534,9688 12434,9688 "/>
  <polygon class="fil3" points="12434,9957 12534,9957 12534,9857 12434,9857 "/>
  <polygon class="fil3" points="12434,10126 12534,10126 12534,10025 12434,10025 "/>
  <polygon class="fil3" points="12434,10294 12534,10294 12534,10194 12434,10194 "/>
  <polygon class="fil3" points="12434,10463 12534,10463 12534,10362 12434,10362 "/>
  <polygon class="fil3" points="12434,10631 12534,10631 12534,10531 12434,10531 "/>
  <polygon class="fil3" points="12274,8105 12374,8105 12374,8004 12274,8004 "/>
  <polygon class="fil3" points="12274,8273 12374,8273 12374,8173 12274,8173 "/>
  <polygon class="fil3" points="12274,8442 12374,8442 12374,8341 12274,8341 "/>
  <polygon class="fil3" points="12274,8610 12374,8610 12374,8509 12274,8509 "/>
  <polygon class="fil3" points="12274,8778 12374,8778 12374,8678 12274,8678 "/>
  <polygon class="fil3" points="12274,8947 12374,8947 12374,8846 12274,8846 "/>
  <polygon class="fil3" points="12274,9452 12374,9452 12374,9352 12274,9352 "/>
  <polygon class="fil3" points="12274,9620 12374,9620 12374,9520 12274,9520 "/>
  <polygon class="fil3" points="12274,9789 12374,9789 12374,9688 12274,9688 "/>
  <polygon class="fil3" points="12274,9957 12374,9957 12374,9857 12274,9857 "/>
  <polygon class="fil3" points="12274,10126 12374,10126 12374,10025 12274,10025 "/>
  <polygon class="fil3" points="12274,10294 12374,10294 12374,10194 12274,10194 "/>
  <polygon class="fil3" points="12274,10463 12374,10463 12374,10362 12274,10362 "/>
  <polygon class="fil3" points="12274,10631 12374,10631 12374,10531 12274,10531 "/>
  <polygon class="fil3" points="12114,8105 12215,8105 12215,8004 12114,8004 "/>
  <polygon class="fil3" points="12114,8273 12215,8273 12215,8173 12114,8173 "/>
  <polygon class="fil3" points="12114,8442 12215,8442 12215,8341 12114,8341 "/>
  <polygon class="fil3" points="12114,8610 12215,8610 12215,8509 12114,8509 "/>
  <polygon class="fil3" points="12114,8778 12215,8778 12215,8678 12114,8678 "/>
  <polygon class="fil3" points="12114,8947 12215,8947 12215,8846 12114,8846 "/>
  <polygon class="fil3" points="12114,9284 12215,9284 12215,9183 12114,9183 "/>
  <polygon class="fil3" points="12114,9452 12215,9452 12215,9352 12114,9352 "/>
  <polygon class="fil3" points="12114,9620 12215,9620 12215,9520 12114,9520 "/>
  <polygon class="fil3" points="12114,9789 12215,9789 12215,9688 12114,9688 "/>
  <polygon class="fil3" points="12114,9957 12215,9957 12215,9857 12114,9857 "/>
  <polygon class="fil3" points="12114,10126 12215,10126 12215,10025 12114,10025 "/>
  <polygon class="fil3" points="12114,10294 12215,10294 12215,10194 12114,10194 "/>
  <polygon class="fil3" points="12114,10463 12215,10463 12215,10362 12114,10362 "/>
  <polygon class="fil3" points="12114,10631 12215,10631 12215,10531 12114,10531 "/>
  <polygon class="fil3" points="8752,7162 8852,7162 8852,7062 8752,7062 "/>
  <polygon class="fil3" points="8752,7331 8852,7331 8852,7230 8752,7230 "/>
  <polygon class="fil3" points="8752,7499 8852,7499 8852,7398 8752,7398 "/>
  <polygon class="fil3" points="8752,7667 8852,7667 8852,7567 8752,7567 "/>
  <polygon class="fil3" points="8752,7836 8852,7836 8852,7735 8752,7735 "/>
  <polygon class="fil3" points="8752,8004 8852,8004 8852,7904 8752,7904 "/>
  <polygon class="fil3" points="8752,8173 8852,8173 8852,8072 8752,8072 "/>
  <polygon class="fil3" points="8752,8341 8852,8341 8852,8241 8752,8241 "/>
  <polygon class="fil3" points="8752,8509 8852,8509 8852,8409 8752,8409 "/>
  <polygon class="fil3" points="8752,8678 8852,8678 8852,8577 8752,8577 "/>
  <polygon class="fil3" points="8752,8846 8852,8846 8852,8746 8752,8746 "/>
  <polygon class="fil3" points="8752,9015 8852,9015 8852,8914 8752,8914 "/>
  <polygon class="fil3" points="8752,9183 8852,9183 8852,9083 8752,9083 "/>
  <polygon class="fil3" points="8752,9520 8852,9520 8852,9420 8752,9420 "/>
  <polygon class="fil3" points="8752,9688 8852,9688 8852,9588 8752,9588 "/>
  <polygon class="fil3" points="8752,9857 8852,9857 8852,9756 8752,9756 "/>
  <polygon class="fil3" points="8752,10025 8852,10025 8852,9925 8752,9925 "/>
  <polygon class="fil3" points="8752,10362 8852,10362 8852,10262 8752,10262 "/>
  <polygon class="fil3" points="8752,10531 8852,10531 8852,10430 8752,10430 "/>
  <polygon class="fil3" points="8752,10699 8852,10699 8852,10599 8752,10599 "/>
  <polygon class="fil3" points="8592,7162 8693,7162 8693,7062 8592,7062 "/>
  <polygon class="fil3" points="8592,7331 8693,7331 8693,7230 8592,7230 "/>
  <polygon class="fil3" points="8592,7499 8693,7499 8693,7398 8592,7398 "/>
  <polygon class="fil3" points="8592,7667 8693,7667 8693,7567 8592,7567 "/>
  <polygon class="fil3" points="8592,7836 8693,7836 8693,7735 8592,7735 "/>
  <polygon class="fil3" points="8592,8004 8693,8004 8693,7904 8592,7904 "/>
  <polygon class="fil3" points="8592,8173 8693,8173 8693,8072 8592,8072 "/>
  <polygon class="fil3" points="8592,8341 8693,8341 8693,8241 8592,8241 "/>
  <polygon class="fil3" points="8592,8509 8693,8509 8693,8409 8592,8409 "/>
  <polygon class="fil3" points="8592,8678 8693,8678 8693,8577 8592,8577 "/>
  <polygon class="fil3" points="8592,8846 8693,8846 8693,8746 8592,8746 "/>
  <polygon class="fil3" points="8592,9015 8693,9015 8693,8914 8592,8914 "/>
  <polygon class="fil3" points="8592,9183 8693,9183 8693,9083 8592,9083 "/>
  <polygon class="fil3" points="8592,9688 8693,9688 8693,9588 8592,9588 "/>
  <polygon class="fil3" points="8592,9857 8693,9857 8693,9756 8592,9756 "/>
  <polygon class="fil3" points="8592,10194 8693,10194 8693,10093 8592,10093 "/>
  <polygon class="fil3" points="8592,10362 8693,10362 8693,10262 8592,10262 "/>
  <polygon class="fil3" points="8592,10531 8693,10531 8693,10430 8592,10430 "/>
  <polygon class="fil3" points="8592,10699 8693,10699 8693,10599 8592,10599 "/>
  <polygon class="fil3" points="8433,7162 8533,7162 8533,7062 8433,7062 "/>
  <polygon class="fil3" points="8433,7331 8533,7331 8533,7230 8433,7230 "/>
  <polygon class="fil3" points="8433,7499 8533,7499 8533,7398 8433,7398 "/>
  <polygon class="fil3" points="8433,7667 8533,7667 8533,7567 8433,7567 "/>
  <polygon class="fil3" points="8433,7836 8533,7836 8533,7735 8433,7735 "/>
  <polygon class="fil3" points="8433,8004 8533,8004 8533,7904 8433,7904 "/>
  <polygon class="fil3" points="8433,8173 8533,8173 8533,8072 8433,8072 "/>
  <polygon class="fil3" points="8433,8341 8533,8341 8533,8241 8433,8241 "/>
  <polygon class="fil3" points="8433,8509 8533,8509 8533,8409 8433,8409 "/>
  <polygon class="fil3" points="8433,8678 8533,8678 8533,8577 8433,8577 "/>
  <polygon class="fil3" points="8433,8846 8533,8846 8533,8746 8433,8746 "/>
  <polygon class="fil3" points="8433,9015 8533,9015 8533,8914 8433,8914 "/>
  <polygon class="fil3" points="8433,9183 8533,9183 8533,9083 8433,9083 "/>
  <polygon class="fil3" points="8433,9352 8533,9352 8533,9251 8433,9251 "/>
  <polygon class="fil3" points="8433,9688 8533,9688 8533,9588 8433,9588 "/>
  <polygon class="fil3" points="8433,10025 8533,10025 8533,9925 8433,9925 "/>
  <polygon class="fil3" points="8433,10194 8533,10194 8533,10093 8433,10093 "/>
  <polygon class="fil3" points="8433,10362 8533,10362 8533,10262 8433,10262 "/>
  <polygon class="fil3" points="8433,10531 8533,10531 8533,10430 8433,10430 "/>
  <polygon class="fil3" points="8433,10699 8533,10699 8533,10599 8433,10599 "/>
  <polygon class="fil3" points="9402,8122 9502,8122 9502,8022 9402,8022 "/>
  <polygon class="fil3" points="9402,8291 9502,8291 9502,8190 9402,8190 "/>
  <polygon class="fil3" points="9402,8459 9502,8459 9502,8359 9402,8359 "/>
  <polygon class="fil3" points="9402,8628 9502,8628 9502,8527 9402,8527 "/>
  <polygon class="fil3" points="9402,8796 9502,8796 9502,8696 9402,8696 "/>
  <polygon class="fil3" points="9402,8965 9502,8965 9502,8864 9402,8864 "/>
  <polygon class="fil3" points="9402,9470 9502,9470 9502,9369 9402,9369 "/>
  <polygon class="fil3" points="9402,9638 9502,9638 9502,9538 9402,9538 "/>
  <polygon class="fil3" points="9402,9807 9502,9807 9502,9706 9402,9706 "/>
  <polygon class="fil3" points="9402,9975 9502,9975 9502,9875 9402,9875 "/>
  <polygon class="fil3" points="9402,10143 9502,10143 9502,10043 9402,10043 "/>
  <polygon class="fil3" points="9402,10312 9502,10312 9502,10211 9402,10211 "/>
  <polygon class="fil3" points="9402,10480 9502,10480 9502,10380 9402,10380 "/>
  <polygon class="fil3" points="9242,8122 9343,8122 9343,8022 9242,8022 "/>
  <polygon class="fil3" points="9242,8291 9343,8291 9343,8190 9242,8190 "/>
  <polygon class="fil3" points="9242,8459 9343,8459 9343,8359 9242,8359 "/>
  <polygon class="fil3" points="9242,8628 9343,8628 9343,8527 9242,8527 "/>
  <polygon class="fil3" points="9242,8796 9343,8796 9343,8696 9242,8696 "/>
  <polygon class="fil3" points="9242,8965 9343,8965 9343,8864 9242,8864 "/>
  <polygon class="fil3" points="9242,9470 9343,9470 9343,9369 9242,9369 "/>
  <polygon class="fil3" points="9242,9638 9343,9638 9343,9538 9242,9538 "/>
  <polygon class="fil3" points="9242,9807 9343,9807 9343,9706 9242,9706 "/>
  <polygon class="fil3" points="9242,9975 9343,9975 9343,9875 9242,9875 "/>
  <polygon class="fil3" points="9242,10143 9343,10143 9343,10043 9242,10043 "/>
  <polygon class="fil3" points="9242,10312 9343,10312 9343,10211 9242,10211 "/>
  <polygon class="fil3" points="9242,10649 9343,10649 9343,10548 9242,10548 "/>
  <polygon class="fil3" points="3942,7381 4042,7381 4042,7280 3942,7280 "/>
  <polygon class="fil3" points="3942,7549 4042,7549 4042,7449 3942,7449 "/>
  <polygon class="fil3" points="3942,7718 4042,7718 4042,7617 3942,7617 "/>
  <polygon class="fil3" points="3942,7886 4042,7886 4042,7786 3942,7786 "/>
  <polygon class="fil3" points="3942,8054 4042,8054 4042,7954 3942,7954 "/>
  <polygon class="fil3" points="3942,8223 4042,8223 4042,8122 3942,8122 "/>
  <polygon class="fil3" points="3942,8391 4042,8391 4042,8291 3942,8291 "/>
  <polygon class="fil3" points="3942,8560 4042,8560 4042,8459 3942,8459 "/>
  <polygon class="fil3" points="3942,8728 4042,8728 4042,8628 3942,8628 "/>
  <polygon class="fil3" points="3942,8897 4042,8897 4042,8796 3942,8796 "/>
  <polygon class="fil3" points="3942,9065 4042,9065 4042,8965 3942,8965 "/>
  <polygon class="fil3" points="3942,9402 4042,9402 4042,9301 3942,9301 "/>
  <polygon class="fil3" points="3942,9570 4042,9570 4042,9470 3942,9470 "/>
  <polygon class="fil3" points="3942,9739 4042,9739 4042,9638 3942,9638 "/>
  <polygon class="fil3" points="3942,9907 4042,9907 4042,9807 3942,9807 "/>
  <polygon class="fil3" points="3942,10075 4042,10075 4042,9975 3942,9975 "/>
  <polygon class="fil3" points="3942,10244 4042,10244 4042,10143 3942,10143 "/>
  <polygon class="fil3" points="3942,10412 4042,10412 4042,10312 3942,10312 "/>
  <polygon class="fil3" points="3942,10581 4042,10581 4042,10480 3942,10480 "/>
  <polygon class="fil3" points="3782,7381 3882,7381 3882,7280 3782,7280 "/>
  <polygon class="fil3" points="3782,7549 3882,7549 3882,7449 3782,7449 "/>
  <polygon class="fil3" points="3782,7718 3882,7718 3882,7617 3782,7617 "/>
  <polygon class="fil3" points="3782,7886 3882,7886 3882,7786 3782,7786 "/>
  <polygon class="fil3" points="3782,8054 3882,8054 3882,7954 3782,7954 "/>
  <polygon class="fil3" points="3782,8223 3882,8223 3882,8122 3782,8122 "/>
  <polygon class="fil3" points="3782,8391 3882,8391 3882,8291 3782,8291 "/>
  <polygon class="fil3" points="3782,8560 3882,8560 3882,8459 3782,8459 "/>
  <polygon class="fil3" points="3782,8728 3882,8728 3882,8628 3782,8628 "/>
  <polygon class="fil3" points="3782,8897 3882,8897 3882,8796 3782,8796 "/>
  <polygon class="fil3" points="3782,9065 3882,9065 3882,8965 3782,8965 "/>
  <polygon class="fil3" points="3782,9233 3882,9233 3882,9133 3782,9133 "/>
  <polygon class="fil3" points="3782,9402 3882,9402 3882,9301 3782,9301 "/>
  <polygon class="fil3" points="3782,9570 3882,9570 3882,9470 3782,9470 "/>
  <polygon class="fil3" points="3782,9739 3882,9739 3882,9638 3782,9638 "/>
  <polygon class="fil3" points="3782,9907 3882,9907 3882,9807 3782,9807 "/>
  <polygon class="fil3" points="3782,10075 3882,10075 3882,9975 3782,9975 "/>
  <polygon class="fil3" points="3782,10244 3882,10244 3882,10143 3782,10143 "/>
  <polygon class="fil3" points="3782,10412 3882,10412 3882,10312 3782,10312 "/>
  <polygon class="fil3" points="3782,10581 3882,10581 3882,10480 3782,10480 "/>
  <polygon class="fil3" points="4728,8037 4828,8037 4828,7936 4728,7936 "/>
  <polygon class="fil3" points="4728,8205 4828,8205 4828,8105 4728,8105 "/>
  <polygon class="fil3" points="4728,8374 4828,8374 4828,8273 4728,8273 "/>
  <polygon class="fil3" points="4728,8542 4828,8542 4828,8442 4728,8442 "/>
  <polygon class="fil3" points="4728,8710 4828,8710 4828,8610 4728,8610 "/>
  <polygon class="fil3" points="4728,8879 4828,8879 4828,8778 4728,8778 "/>
  <polygon class="fil3" points="4728,9047 4828,9047 4828,8947 4728,8947 "/>
  <polygon class="fil3" points="4728,9216 4828,9216 4828,9115 4728,9115 "/>
  <polygon class="fil3" points="4728,9384 4828,9384 4828,9284 4728,9284 "/>
  <polygon class="fil3" points="4728,9553 4828,9553 4828,9452 4728,9452 "/>
  <polygon class="fil3" points="4568,8037 4668,8037 4668,7936 4568,7936 "/>
  <polygon class="fil3" points="4568,8205 4668,8205 4668,8105 4568,8105 "/>
  <polygon class="fil3" points="4568,8374 4668,8374 4668,8273 4568,8273 "/>
  <polygon class="fil3" points="4568,8542 4668,8542 4668,8442 4568,8442 "/>
  <polygon class="fil3" points="4568,8710 4668,8710 4668,8610 4568,8610 "/>
  <polygon class="fil3" points="4568,8879 4668,8879 4668,8778 4568,8778 "/>
  <polygon class="fil3" points="4568,9047 4668,9047 4668,8947 4568,8947 "/>
  <polygon class="fil3" points="4568,9216 4668,9216 4668,9115 4568,9115 "/>
  <polygon class="fil3" points="4568,9384 4668,9384 4668,9284 4568,9284 "/>
  <path class="fil2" d="M15659 12724c0,221 -3062,399 -6840,399 -3777,0 -6840,-178 -6840,-399 0,-221 3063,-400 6840,-400 3778,0 6840,179 6840,400z"/>
  <path class="fil4" d="M10804 822c0,0 13,642 296,698 283,56 671,-698 671,-698 0,0 -237,748 -159,863 78,114 1082,-332 1082,-332 0,0 -608,716 -541,839 67,123 541,68 541,68 0,0 -494,69 -512,307 -18,237 1043,558 1043,558 0,0 -999,-56 -1072,112 -73,167 235,549 235,549 0,0 -275,-323 -541,-270 -266,52 70,1255 70,1255 0,0 -629,-792 -777,-793 -148,-2 -195,643 -195,643 0,0 -59,-634 -181,-632 -121,1 -295,782 -295,782 0,0 119,-832 0,-883 -119,-51 -926,971 -926,971 0,0 448,-1122 397,-1212 -51,-89 -818,239 -818,239 0,0 614,-482 558,-677 -56,-196 -1270,-210 -1270,-210 0,0 1024,-181 1133,-293 109,-111 -604,-767 -604,-767 0,0 767,209 859,153 91,-56 -268,-865 -402,-1060 0,0 591,692 773,653 181,-39 155,-709 155,-709 0,0 207,404 347,404 139,0 133,-558 133,-558z"/>
  <path class="fil5" d="M9543 4859c0,0 401,-1005 401,-1189 0,-10 -1,-18 -4,-23 -6,-10 -22,-15 -47,-15 -177,0 -771,254 -771,254 0,0 561,-441 562,-650 0,-10 -1,-19 -4,-27 -29,-102 -371,-154 -693,-181 -3,-1 -6,-1 -9,-1 -157,-13 -308,-20 -415,-24 -3,0 -6,0 -9,0 -88,-3 -144,-4 -144,-4 0,0 1024,-181 1133,-293 8,-8 11,-18 11,-31 0,-141 -422,-553 -567,-691 -3,-3 -6,-6 -9,-8 -24,-24 -39,-37 -39,-37 0,0 597,163 800,163 28,0 48,-3 59,-10 10,-6 14,-22 14,-45 0,-183 -297,-842 -416,-1015 0,0 559,654 757,654 5,0 11,0 16,-1 141,-31 156,-442 156,-624 0,-52 -1,-85 -1,-85 0,0 207,404 347,404 128,0 133,-472 133,-548 0,-6 0,-10 0,-10l0 0c0,0 13,642 296,698 10,2 20,3 31,3 279,0 640,-701 640,-701 0,0 -175,553 -175,781 0,37 5,66 16,82 9,13 30,18 60,18 233,0 1022,-350 1022,-350 0,0 -546,643 -546,815 0,10 2,18 5,24 35,65 183,80 315,80 119,0 226,-12 226,-12 0,0 -494,69 -512,307 0,2 0,4 0,6 0,236 1043,552 1043,552 0,0 -160,-9 -356,-9 -295,0 -672,20 -716,121 -7,17 -11,38 -11,60 0,184 246,489 246,489 0,0 -235,-276 -481,-276 -20,0 -40,2 -60,6 -76,15 -103,122 -103,268 0,369 173,987 173,987 0,0 -629,-792 -777,-793 0,0 0,0 -1,0 -147,0 -194,643 -194,643 0,0 -59,-632 -180,-632 0,0 -1,0 -1,0 -121,1 -295,782 -295,782 0,0 53,-370 53,-631 0,-131 -14,-235 -53,-252 -3,-1 -6,-2 -10,-2 -25,0 -68,28 -122,75 -30,25 -63,56 -98,91 -279,278 -696,807 -696,807zm1402 -3223c-593,0 -1075,481 -1075,1075 0,594 482,1075 1075,1075 594,0 1075,-481 1075,-1075 0,-594 -481,-1075 -1075,-1075z"/>
  <path class="fil6" d="M10945 3786c-593,0 -1075,-481 -1075,-1075 0,-594 482,-1075 1075,-1075 594,0 1075,481 1075,1075 0,594 -481,1075 -1075,1075z"/>
  <polygon class="fil7" points="1755,12254 15659,12254 15659,10438 1755,10438 "/>
  <path class="fil8" d="M15659 12254l-2051 0 0 -112 427 0 0 -392 -427 0 0 -86 1062 0 0 -392 -1062 0 0 -717 2051 0 0 1699zm-1532 -511l0 392 1269 0 0 -392 -1269 0zm-991 511l-716 0 0 -54 100 -229 167 -385 136 -312 230 -529 0 0 60 -138 22 -52 1 0 0 1195 -369 0 0 392 369 0 0 112zm-8353 0l-1151 0c72,-206 236,-681 401,-1188l544 0 0 -392 -419 0c12,-40 24,-80 36,-119l1324 0 -729 1677c-3,7 -5,15 -6,22zm-1548 0l-1480 0 0 -1699 1833 0c-7,39 -14,79 -22,119l-258 0 0 392 181 0c-3,12 -5,24 -8,36l-867 0 0 392 786 0c-69,328 -130,607 -165,760zm-1256 -1580l0 392 1269 0 0 -392 -1269 0zm6995 1513l0 -1169 508 0 -508 1169zm-471 -888l-294 0 294 -676 0 676zm1150 -673l-679 0 0 -71 710 0 -31 71z"/>
  <polygon class="fil9" points="1979,11066 3248,11066 3248,10674 1979,10674 "/>
  <path class="fil9" d="M4577 11066l-544 0c42,-130 84,-262 125,-392l419 0 0 392zm-1088 0l-181 0 0 -392 258 0c-25,130 -51,262 -77,392z"/>
  <polygon class="fil9" points="9482,11018 8974,11018 8974,10626 9653,10626 9578,10797 "/>
  <polygon class="fil9" points="14127,12135 15396,12135 15396,11743 14127,11743 "/>
  <path class="fil9" d="M14035 12142l-427 0 0 -392 427 0 0 392zm-899 0l-369 0 0 -392 369 0 0 392z"/>
  <polygon class="fil9" points="13608,11664 14670,11664 14670,11272 13608,11272 "/>
  <path class="fil9" d="M3400 11494l-786 0 0 -392 867 0c-27,135 -54,267 -81,392z"/>
  <polygon class="fil7" points="1691,10555 15730,10555 15730,10179 1691,10179 "/>
  <path class="fil10" d="M15730 10555l-2122 0 0 -376 2122 0 0 376zm-2594 0l-1 0 1 -2 0 2zm-3452 0l-710 0 0 -376 873 0 -163 376 0 0 0 0zm-4166 0l-1324 0c40,-129 78,-256 112,-376l1357 0c1,12 2,24 3,36l-148 340zm-1930 0l-1897 0 0 -376 1965 0c-20,120 -43,247 -68,376z"/>
  <polygon class="fil4" points="4908,12614 5010,12614 5010,12120 4908,12120 "/>
  <polygon class="fil4" points="7685,12614 7787,12614 7787,12120 7685,12120 "/>
  <polygon class="fil4" points="8503,12616 8974,12616 8974,8731 8503,8731 "/>
  <polygon class="fil11" points="4908,12528 5010,12528 5010,12348 4908,12348 "/>
  <path class="fil11" d="M8974 12528l-236 0 0 -471 -4 0 0 0 151 -71c0,0 0,0 0,0l0 0 0 0 0 0c0,0 9,-21 19,-57 20,-71 42,-200 -8,-347 -23,-70 -59,-125 -95,-167 -72,-82 -148,-116 -148,-116l-150 0 0 -676 471 -1085 0 2649 -84 195 84 0 0 146z"/>
  <polygon class="fil4" points="9616,12700 4339,12700 4488,12528 9466,12528 "/>
  <polygon class="fil12" points="9115,12700 8738,12700 8738,12528 9466,12528 9265,12528 "/>
  <path class="fil4" d="M6433 8451l-1644 3781c-24,55 16,116 76,116l2818 0c42,0 80,-25 97,-63l1644 -3782c24,-54 -16,-116 -76,-116l-2818 0c-42,0 -80,25 -97,64z"/>
  <path class="fil13" d="M6825 12348l-786 0 8 -44 -37 0c163,-960 250,-1648 250,-2203 0,-356 -36,-657 -110,-938l294 4 0 0 121 2 660 8 0 0 460 6 9 -710 0 0 1 -86 1653 0c48,0 83,40 83,83 0,11 -2,22 -7,33l-10 24 -12 27 -62 142 -43 100 -30 68 -25 57 -268 617 -471 1085 -294 676 -745 0c0,0 0,0 1,0l-151 71 143 425 -412 0 0 58 95 0 164 204 -479 0 0 291zm-19 -2670l-497 1144 1090 0 498 -1144 -1091 0zm2394 -1185c-23,0 -42,19 -42,43 0,23 19,42 42,42 24,0 43,-19 43,-42 0,-24 -19,-43 -43,-43zm-3638 3855l-697 0c-48,0 -83,-39 -83,-83 0,-11 2,-22 7,-33l877 -2017c10,129 15,269 15,425 0,419 -33,951 -72,1672l-47 0 0 36zm-597 -179c-24,0 -43,19 -43,43 0,23 19,42 43,42 23,0 42,-19 42,-42 0,-24 -19,-43 -42,-43zm2581 -112l-207 0 -164 -204 302 0 69 204z"/>
  <polygon class="fil14" points="7399,10822 6309,10822 6806,9678 7897,9678 "/>
  <path class="fil14" d="M4965 12254c-24,0 -43,-19 -43,-42 0,-24 19,-43 43,-43 23,0 42,19 42,43 0,23 -19,42 -42,42z"/>
  <path class="fil14" d="M9200 8578c-23,0 -42,-19 -42,-42 0,-24 19,-43 42,-43 24,0 43,19 43,43 0,23 -19,42 -43,42z"/>
  <polygon class="fil4" points="9542,12614 9643,12614 9643,12120 9542,12120 "/>
  <polygon class="fil4" points="12319,12614 12420,12614 12420,12120 12319,12120 "/>
  <polygon class="fil4" points="13136,12616 13608,12616 13608,8731 13136,8731 "/>
  <polygon class="fil11" points="9542,12528 9643,12528 9643,12382 9542,12382 "/>
  <polygon class="fil11" points="12420,12528 12319,12528 12319,12382 12341,12382 12420,12200 "/>
  <polygon class="fil11" points="13608,12528 13136,12528 13136,10553 13608,9469 "/>
  <polygon class="fil7" points="14675,7015 12341,12382 8890,12382 11223,7015 "/>
  <path class="fil8" d="M11882 12382l-353 0 111 -72 353 0 -111 72zm-782 0l-593 0 175 -113 -18 41 547 0 -111 72zm-807 0l-1403 0 688 -1585 97 -62 -37 85 756 0 305 -700 -67 0 189 -122 -21 50 777 0 305 -700 -49 0 165 -106 -15 34 778 0 304 -700 -31 0 140 -90 -8 18 778 0 305 -700 -14 0 134 -86 51 -118 -54 125 -19 43 -29 68 -44 100 -68 156 -5 13 -30 68 -43 100 -103 236 -44 101 -29 68 -6 12 -189 435 -39 91 -30 68 -31 72 -49 113 -472 1084 -1 2 -22 52 23 -53 -115 74 221 -508 -778 0 -305 700 563 0 -111 72 -483 0 -187 430 -97 62 215 -492 -778 0 -305 700 545 0 -111 72 -465 0 -180 414 -97 62 207 -476 -778 0 -281 646 588 0 -111 72zm1238 -278l192 -440 -99 0 111 -72 19 0 8 -17 97 -62 -35 79 504 0 -111 72 -424 0 -165 378 -97 62zm874 -59l137 -315 115 -74 30 -70 -167 385 -115 74zm303 -697l198 -456 -82 0 111 -72 2 0 1 -2 115 -73 -230 529 -115 74zm-3024 -793l1539 -3540 0 0 -864 1987 97 -63 -146 337 69 0 -193 125 -211 483 97 -62 -98 226 498 0 -111 72 -418 0 -162 373 -97 62zm1146 -737l204 -470 -224 0 111 -72 144 0 56 -128 97 -63 -83 191 538 0 -111 72 -458 0 -177 408 -97 62zm1176 -756l212 -486 -207 0 111 -72 127 0 49 -113 97 -62 -76 175 555 0 -111 72 -476 0 -184 424 -97 62zm-674 -398l38 -88 -349 0 112 -72 268 0 104 -239 97 -62 -131 301 109 0 -111 72 -29 0 -11 26 -97 62zm1851 -358l218 -502 -190 0 111 -71 110 0 43 -98 97 -63 -70 161 573 0 -111 71 -493 0 -191 439 -97 63zm-675 -398l45 -104 -331 0 111 -71 251 0 98 -224 97 -63 -125 287 126 0 -111 71 -46 0 -18 41 -97 63zm1851 -358l202 -464 -233 0 111 -71 236 0 -201 461 -115 74zm-674 -399l28 -65 -374 0 111 -71 447 0 -111 71 -3 0 -1 3 -97 62z"/>
  <polygon class="fil7" points="13242,10120 12464,10120 12159,10820 12937,10820 "/>
  <polygon class="fil7" points="11824,11592 12602,11592 12906,10892 12128,10892 "/>
  <polygon class="fil7" points="12394,10120 11616,10120 11312,10820 12090,10820 "/>
  <polygon class="fil7" points="14249,7804 13471,7804 13166,8504 13944,8504 "/>
  <polygon class="fil7" points="10976,11592 11754,11592 12059,10892 11281,10892 "/>
  <polygon class="fil7" points="13578,9348 12800,9348 12495,10048 13273,10048 "/>
  <polygon class="fil7" points="13913,8576 13135,8576 12831,9276 13609,9276 "/>
  <polygon class="fil7" points="10730,10048 11034,9348 10278,9348 9974,10048 "/>
  <polygon class="fil7" points="10394,10820 10699,10120 9943,10120 9638,10820 "/>
  <polygon class="fil7" points="11705,7804 10950,7804 10645,8504 11401,8504 "/>
  <polygon class="fil7" points="10059,11592 10363,10892 9607,10892 9303,11592 "/>
  <polygon class="fil7" points="11065,9276 11370,8576 10614,8576 10310,9276 "/>
  <polygon class="fil7" points="14561,7086 13783,7086 13502,7733 14280,7733 "/>
  <polygon class="fil7" points="12571,11664 11793,11664 11512,12310 12290,12310 "/>
  <polygon class="fil7" points="10027,11664 9272,11664 8991,12310 9746,12310 "/>
  <polygon class="fil7" points="11736,7733 12018,7086 11262,7086 10981,7733 "/>
  <polygon class="fil7" points="11882,9348 11104,9348 10800,10048 11577,10048 "/>
  <polygon class="fil7" points="11546,10120 10769,10120 10464,10820 11242,10820 "/>
  <polygon class="fil7" points="13713,7086 12935,7086 12654,7733 13432,7733 "/>
  <polygon class="fil7" points="11723,11664 10945,11664 10664,12310 11442,12310 "/>
  <polygon class="fil7" points="13401,7804 12623,7804 12319,8504 13096,8504 "/>
  <polygon class="fil7" points="13065,8576 12287,8576 11983,9276 12761,9276 "/>
  <polygon class="fil7" points="10128,11592 10906,11592 11211,10892 10433,10892 "/>
  <polygon class="fil7" points="10594,12310 10875,11664 10097,11664 9816,12310 "/>
  <polygon class="fil7" points="12865,7086 12087,7086 11806,7733 12584,7733 "/>
  <polygon class="fil7" points="12730,9348 11952,9348 11647,10048 12425,10048 "/>
  <polygon class="fil7" points="12553,7804 11775,7804 11471,8504 12249,8504 "/>
  <polygon class="fil7" points="12218,8576 11440,8576 11135,9276 11913,9276 "/>
  <path class="fil15" d="M13419 7015l-1092 0 0 0 1092 0c0,0 0,0 0,0z"/>
  <path class="fil16" d="M13450 7015l-31 0c0,0 0,0 0,0l31 0 0 0z"/>
  <polygon class="fil17" points="11228,7015 12327,7015 12327,7015 11228,7015 "/>
  <polygon class="fil18" points="11228,7015 11223,7015 11223,7015 11228,7015 "/>
  <path class="fil19" d="M10359 9002l864 -1987 2227 0 -111 71 -404 0 -156 360 -97 63 183 -423 -778 0 -281 647 527 0 -111 71 -447 0 -173 399 -97 62 200 -461 -755 0 -305 700 488 0 -112 72 -407 0 -158 363 -97 63zm903 -1916l-281 647 755 0 282 -647 -756 0z"/>
  <polygon class="fil20" points="11133,8504 10645,8504 10950,7804 11705,7804 11505,8265 "/>
  <polygon class="fil20" points="10456,8939 10614,8576 11021,8576 "/>
  <polygon class="fil20" points="11736,7733 10981,7733 11262,7086 12018,7086 "/>
  <polygon class="fil20" points="12779,7446 12935,7086 13339,7086 "/>
  <polygon class="fil20" points="12333,7733 11806,7733 12087,7086 12865,7086 12682,7509 "/>
  <polygon class="fil20" points="11602,8203 11775,7804 12222,7804 "/>
  <path class="fil19" d="M9975 9884l211 -483 193 -125 542 0 -111 72 -532 0 -206 474 -97 62zm1146 -736l211 -484 97 -62 -211 483 -97 63z"/>
  <polygon class="fil20" points="10072,9822 10278,9348 10810,9348 "/>
  <polygon class="fil20" points="10921,9276 10379,9276 11332,8664 11121,9148 "/>
  <path class="fil19" d="M12011 8576l-542 0 111 -72 542 0 -111 72zm287 -185l210 -483 97 -63 -210 484 -97 62zm913 -587l-542 0 111 -71 542 0 -111 71z"/>
  <path class="fil16" d="M14439 7015l-247 0 0 0 247 0 0 0zm-341 0l-201 0 0 0 201 0 0 0z"/>
  <polygon class="fil17" points="14098,7015 14192,7015 14192,7015 14098,7015 "/>
  <path class="fil19" d="M13475 7635l210 -484 97 -62 -210 483 -97 63zm853 -549l-542 0 111 -71 542 0 -111 71z"/>
  <polygon class="fil20" points="13572,7572 13782,7089 13786,7086 14328,7086 "/>
  <polygon class="fil20" points="13322,7733 12780,7733 13685,7151 13475,7635 "/>
  <polygon class="fil20" points="12395,8329 12605,7845 12669,7804 13211,7804 "/>
  <polygon class="fil20" points="12122,8504 11580,8504 12508,7908 12298,8391 "/>
  <polygon class="fil20" points="11218,9085 11429,8602 11469,8576 12011,8576 "/>
  <polygon class="fil19" points="9653,10626 9653,10626 9684,10555 9684,10555 "/>
  <polygon class="fil21" points="9578,10797 9653,10626 9653,10626 9578,10797 "/>
  <polygon class="fil22" points="9684,10555 9684,10555 9684,10555 "/>
  <g>
   <path class="fil19" d="M9578 10797l106 -242 97 -62 -106 242 -97 62 0 0zm1054 -677l-271 0 111 -72 258 0 100 -230 97 -62 -106 242 -189 122zm1201 -772l-271 0 111 -72 240 0 93 -214 97 -62 -105 242 -165 106z"/>
  </g>
  <polygon class="fil20" points="10730,10048 10472,10048 10830,9818 "/>
  <polygon class="fil20" points="9675,10735 9781,10493 10361,10120 10632,10120 "/>
  <polygon class="fil20" points="10821,9998 10927,9756 11562,9348 11833,9348 "/>
  <polygon class="fil16" points="14454,7522 14454,7522 14474,7476 14474,7476 "/>
  <polygon class="fil17" points="14420,7600 14454,7522 14454,7522 "/>
  <path class="fil19" d="M13034 8576l-271 0 111 -72 222 0 87 -198 97 -63 -106 243 -140 90zm1201 -772l-271 0 111 -71 205 0 79 -183 115 -74 -54 124 -51 118 -134 86z"/>
  <polygon class="fil20" points="13174,8486 13280,8243 13964,7804 14235,7804 "/>
  <polygon class="fil20" points="14280,7733 14075,7733 14359,7550 "/>
  <polygon class="fil20" points="13096,8504 12874,8504 13183,8306 "/>
  <polygon class="fil20" points="11998,9242 12103,9000 12763,8576 13034,8576 "/>
  <polygon class="fil20" points="11913,9276 11673,9276 12006,9062 "/>
  <polygon class="fil19" points="12420,12200 12420,12200 12520,11971 12520,11971 "/>
  <polygon class="fil23" points="12341,12382 12319,12382 12341,12382 12420,12200 12420,12200 "/>
  <polygon class="fil19" points="12341,12382 11882,12382 11993,12310 12290,12310 12405,12045 12520,11971 "/>
  <polygon class="fil20" points="12290,12310 11993,12310 12405,12045 "/>
  <polygon class="fil19" points="12687,11586 12823,11274 12823,11274 "/>
  <path class="fil19" d="M11529 12382l-429 0 111 -72 231 0 89 -206 97 -62 -116 268 128 0 -111 72zm1013 -652l29 -66 -354 0 111 -72 274 0 106 -244 115 -74 -136 312 -30 70 -115 74z"/>
  <polygon class="fil20" points="12602,11592 12328,11592 12708,11348 "/>
  <polygon class="fil20" points="11640,12310 11512,12310 11628,12042 12217,11664 12571,11664 12542,11730 "/>
  <polygon class="fil20" points="11442,12310 11211,12310 11531,12104 "/>
  <polygon class="fil19" points="10507,12382 10293,12382 10404,12310 10594,12310 10668,12140 10765,12078 10682,12269 "/>
  <polygon class="fil19" points="13053,10745 13113,10607 13053,10745 "/>
  <path class="fil19" d="M11624 11664l-214 0 111 -72 214 0 -111 72zm138 -89l82 -191 97 -62 -82 191 -97 62zm1062 -683l-213 0 111 -72 213 0 -111 72zm114 -74l83 -190 115 -74 -23 53 -60 138 -115 73z"/>
  <polygon class="fil20" points="12935,10820 12722,10820 13021,10628 12938,10818 "/>
  <polygon class="fil20" points="11859,11513 11941,11322 12611,10892 12824,10892 "/>
  <polygon class="fil20" points="11735,11592 11521,11592 11844,11384 11762,11575 "/>
  <polygon class="fil20" points="10682,12269 10765,12078 11410,11664 11624,11664 "/>
  <polygon class="fil20" points="10594,12310 10404,12310 10668,12140 "/>
  <polygon class="fil4" points="14393,12700 9115,12700 9265,12528 14243,12528 "/>
  <polygon class="fil12" points="14393,12700 12861,12700 13010,12528 14243,12528 "/>
  <polygon class="fil7" points="7836,11795 7045,11795 7045,11853 7140,11853 7336,12096 7371,12096 7175,11853 7836,11853 "/>
  <polygon class="fil24" points="7339,12057 7304,12057 7140,11853 7045,11853 7045,11795 7457,11795 7477,11853 7175,11853 "/>
  <path class="fil7" d="M8896 11582c-69,-206 -243,-283 -243,-283l-1188 0 -151 71 232 687 1188 0 151 -71c0,0 86,-183 11,-404z"/>
  <polygon class="fil7" points="6825,12833 8738,12833 8738,12057 6825,12057 "/>
  <polygon class="fil24" points="8738,12833 7549,12833 7549,12057 8738,12057 "/>
  <path class="fil25" d="M8885 11986l0 0c0,-2 10,-22 19,-57 -10,36 -19,57 -19,57z"/>
  <polygon class="fil9" points="8209,11299 8503,11299 8503,11299 8209,11299 "/>
  <path class="fil25" d="M8801 11415c-72,-82 -148,-116 -148,-116l-150 0 0 0 150 0c0,0 76,34 148,116z"/>
  <path class="fil26" d="M7465 11299c-1,0 -1,0 -1,0l745 0 0 0 -744 0 0 0z"/>
  <path class="fil24" d="M8885 11986l-1189 0c0,0 86,-183 11,-404 -67,-202 -236,-280 -242,-283l1188 0c0,0 76,34 148,116 36,42 72,97 95,167 49,147 28,276 8,347 -9,35 -19,55 -19,57zm-863 -478l23 84c0,0 179,90 370,97 6,1 12,1 18,1 176,0 229,-98 229,-98l-27 -81c0,0 -45,74 -183,89 -8,1 -18,2 -28,2 -145,0 -402,-94 -402,-94z"/>
  <path class="fil23" d="M8885 11986c0,0 0,0 0,0l0 0 0 0z"/>
  <path class="fil20" d="M8734 12057l-1188 0 150 -71 1189 0c0,0 0,0 0,0l-151 71z"/>
  <polygon class="fil20" points="8734,12057 7546,12057 "/>
  <path class="fil27" d="M8433 11690c-6,0 -12,0 -18,-1 -191,-7 -370,-97 -370,-97l-23 -84c0,0 257,94 402,94 10,0 20,-1 28,-2 138,-15 183,-89 183,-89l27 81c0,0 -53,98 -229,98z"/>
  <path class="fil7" d="M8022 11508c0,0 188,-93 358,-77 170,16 255,80 255,80l27 81c0,0 -256,-158 -617,0l-23 -84z"/>
  <polygon class="fil7" points="7752,3930 7685,9183 4233,9139 4300,3886 "/>
  <g>
   <path class="fil8" d="M7685 9183l5 -402 -84 71 4 -308 84 -71 -9 710zm-460 -6l-660 -8 307 3 81 -69 353 5 -81 69zm-781 -10l-294 -4c-6,-23 -13,-47 -19,-70l394 5 -81 69 0 0zm-1150 -15l-466 -6 -100 -1 -60 -1 -100 -1 -106 -1c2,-23 4,-47 6,-70l592 7 3 -212c23,27 46,53 69,79l-2 134 111 2c18,23 36,47 53,70zm1464 -252l5 -432 -99 -1 81 -69 19 0 1 -17 70 -60 -1 78 504 7 -81 68 -424 -5 -4 371 -71 60zm-775 -213c-22,-49 -44,-98 -68,-147l1 -83 -43 0c-12,-23 -24,-47 -37,-71l81 1 8 -685 -510 -7c-16,-23 -31,-46 -47,-70l558 7 9 -686 -778 -10 -5 370c-22,-33 -45,-67 -68,-101l3 -269 -14 -1 1 -45 85 -72 -1 48 778 10 9 -685 -49 -1 120 -102 -1 34 778 10 9 -686 -31 0 102 -87 0 18 778 10 8 -686 -13 0 97 -83 3 -237 -84 71 6 -453 -233 -3 81 -69 236 3 -45 3508 1 -44 -84 71 6 -497 -777 -10 -9 686 562 7 -81 69 -482 -6 -5 421 -71 60 6 -482 -778 -10 -8 685 544 7 -81 69 -464 -6 -3 229zm-1331 -246l-130 -1c2,-24 4,-47 6,-70l52 0c25,25 48,48 72,71zm2963 -271l6 -447 -82 -1 81 -68 2 0 0 -2 83 -71 -6 518 -84 71zm-3281 -1452l-70 -13 36 -2819 1 0 -25 1945 70 -61 -4 330 70 1 -141 120 -6 474 70 -61 -1 84zm1290 -531l-266 -4c8,-24 15,-47 21,-69l326 4 -81 69zm-580 -8l-171 -2 81 -69 144 2 1 -126 71 -60 -1 121c-40,40 -83,87 -125,134zm904 -268l6 -476 -207 -2 81 -69 127 1 2 -111 70 -60 -2 172 555 7 -81 69 -475 -6 -5 415 -71 60zm-843 -400l2 -87 -349 -4 81 -69 268 3 3 -234 71 -60 -4 295 109 2 -81 69 -29 -1 0 26 -71 60zm1700 -329l7 -492 -190 -2 81 -69 109 2 2 -96 70 -60 -2 156 573 8 -81 69 -493 -7 -5 431 -71 60zm-842 -401l1 -101 -198 -3c9,-23 17,-46 24,-69l175 2 3 -219 70 -61 -3 281 126 1 -81 69 -46 0 -1 40 -70 60zm857 -729l1 -64 -375 -5 81 -69 447 6 -80 69 -4 0 0 2 -70 61z"/>
  </g>
  <polygon class="fil7" points="7630,6968 6853,6958 6844,7644 7622,7654 "/>
  <polygon class="fil7" points="6834,8399 7612,8409 7621,7723 6843,7714 "/>
  <polygon class="fil7" points="6783,6957 6005,6947 5996,7633 6774,7643 "/>
  <polygon class="fil7" points="7659,4701 6881,4691 6873,5377 7651,5387 "/>
  <polygon class="fil7" points="5987,8388 6764,8398 6773,7713 5995,7703 "/>
  <polygon class="fil7" points="7640,6212 6862,6202 6853,6888 7631,6898 "/>
  <polygon class="fil7" points="7650,5457 6872,5447 6863,6133 7641,6142 "/>
  <polygon class="fil7" points="5088,6866 5097,6180 4341,6170 4332,6856 "/>
  <polygon class="fil7" points="5079,7621 5087,6936 4332,6926 4323,7612 "/>
  <polygon class="fil7" points="5116,4669 4361,4659 4352,5345 5107,5354 "/>
  <polygon class="fil7" points="5069,8377 5078,7691 4322,7681 4313,8367 "/>
  <polygon class="fil7" points="5098,6110 5107,5424 4351,5415 4342,6100 "/>
  <polygon class="fil7" points="7668,3999 6890,3989 6882,4621 7660,4631 "/>
  <polygon class="fil7" points="7611,8479 6833,8469 6825,9102 7603,9112 "/>
  <polygon class="fil7" points="5068,8447 4312,8437 4304,9070 5060,9079 "/>
  <polygon class="fil7" points="5117,4599 5125,3966 4369,3957 4361,4589 "/>
  <polygon class="fil7" points="5945,6191 5167,6181 5158,6866 5936,6876 "/>
  <polygon class="fil7" points="5935,6946 5157,6936 5148,7622 5926,7632 "/>
  <polygon class="fil7" points="6821,3988 6043,3978 6035,4611 6812,4621 "/>
  <polygon class="fil7" points="6763,8468 5986,8458 5978,9091 6755,9101 "/>
  <polygon class="fil7" points="6812,4690 6034,4681 6025,5366 6803,5376 "/>
  <polygon class="fil7" points="6802,5446 6024,5436 6015,6122 6793,6132 "/>
  <polygon class="fil7" points="5139,8378 5917,8387 5925,7702 5148,7692 "/>
  <polygon class="fil7" points="5908,9090 5916,8457 5138,8447 5130,9080 "/>
  <polygon class="fil7" points="5973,3977 5195,3967 5187,4600 5965,4610 "/>
  <polygon class="fil7" points="6792,6202 6015,6192 6006,6877 6784,6887 "/>
  <polygon class="fil7" points="5964,4680 5186,4670 5177,5355 5955,5365 "/>
  <polygon class="fil7" points="5954,5435 5176,5425 5168,6111 5946,6121 "/>
  <path class="fil15" d="M6527 3914l-687 -9c0,0 0,0 0,0l687 9 0 0zm-1338 -17l-888 -11 0 0 888 11c0,0 0,0 0,0z"/>
  <path class="fil19" d="M4276 5831l25 -1945 888 11c-41,26 -72,51 -94,69l-726 -9 -8 632 635 8c5,26 12,50 18,70l-653 -8 -9 686 487 6 -81 69 -407 -5 -5 355 -70 61zm834 -711l4 -249c9,16 19,29 30,42l0 0c12,14 25,27 39,38l-2 109 -71 60zm858 -729l2 -164c16,-26 49,-85 41,-135 -3,-14 -16,-37 -39,-64l1 -51 -48 -1c-25,-23 -53,-47 -85,-71l687 9 -81 69 -403 -5 -5 352 -70 61z"/>
  <path class="fil20" d="M4839 5351l-487 -6 9 -686 653 8c20,65 41,103 41,103 6,0 13,1 19,1 3,12 6,24 10,36 8,23 18,45 30,64l-4 249 -271 231z"/>
  <polygon class="fil20" points="4346,5770 4351,5415 4758,5420 "/>
  <path class="fil20" d="M4996 4597l-635 -8 8 -632 726 9c-20,17 -31,29 -31,29 0,0 -77,25 -86,63 -8,37 32,93 32,93 6,0 12,0 18,-1 -37,100 -50,194 -50,278 0,63 7,121 18,169z"/>
  <polygon class="fil20" points="6038,4330 6043,3978 6446,3983 "/>
  <path class="fil20" d="M5965 4393c1,-20 2,-40 2,-57 0,-56 -7,-95 -7,-95 0,0 4,-5 10,-14l-2 164 -3 2zm7 -365c-13,-16 -29,-34 -47,-52l48 1 -1 51z"/>
  <path class="fil20" d="M5181 5060l2 -109c22,18 48,33 74,44l-76 65z"/>
  <path class="fil19" d="M4265 6695l6 -474 141 -120 542 7 -81 69 -532 -7 -6 464 -70 61zm834 -711l6 -473 71 -60 -6 473 -71 60z"/>
  <polygon class="fil20" points="4335,6634 4341,6170 4873,6177 "/>
  <polygon class="fil20" points="4954,6108 4412,6101 5105,5511 5099,5984 "/>
  <polygon class="fil19" points="5747,5433 5205,5426 5286,5357 5828,5364 "/>
  <polygon class="fil15" points="7516,3927 6974,3920 6975,3920 7516,3927 "/>
  <path class="fil19" d="M5957 5254l6 -473 70 -60 -6 473 -70 60zm665 -566l-542 -7 81 -69 542 7 -81 69zm192 -163l6 -473 70 -61 -6 474 -70 60zm621 -529l-541 -7 80 -69 542 7 -81 69z"/>
  <polygon class="fil20" points="6884,4465 6890,3991 6894,3989 7435,3996 "/>
  <polygon class="fil20" points="6703,4619 6161,4612 6820,4052 6814,4525 "/>
  <polygon class="fil20" points="6027,5194 6033,4721 6080,4681 6622,4688 "/>
  <polygon class="fil20" points="5828,5364 5286,5357 5963,4781 5957,5254 "/>
  <polygon class="fil20" points="5170,5924 5176,5451 5205,5426 5747,5433 "/>
  <path class="fil19" d="M5074 6890l0 -4 0 0c0,0 3,-8 9,-20l5 0 0 -11c15,-33 41,-90 72,-161l-1 124 -85 72zm822 -700l-272 -3 81 -69 241 3 2 -210 71 -60 -3 237 -120 102z"/>
  <path class="fil20" d="M5088 6866l-5 0c2,-4 4,-7 5,-11l0 11z"/>
  <path class="fil20" d="M5159 6818l1 -124c23,-53 49,-113 75,-176l389 -331 272 3 -737 628z"/>
  <path class="fil19" d="M6771 5446l-272 -4 81 -69 223 3 2 -194 71 -60 -3 237 -102 87zm875 -745l-272 -3 81 -69 205 2 2 -179 84 -71 -3 237 -97 83z"/>
  <polygon class="fil20" points="6873,5359 6876,5122 7374,4698 7646,4701 "/>
  <polygon class="fil20" points="7660,4631 7455,4629 7662,4452 "/>
  <polygon class="fil20" points="6803,5376 6580,5373 6805,5182 "/>
  <polygon class="fil20" points="6016,6088 6019,5851 6499,5442 6771,5446 "/>
  <polygon class="fil20" points="5946,6121 5705,6118 5948,5911 "/>
  <polygon class="fil19" points="7685,9183 7225,9177 7306,9108 7603,9112 7606,8852 7690,8781 "/>
  <polygon class="fil20" points="7603,9112 7306,9108 7606,8852 "/>
  <polygon class="fil17" points="7695,8387 7695,8387 7699,8099 7699,8099 "/>
  <polygon class="fil28" points="7694,8473 7695,8387 7695,8387 "/>
  <path class="fil19" d="M6872 9172l-307 -3 -121 -2 81 -69 230 3 3 -201 71 -60 -4 262 128 1 -81 69zm738 -628l1 -65 -354 -5 81 -68 274 3 3 -239 84 -71 -5 374 -84 71z"/>
  <polygon class="fil20" points="7612,8409 7338,8406 7615,8170 "/>
  <polygon class="fil20" points="6953,9103 6825,9102 6829,8840 7257,8474 7611,8479 7610,8544 "/>
  <polygon class="fil20" points="6755,9101 6525,9098 6758,8900 "/>
  <polygon class="fil17" points="7705,7581 7707,7438 "/>
  <path class="fil19" d="M6664 8467l-214 -3 81 -69 214 3 -81 69zm101 -86l2 -186 71 -60 -3 186 -70 60zm774 -659l-214 -2 81 -69 214 3 -81 68zm83 -70l2 -187 84 -71 -1 44 -2 143 -83 71z"/>
  <polygon class="fil20" points="7620,7654 7406,7651 7624,7465 7622,7652 "/>
  <polygon class="fil20" points="6835,8321 6838,8135 7325,7720 7539,7722 "/>
  <polygon class="fil20" points="6745,8398 6531,8395 6767,8195 6765,8381 "/>
  <path class="fil20" d="M6088 8957c-16,-47 -33,-94 -51,-141l413 -352 214 3 -576 490z"/>
  <path class="fil29" d="M4087 5532c0,0 -426,188 -564,19 -138,-169 616,-1060 616,-1060 0,0 12,-263 49,-309 38,-46 122,-90 122,-90l28 516 -78 7c0,0 -404,543 -397,590 8,47 224,-51 224,-51l0 378z"/>
  <path class="fil4" d="M5074 6886c0,0 353,-753 327,-931 -27,-178 -620,594 -620,594l-47 264 340 73z"/>
  <path class="fil30" d="M5074 6886l0 0 1 -23 -22 -5c36,-77 348,-755 323,-923 0,-2 0,-4 -1,-7 0,0 0,0 1,0 13,0 22,9 25,27 1,7 1,14 1,22 0,34 -9,81 -23,137 -31,116 -88,267 -144,404 -26,63 -52,123 -75,176 -31,71 -57,128 -72,161 -1,4 -3,7 -5,11 -6,12 -9,20 -9,20z"/>
  <path class="fil31" d="M5086 6180l-42 -1c42,-47 85,-94 125,-134l-1 45c-27,29 -55,59 -82,90z"/>
  <path class="fil32" d="M4736 6797l-27 -6 48 -262c0,0 140,-183 287,-350l42 1c-153,172 -305,369 -305,369l-45 248z"/>
  <path class="fil32" d="M5168 6090l1 -45c78,-79 147,-137 182,-137 12,0 20,7 24,20 -40,1 -119,70 -207,162z"/>
  <path class="fil33" d="M5053 6858l-317 -61 45 -248c0,0 475,-619 594,-621 1,3 1,5 1,7 25,168 -287,846 -323,923z"/>
  <polygon class="fil29" points="5648,12587 5925,12616 5939,12455 5977,12018 5700,11989 5658,12472 "/>
  <polygon class="fil29" points="3240,12551 3509,12551 3522,12491 3524,12483 3608,12096 3609,12088 3642,11939 3373,11939 "/>
  <polygon class="fil34" points="5658,12472 5663,12415 5943,12415 5939,12455 "/>
  <polygon class="fil35" points="3527,12471 3531,12449 3531,12449 3527,12471 "/>
  <polygon class="fil36" points="3524,12483 3524,12483 3527,12471 3527,12471 "/>
  <polygon class="fil34" points="3249,12517 3248,12517 3251,12506 3263,12449 3531,12449 3527,12471 3524,12483 3524,12483 "/>
  <path class="fil7" d="M3546 12535l-326 0c-11,0 -21,8 -23,19l-53 239c-4,21 9,42 31,47l8 1c106,-2 183,-8 315,-8 82,0 328,8 441,8 113,0 127,-111 81,-122 -207,-45 -362,-107 -429,-167 -12,-11 -28,-17 -45,-17z"/>
  <path class="fil7" d="M5955 12527l-327 0c-11,0 -20,8 -23,18l-53 239c-4,22 10,43 31,47l9 1c105,-2 182,-8 315,-8 81,0 328,9 440,9 113,0 128,-112 82,-122 -207,-45 -363,-108 -429,-167 -13,-11 -29,-18 -45,-17z"/>
  <path class="fil4" d="M6002 12347l-396 12c144,-2649 212,-2784 -1074,-4036 -31,379 -64,772 -97,1099 -21,202 -27,379 -61,509 -229,877 -780,2431 -780,2431l-387 17c0,0 484,-2129 534,-2822 65,-910 -501,-1959 50,-2944l1284 250 -9 315c1225,1793 1449,2180 936,5169z"/>
  <polygon class="fil37" points="5074,6886 5074,6886 5075,6863 "/>
  <path class="fil30" d="M3599 12347l-384 0c60,-270 480,-2147 526,-2790 4,-51 6,-103 6,-155 -1,-416 -108,-857 -165,-1306 -20,-160 -34,-322 -34,-484 0,-335 59,-671 243,-999l1284 250 -1 23 -8 292 0 0c822,1204 1194,1774 1194,2923 0,555 -87,1243 -250,2203l-401 8c39,-721 72,-1253 72,-1672 0,-844 -134,-1229 -618,-1773 -116,-130 -252,-269 -411,-426 -24,-23 -47,-46 -72,-71 -16,-15 -32,-31 -48,-47 -2,16 -3,31 -4,47 -2,23 -4,46 -6,70 -17,213 -35,429 -54,632 -2,23 -4,47 -6,70 -9,97 -18,191 -27,280 -21,202 -27,379 -61,509 -21,78 -43,161 -68,248 -34,120 -72,247 -112,376l0 0c-12,39 -24,79 -36,119 -41,130 -83,262 -125,392 -165,507 -329,982 -401,1188l0 0c-15,44 -27,75 -33,93zm519 -4726c0,0 -153,456 0,701 153,244 209,290 209,290 0,0 59,337 108,809 33,-327 66,-721 97,-1099 0,0 -419,-277 -414,-701z"/>
  <path class="fil29" d="M5749 5912c0,0 730,132 869,109 140,-22 879,-605 879,-605 0,0 243,-13 256,-96 13,-82 46,-230 -24,-225 -70,5 -274,96 -274,96l-27 67c0,0 -813,491 -843,502 -30,11 -731,-181 -731,-181l-105 333z"/>
  <path class="fil4" d="M4428 4954c-240,0 -446,155 -665,265l158 394 504 -32 3 -627z"/>
  <path class="fil29" d="M5637 4896c-8,10 -16,18 -24,26 -51,50 -113,80 -178,91 -17,3 -34,5 -51,5 -90,2 -179,-33 -240,-105 -25,-29 -46,-64 -60,-106 -54,-163 11,-288 103,-509 20,-48 50,-91 89,-124 135,-120 342,-106 461,29 169,190 41,523 -100,693z"/>
  <path class="fil34" d="M5377 5018c-41,0 -82,-8 -120,-23 -26,-11 -52,-26 -74,-44 -14,-11 -27,-24 -39,-38 35,-34 74,-54 74,-54 0,0 138,43 217,154 -17,3 -34,5 -51,5 -2,0 -4,0 -7,0z"/>
  <path class="fil7" d="M5859 4317c-12,0 -110,84 -116,115 -17,83 -112,202 -195,240 -83,38 -210,217 -210,217 0,0 -138,-116 -283,-119 0,0 -171,-311 -3,-678l807 225z"/>
  <path class="fil24" d="M5338 4889c0,0 -138,-116 -283,-119 0,0 -77,-140 -77,-342 0,-84 13,-178 50,-278 3,0 5,0 8,0 351,0 584,188 698,311 -29,80 -112,177 -186,211 -83,38 -210,217 -210,217z"/>
  <path class="fil29" d="M5487 4599c-10,53 -2,100 24,131 35,40 94,-8 119,-75 22,-61 32,-156 -20,-168 -52,-12 -110,47 -123,112z"/>
  <path class="fil7" d="M5684 4392c0,0 26,570 -413,575l0 23c0,0 394,36 486,-554l-73 -44z"/>
  <path class="fil15" d="M4999 4248c0,0 24,62 108,93 85,32 488,-73 488,-73l73 54c0,0 -406,134 -561,112 -154,-23 -130,-137 -130,-137l22 -49z"/>
  <path class="fil29" d="M4781 5018c59,148 490,187 490,187 0,0 -7,-48 2,-114 5,-38 22,-77 44,-113 11,-20 24,-39 37,-57l-282 -150c-66,118 -132,184 -291,247z"/>
  <path class="fil4" d="M5946 4486c0,0 22,47 -14,79 -36,31 -114,0 -114,0 0,0 -270,-428 -808,-414 0,0 -40,-56 -32,-93 9,-38 86,-63 86,-63 0,0 51,-54 140,-107 70,-43 166,-85 278,-99 254,-33 517,237 529,303 11,67 -51,149 -51,149 0,0 23,130 -14,245z"/>
  <path class="fil38" d="M5946 4486c-257,-438 -882,-491 -882,-491 0,0 51,-54 140,-107 5,54 67,76 118,81 3,1 6,1 10,1 25,0 66,-6 116,-12 49,-6 106,-12 163,-12 77,0 153,11 207,49 138,98 142,246 142,246 0,0 7,39 7,95 0,44 -4,98 -21,150l0 0z"/>
  <path class="fil33" d="M4435 9421c-49,-472 -108,-809 -108,-809 0,0 -56,-46 -209,-290 -153,-245 0,-701 0,-701 -5,424 414,701 414,701 -31,378 -64,772 -97,1099z"/>
  <polygon class="fil4" points="6047,12304 6027,12415 5562,12415 5562,12312 "/>
  <polygon class="fil4" points="3640,12347 3595,12449 3171,12449 3179,12347 "/>
  <path class="fil4" d="M5704 5370c226,136 405,265 405,265l-163 348 -652 -114c0,0 57,-144 170,-323 114,-178 240,-176 240,-176z"/>
  <polygon class="fil30" points="6027,12415 5562,12415 5562,12312 6047,12304 6039,12348 "/>
  <polygon class="fil30" points="3595,12449 3171,12449 3179,12347 3640,12347 "/>
  <polygon class="fil7" points="3745,6649 4188,6733 4161,6844 3697,6751 "/>
  <polygon class="fil7" points="4262,6747 4807,6850 4797,6970 4238,6859 "/>
  <polygon class="fil7" points="5100,6906 5098,7030 4875,6985 4881,6864 "/>
  <path class="fil4" d="M3791 6613c0,0 285,-1351 577,-1644 0,0 741,-134 1336,401 0,0 -505,865 -629,1493l-1284 -250z"/>
  <path class="fil15" d="M4187 6753l-2 9 71 16 0 0 6 1c14,-1 26,-12 26,-27l-1 -7 -20 -74c-3,-13 -14,-20 -25,-20 -8,0 -15,3 -20,9l-51 59 0 0c-5,5 -7,11 -7,17 0,12 8,23 21,26l2 -9 2 -8c-5,-1 -7,-5 -7,-9l2 -5 0 0 51 -59 7 -3c3,0 7,2 8,6l20 75 0 2c0,5 -4,9 -8,9l-2 0 0 0 -71 -16 -2 8z"/>
  <path class="fil15" d="M4637 5455l-4 8 67 29c3,2 7,3 11,3 14,0 26,-12 26,-27l0 -1 -5 -78c-1,-14 -14,-24 -27,-24 -5,0 -11,1 -16,5l-61 48c-7,5 -10,13 -10,21 0,9 5,19 15,24l4 -8 3 -8c-3,-2 -5,-5 -5,-8l4 -7 61 -48 5 -2c5,0 9,4 9,8l5 78 0 0c0,5 -4,9 -8,9l-4 -1 -67 -29 -3 8z"/>
  <path class="fil7" d="M4643 5437c0,0 -208,387 -428,1179l85 25c0,0 222,-825 409,-1173l-66 -31z"/>
  <path class="fil15" d="M4246 6687l11 -50c1,-4 -2,-9 -7,-10 -4,-1 -9,2 -10,7l-11 50c-1,4 2,9 7,10 5,1 10,-2 10,-7z"/>
  <path class="fil15" d="M4213 6625l89 25c5,1 10,-2 11,-6 1,-5 -1,-10 -6,-11l-89 -25c-5,-2 -10,1 -11,6 -2,5 1,9 6,11z"/>
  <path class="fil7" d="M4709 5394c0,0 251,-205 630,-285l96 51c0,0 -255,39 -720,303l-6 -69z"/>
  <path class="fil7" d="M4643 5430l53 -37c0,0 5,-358 41,-441l-60 2c0,0 -47,238 -34,476z"/>
  <path class="fil4" d="M7379 5263l100 203 28 -25c0,0 250,-11 266,-40 16,-30 77,-323 36,-339 -41,-16 -356,92 -367,95 -12,3 -27,84 -27,84l-36 22z"/>
  <path class="fil4" d="M4101 4491l147 172 21 -34 69 -21 -28 -516c0,0 -135,81 -142,90 -7,10 -41,303 -41,303l-26 6z"/>
 </g>
</svg>
