<?xml version="1.0" encoding="UTF-8"?>
<!DOCTYPE svg PUBLIC "-//W3C//DTD SVG 1.1//EN" "http://www.w3.org/Graphics/SVG/1.1/DTD/svg11.dtd">
<!-- Creator: CorelDRAW X7 -->
<svg xmlns="http://www.w3.org/2000/svg" xml:space="preserve" width="103.717mm" height="96.5728mm" version="1.1" style="shape-rendering:geometricPrecision; text-rendering:geometricPrecision; image-rendering:optimizeQuality; fill-rule:evenodd; clip-rule:evenodd"
viewBox="0 0 10372 9657"
 xmlns:xlink="http://www.w3.org/1999/xlink">
 <defs>
  <style type="text/css">
   <![CDATA[
    .str1 {stroke:#A9ABAE;stroke-width:20}
    .str0 {stroke:#A9ABAE;stroke-width:7.62}
    .str2 {stroke:#00A859;stroke-width:7.62}
    .fil5 {fill:#FEFEFE}
    .fil15 {fill:#00A859}
    .fil17 {fill:#FEFEFE;fill-rule:nonzero}
    .fil4 {fill:#373435;fill-rule:nonzero}
    .fil14 {fill:#FBDB25;fill-rule:nonzero}
    .fil18 {fill:#7DB74D;fill-rule:nonzero}
    .fil13 {fill:#696A6A;fill-rule:nonzero}
    .fil12 {fill:#5D5D5E;fill-rule:nonzero}
    .fil9 {fill:#595A5A;fill-rule:nonzero}
    .fil8 {fill:#4D4C4E;fill-rule:nonzero}
    .fil11 {fill:#5193A8;fill-rule:nonzero}
    .fil19 {fill:#509A4E;fill-rule:nonzero}
    .fil7 {fill:#40869E;fill-rule:nonzero}
    .fil10 {fill:#2E7A93;fill-rule:nonzero}
    .fil6 {fill:#286B87;fill-rule:nonzero}
    .fil0 {fill:url(#id0)}
    .fil1 {fill:url(#id1)}
    .fil23 {fill:url(#id2)}
    .fil20 {fill:url(#id3)}
    .fil21 {fill:url(#id4)}
    .fil22 {fill:url(#id5)}
    .fil3 {fill:url(#id6)}
    .fil16 {fill:url(#id7)}
    .fil2 {fill:url(#id8)}
   ]]>
  </style>
  <linearGradient id="id0" gradientUnits="userSpaceOnUse" x1="2584.72" y1="1570.13" x2="4734.78" y2="1570.13">
   <stop offset="0" style="stop-opacity:1; stop-color:#8FC74A"/>
   <stop offset="1" style="stop-opacity:1; stop-color:#6B973D"/>
  </linearGradient>
  <linearGradient id="id1" gradientUnits="userSpaceOnUse" xlink:href="#id0" x1="3981.03" y1="1220.92" x2="7643.92" y2="1220.92">
  </linearGradient>
  <linearGradient id="id2" gradientUnits="userSpaceOnUse" xlink:href="#id0" x1="2436.41" y1="7931.09" x2="467.47" y2="5535.43">
  </linearGradient>
  <linearGradient id="id3" gradientUnits="userSpaceOnUse" xlink:href="#id0" x1="9472.4" y1="4573.74" x2="8701.7" y2="6504.68">
  </linearGradient>
  <linearGradient id="id4" gradientUnits="userSpaceOnUse" xlink:href="#id0" x1="9386.57" y1="6317.24" x2="8054.41" y2="9281.6">
  </linearGradient>
  <linearGradient id="id5" gradientUnits="userSpaceOnUse" xlink:href="#id0" x1="3154.36" y1="8854.28" x2="2235.38" y2="7153.44">
  </linearGradient>
  <radialGradient id="id6" gradientUnits="userSpaceOnUse" gradientTransform="matrix(0.999992 -0 -0 -0.999995 0 6577)" cx="2250.42" cy="3288.56" r="1026.75" fx="2250.42" fy="3288.56">
   <stop offset="0" style="stop-opacity:1; stop-color:#62BB51"/>
   <stop offset="1" style="stop-opacity:1; stop-color:#21974E"/>
  </radialGradient>
  <radialGradient id="id7" gradientUnits="userSpaceOnUse" gradientTransform="matrix(0.999969 -0 -0 -0.999967 0 16562)" cx="5312.27" cy="8281.34" r="1026.81" fx="5312.27" fy="8281.34">
   <stop offset="0" style="stop-opacity:1; stop-color:#4C3A31"/>
   <stop offset="0.541176" style="stop-opacity:1; stop-color:#6F5043"/>
   <stop offset="1" style="stop-opacity:1; stop-color:#48372F"/>
  </radialGradient>
  <radialGradient id="id8" gradientUnits="userSpaceOnUse" gradientTransform="matrix(0.999999 -0 -0 -0.999999 0 6577)" cx="8206.84" cy="3288.55" r="1026.78" fx="8206.84" fy="3288.55">
   <stop offset="0" style="stop-opacity:1; stop-color:#8FC74A"/>
   <stop offset="1" style="stop-opacity:1; stop-color:#6B973D"/>
  </radialGradient>
 </defs>
 <g id="Capa_x0020_1">
  <metadata id="CorelCorpID_0Corel-Layer"/>
  <g id="_2431241697712">
   <g>
    <path class="fil0" d="M2585 1649l615 -1162c0,0 476,-325 834,-175 358,150 701,905 701,905l-916 1651c-114,-623 -609,-1113 -1234,-1219z"/>
    <path class="fil1" d="M3981 61c487,-11 2036,-47 2036,-47 0,0 443,114 591,466 108,258 319,591 319,591l717 -229 -979 1586 -1846 -20 570 -336c0,0 -619,-1890 -1408,-2011z"/>
   </g>
   <path class="fil2" d="M9570 3289c0,753 -610,1363 -1363,1363 -753,0 -1364,-610 -1364,-1363 0,-753 611,-1364 1364,-1364 753,0 1363,611 1363,1364z"/>
   <path class="fil3" d="M3612 3289c0,752 -609,1361 -1362,1361 -752,0 -1361,-609 -1361,-1361 0,-753 609,-1362 1361,-1362 753,0 1362,609 1362,1362z"/>
   <g>
    <path class="fil4 str0" d="M3402 3215c-1,10 -2,19 -5,29 -3,10 -6,19 -10,29 -4,10 -8,19 -13,29 -2,5 -4,9 -6,13 -3,5 -6,9 -9,14 -3,4 -6,7 -10,11 -3,4 -7,7 -11,10 -4,3 -8,6 -12,8 -5,3 -11,6 -16,9 -9,3 -18,6 -27,9 -5,2 -11,4 -16,5 -3,1 -6,1 -10,2 -2,0 -5,1 -8,1 -11,2 -23,2 -34,4 -11,1 -22,3 -33,6 -4,1 -9,2 -14,3 -6,1 -12,3 -19,4 -5,2 -10,4 -15,6 -6,2 -11,5 -17,8 -10,4 -19,10 -29,15 -9,5 -19,10 -29,15 -4,2 -9,5 -14,8 -6,3 -11,6 -17,9 -10,6 -19,12 -29,17 -20,11 -41,22 -61,32 -10,5 -20,10 -30,15 -11,5 -21,11 -31,16 -10,6 -19,12 -29,17 -10,6 -20,11 -30,16 -20,12 -40,23 -60,34 -19,11 -37,22 -54,34 -9,6 -18,13 -27,19 -4,3 -8,6 -12,10 -4,3 -8,7 -12,11 -7,6 -14,12 -21,19 -4,4 -9,8 -13,12 -4,5 -8,9 -12,13 -7,8 -15,16 -22,25 -7,8 -13,16 -20,25 -10,13 -21,25 -31,38 -5,6 -11,12 -17,18 -3,2 -6,5 -9,7 -3,2 -5,4 -8,6 -9,7 -18,14 -28,20 -9,6 -18,12 -28,18 -18,11 -38,20 -57,28 -11,5 -23,10 -34,14 -11,5 -23,10 -34,15 -11,5 -22,10 -32,15 -11,5 -21,10 -31,15 -11,5 -22,11 -33,17 -9,6 -19,12 -29,18 -10,7 -21,14 -31,22 -9,6 -18,12 -27,18 -17,11 -33,21 -50,31 -4,3 -8,5 -12,7 -5,3 -10,5 -14,8 -9,4 -17,8 -26,12 -8,5 -17,9 -25,14 -4,2 -9,5 -13,7 -4,2 -9,5 -13,7 -8,4 -17,8 -25,12 -8,4 -16,8 -24,11 -3,1 -7,3 -10,4 -4,1 -8,2 -12,3 -8,1 -17,0 -25,0 -11,-1 -21,-2 -31,-4 -11,-1 -22,-3 -32,-5 -11,-2 -22,-4 -33,-6 -11,-2 -21,-4 -32,-7 -11,-2 -22,-5 -34,-8 -12,-3 -24,-5 -35,-8 -12,-4 -23,-7 -35,-11 -11,-3 -23,-6 -34,-9 -11,-4 -22,-8 -33,-12 -2,-1 -4,-2 -6,-3 -18,-7 -34,-16 -51,-25 -9,-4 -17,-9 -26,-13 -8,-5 -17,-10 -26,-15 -8,-5 -16,-10 -23,-15 -8,-5 -17,-10 -25,-15 -9,-6 -18,-11 -27,-17 -8,-5 -15,-10 -23,-16 -5,-4 -10,-8 -15,-13 -6,-5 -11,-10 -17,-16 -5,-5 -11,-11 -16,-16 -5,-5 -9,-11 -14,-16 -5,-6 -11,-12 -16,-17 -5,-5 -11,-10 -16,-15 -5,-5 -10,-10 -15,-16 -5,-5 -9,-10 -14,-16 -5,-6 -9,-13 -14,-20 -5,-7 -11,-15 -16,-22 -5,-8 -11,-15 -16,-23 -5,-7 -9,-15 -12,-23 -2,-5 -4,-10 -6,-16 -2,-6 -3,-12 -5,-18 -3,-12 -5,-24 -7,-36 -3,-11 -5,-23 -8,-35 -2,-11 -5,-22 -6,-33 -2,-11 -2,-22 -3,-34 0,-10 1,-21 1,-32 1,-6 1,-11 2,-16 0,-3 1,-6 1,-9 0,-1 0,-2 1,-3 0,-1 0,-3 0,-5 0,1 0,1 0,2 0,-1 0,-1 0,-2 0,-1 0,-2 1,-2 0,-4 1,-8 1,-12 1,-3 1,-6 2,-9 0,-1 0,-1 1,-2 6,-7 14,-14 21,-21 8,-7 16,-14 24,-22 8,-7 15,-15 22,-23 8,-8 15,-16 23,-24 8,-9 16,-17 23,-26 8,-9 16,-18 24,-27 16,-18 33,-35 50,-52 2,-3 4,-5 6,-7 0,4 0,7 0,11 -1,17 -1,35 -1,53 1,17 2,35 2,53 1,17 0,34 1,52 0,5 1,11 2,17 0,6 1,12 3,19 1,3 2,7 3,10 1,2 2,4 3,6 1,2 2,3 3,5 3,3 6,5 10,7 3,1 6,2 9,3 3,0 5,1 8,1 3,0 6,0 10,0 0,1 1,1 2,1 0,0 0,0 0,0 1,1 2,2 3,3 3,4 5,9 7,14 2,4 4,8 6,12 4,8 7,16 11,23 8,16 19,30 30,44 3,3 6,6 8,9 3,3 6,6 10,10 6,6 12,11 18,17 13,12 26,23 39,34 7,6 15,12 22,17 7,6 13,12 20,18 7,5 14,11 22,16 7,6 13,11 21,17 7,5 14,10 22,16 6,5 13,10 20,15 14,10 29,19 44,28 6,4 13,9 20,13 7,4 13,9 21,13 7,4 15,7 22,10 4,2 8,3 11,5 -1,6 2,11 8,13 10,3 19,7 29,10 8,3 15,6 23,8 8,3 17,6 25,8 10,2 19,3 28,4 3,1 5,1 7,1 9,2 17,3 25,4 7,1 14,1 20,2 4,1 8,2 12,3 4,1 9,2 13,3 8,2 16,4 24,6 10,1 20,2 30,1 4,0 8,0 12,0 5,-1 11,-1 16,-2 8,-2 17,-5 25,-8 4,-1 8,-2 12,-4 5,-1 9,-3 14,-4 1,0 2,-1 3,-2 0,0 0,0 1,0 1,1 2,0 3,0 1,-1 3,-1 4,-2 3,-1 5,-3 7,-5 3,-2 6,-5 9,-8 5,-5 9,-10 13,-16 1,-1 2,-2 2,-4 0,-1 0,-1 0,-2 0,0 0,-1 1,-1 0,0 1,0 2,-1 2,0 3,-1 4,-2 1,0 1,-1 2,-1 5,-1 11,-2 16,-3 9,-1 19,-2 28,-3 2,0 4,0 7,-1 2,0 4,0 6,-1 4,0 9,-1 13,-2 17,-4 35,-9 52,-13 18,-4 35,-8 52,-13 4,-1 8,-2 12,-3 4,-1 8,-2 12,-3 9,-3 17,-7 26,-11 8,-3 15,-7 22,-12 8,-5 15,-11 22,-17 6,-6 13,-12 19,-18 7,-6 13,-13 19,-19 10,-9 20,-18 30,-27 10,-8 19,-16 29,-24 6,-4 12,-9 19,-14 7,-5 14,-10 21,-15 6,-5 12,-10 18,-16 3,-2 6,-5 9,-8 1,-1 2,-2 3,-3 2,1 5,1 7,2 2,0 4,1 5,1 3,1 7,1 10,1 5,0 10,-2 14,-4 4,-1 8,-3 11,-5 7,-3 14,-7 21,-10 3,-2 6,-4 10,-6 3,-1 6,-3 10,-4 15,-7 31,-14 47,-21 8,-4 16,-7 23,-11 8,-4 16,-8 23,-11 13,-6 25,-12 38,-17 16,-7 32,-14 48,-21 16,-7 32,-15 49,-22 8,-4 16,-7 24,-11 8,-4 16,-7 24,-11 7,-4 14,-9 21,-14 7,-5 14,-11 22,-16 6,-5 13,-10 20,-15 8,-5 15,-10 23,-14 7,-5 14,-9 21,-14 8,-5 15,-10 22,-14 10,-6 20,-13 30,-19 9,-5 19,-10 30,-15 8,-3 17,-6 25,-9 4,-1 9,-3 13,-4 4,-1 8,-2 11,-3 2,0 5,0 7,0 1,0 2,0 3,-1 3,0 6,0 8,-1 3,-2 5,-4 6,-6 1,-2 2,-4 2,-5 4,-5 7,-10 11,-15 4,-6 9,-14 14,-21 4,-7 8,-14 13,-21 4,-7 8,-14 13,-21 4,-6 8,-12 13,-18 1,-1 1,-2 1,-3 2,0 4,0 6,-1 5,-1 10,-4 13,-7 2,-2 3,-4 4,-6 2,-4 3,-7 3,-10 1,-5 1,-10 0,-14 0,-9 0,-17 -1,-25 -1,-18 -3,-36 -4,-54 -1,-10 -1,-21 -2,-31 1,-1 1,-3 0,-5 0,-1 0,-1 -1,-2 0,-5 -1,-10 -2,-15 -1,-6 -2,-11 -3,-16 -1,-3 -1,-5 -1,-8 0,-3 1,-6 1,-9 1,-6 2,-12 2,-18 0,-7 0,-13 1,-20 0,-2 0,-4 0,-6 2,3 4,5 6,8 5,7 10,13 14,20 5,9 9,17 14,26 4,8 8,16 12,23 3,5 5,9 7,13 3,4 5,9 7,13 3,7 5,14 7,21 2,4 3,8 4,12 1,4 2,8 3,12 2,8 4,16 6,24 2,7 4,14 5,21 0,4 0,8 0,12 0,5 0,9 -1,13zm23 -13l0 -2c0,-2 0,-3 0,-5 0,-5 -1,-11 -2,-17 -1,-6 -2,-11 -3,-17 -3,-11 -6,-22 -8,-33 -3,-11 -6,-22 -10,-32 -3,-6 -5,-12 -8,-17 -2,-5 -5,-10 -8,-15 -5,-9 -10,-19 -14,-28 -5,-9 -10,-19 -15,-29 -4,-5 -7,-10 -11,-15 -5,-6 -10,-12 -15,-17 -4,-4 -8,-8 -12,-12 -5,-5 -10,-9 -14,-14 -5,-4 -10,-8 -15,-11 -6,-4 -11,-6 -17,-9 -6,-2 -12,-5 -18,-8 -5,-1 -10,-3 -15,-5 0,-3 -1,-5 -1,-7 -1,-4 -1,-8 -2,-12 -1,-9 -2,-18 -3,-27 -2,-8 -3,-15 -4,-23 -2,-8 -3,-17 -5,-26 -2,-8 -4,-17 -6,-25 -3,-9 -6,-17 -9,-26 -4,-8 -7,-16 -11,-23 -4,-8 -7,-15 -10,-22 -4,-8 -8,-16 -12,-24 -3,-8 -7,-15 -10,-23 -4,-8 -8,-16 -12,-24 -4,-8 -7,-16 -11,-23 -4,-8 -8,-15 -12,-23 -4,-7 -9,-15 -13,-22 -4,-7 -8,-14 -13,-21 -5,-7 -9,-15 -14,-22 -4,-7 -9,-15 -13,-22 -5,-7 -9,-14 -14,-21 -5,-7 -10,-14 -15,-21 -5,-7 -10,-15 -15,-22 -5,-8 -10,-15 -15,-22 -5,-6 -9,-13 -14,-19 -2,-4 -5,-7 -7,-10 -3,-3 -5,-6 -8,-9 -6,-6 -12,-11 -18,-16 -6,-6 -13,-11 -20,-16 -8,-7 -15,-13 -23,-19 -4,-3 -8,-7 -12,-10 -4,-3 -7,-7 -11,-10 -3,-3 -7,-6 -10,-9 -5,-4 -10,-8 -14,-11 -8,-6 -16,-12 -25,-18 -2,-3 -5,-5 -8,-7 -3,-3 -6,-7 -10,-9 -3,-3 -7,-6 -11,-9 -3,-2 -7,-4 -11,-6 -7,-4 -15,-7 -22,-11 -8,-4 -15,-7 -23,-10 -8,-4 -17,-8 -25,-11 -8,-4 -17,-7 -26,-10 -7,-3 -15,-5 -23,-8 -8,-2 -17,-4 -25,-5 -14,-2 -28,-4 -42,-5 -14,-2 -28,-3 -42,-5 -19,-2 -39,-5 -59,-5 -11,0 -22,-1 -34,-1 -10,0 -20,-1 -30,-3 -9,-1 -17,-2 -26,-4 -9,-2 -19,-3 -29,-4 -2,0 -4,0 -6,0l0 0 -2 0c-6,0 -12,1 -19,1 -9,1 -18,2 -27,3 -10,0 -20,1 -30,3 -9,1 -18,2 -27,4 -18,3 -36,7 -54,11 -9,2 -17,4 -26,5 -8,2 -17,4 -25,6 -9,2 -18,5 -26,8 -9,3 -17,6 -26,9 -8,3 -17,6 -25,9 -9,4 -18,8 -27,12 -17,8 -32,17 -48,26 -18,10 -37,20 -54,31 -10,6 -19,13 -28,19 -9,7 -18,14 -27,21 0,0 1,0 1,0 -14,11 -29,22 -43,32 -15,12 -30,23 -44,35 -7,6 -13,12 -20,18 -7,6 -13,12 -19,19 -13,13 -25,26 -37,39 -5,5 -11,10 -16,16 -6,6 -12,13 -18,20 -5,6 -10,12 -15,19 -5,7 -10,14 -15,21 -6,7 -11,13 -17,20 -6,7 -12,13 -18,20 -12,14 -24,28 -35,44 -5,8 -10,16 -15,24 -5,8 -10,16 -15,24 -5,8 -9,17 -14,25 -4,9 -8,17 -12,26 -4,8 -8,16 -12,24 -4,9 -7,17 -11,26 -3,8 -6,16 -9,25 -1,4 -3,9 -4,14 -2,4 -4,8 -5,12 -4,8 -7,17 -11,25 -3,9 -6,18 -9,27 -3,9 -6,17 -9,26 -2,9 -5,18 -8,27 -3,9 -6,17 -9,25 -3,9 -6,17 -10,26 -3,8 -6,17 -9,25 -4,9 -7,18 -10,27 -3,10 -6,21 -8,32 -2,11 -4,22 -5,33 -1,11 -2,22 -3,33 -1,11 -2,21 -3,31 -1,1 -2,2 -3,4 0,0 0,0 0,0 -2,-2 -3,-3 -5,-3 0,0 -1,0 -1,0 -7,1 -15,2 -23,5 -7,2 -14,5 -20,9 -2,0 -3,1 -5,2 0,0 -1,1 -2,1 -2,2 -5,4 -6,6 -3,4 -4,9 -5,13 -2,7 -4,13 -7,20 -2,7 -4,13 -6,20 -3,8 -5,16 -8,24 0,1 0,2 0,2 -7,7 -13,14 -19,21 -9,8 -17,17 -25,26 -8,8 -16,16 -24,25 -8,9 -15,18 -24,26 -7,8 -15,17 -23,25 -8,8 -15,16 -23,24 -4,4 -8,8 -11,11 -4,4 -8,7 -12,10 -8,8 -16,16 -24,24 -2,2 -4,4 -5,6 -2,2 -4,4 -6,6 -2,3 -3,7 -4,11 -1,3 -1,6 -2,9 -2,12 -3,23 -5,34 -3,24 -5,48 -3,72 0,11 2,22 5,33 2,10 4,21 7,31 2,11 4,21 7,32 2,12 5,23 8,35 3,11 8,21 13,32 5,10 11,18 17,27 7,10 13,19 20,28 6,10 12,19 19,28 4,5 8,9 11,14 5,4 9,9 13,13 8,8 16,16 24,23 8,8 16,17 23,26 9,9 18,18 27,26 17,16 35,31 55,43 10,7 20,13 31,20 10,6 20,12 29,18 10,6 19,12 29,17 10,6 20,12 30,17 11,5 21,10 31,16 11,5 21,10 32,15 11,4 22,8 34,12 10,3 22,6 33,9 11,3 22,7 33,10 12,3 24,6 36,9 11,2 22,5 34,7 11,3 21,5 32,7 11,2 22,4 33,6 12,2 23,4 34,5 12,2 23,3 35,4 6,1 12,1 19,1l0 0c4,0 7,0 10,0 6,-1 11,-2 17,-3 5,-2 10,-4 16,-6 10,-4 20,-9 30,-14 11,-4 21,-9 31,-15 5,-2 10,-5 15,-8 6,-2 11,-5 17,-8 10,-6 21,-11 31,-16 5,-2 10,-4 14,-7 6,-3 11,-6 16,-9 10,-6 20,-12 30,-18 11,-6 21,-13 31,-20 19,-13 38,-27 58,-39 11,-6 21,-12 32,-18 10,-5 21,-10 32,-15 21,-10 43,-20 65,-30 10,-4 21,-9 31,-13 20,-9 41,-17 60,-27 21,-10 40,-23 59,-36 9,-6 18,-13 27,-20 8,-7 16,-14 23,-22 7,-8 14,-16 21,-25 5,-6 9,-11 14,-17 0,0 0,0 1,0 2,2 5,2 8,2 8,-3 16,-6 23,-9 7,-3 13,-6 19,-9 16,-6 32,-12 48,-18 17,-7 34,-15 51,-22 15,-7 30,-14 45,-22 16,-7 32,-15 48,-22 3,-2 6,-3 9,-4 15,-7 31,-13 46,-18 9,-3 17,-6 25,-9 8,-3 16,-5 24,-8 3,-1 7,-3 10,-4 1,0 1,0 2,0 0,0 1,0 2,0 11,3 23,6 34,11 10,4 19,10 28,16 3,2 6,3 10,6 3,2 6,4 9,6 6,4 12,8 18,11 6,4 12,8 18,12 2,1 5,3 7,5 3,3 5,5 8,8 2,2 4,4 7,6 3,2 6,2 10,2 1,0 3,0 4,0 4,0 8,-1 12,-2 6,0 12,-1 18,-2 6,-1 12,-2 19,-3 2,0 4,-1 5,-3 3,-3 4,-6 4,-10 0,-2 0,-4 -1,-6 3,-1 6,-3 9,-5 7,-4 15,-9 22,-14 7,-6 14,-11 21,-17 7,-6 14,-13 20,-19 6,-6 12,-12 18,-19 3,-4 7,-7 10,-11 3,-4 6,-9 9,-13 10,-14 20,-29 28,-44 5,-8 8,-15 12,-23 4,-9 8,-18 11,-28 2,-4 3,-8 4,-12 1,-5 3,-9 4,-13 3,-8 5,-17 7,-25 3,-9 5,-17 6,-26 1,-4 2,-8 2,-12 1,-4 2,-9 3,-13 1,-7 2,-13 4,-20 0,-3 1,-6 2,-9 0,-2 0,-4 1,-5 0,-1 0,-2 0,-2 1,-3 1,-5 0,-8 3,-2 6,-5 10,-7 4,-4 9,-8 13,-13 4,-4 7,-9 10,-13 4,-5 6,-10 9,-15 5,-9 10,-19 14,-29 2,-5 4,-10 6,-14 2,-5 4,-11 6,-16 3,-11 6,-22 8,-33 1,-5 2,-11 3,-17 0,-3 1,-5 1,-8 0,-1 0,-2 0,-3zm-107 192c-2,8 -4,16 -5,24 -1,0 -1,-1 -1,-1 0,-1 0,-2 0,-3 -1,-2 -3,-5 -6,-6 -1,-1 -3,-2 -5,-2 -1,0 -2,1 -3,1 -2,0 -5,2 -6,5 -2,3 -3,7 -5,10 -1,4 -2,8 -1,11 1,5 4,9 9,10 4,1 8,1 11,-2 1,0 2,-1 3,-2 0,2 -1,4 -1,5 -2,9 -4,18 -7,27 -2,10 -5,19 -8,29 -1,5 -3,10 -5,15 -1,4 -3,8 -4,12 -3,7 -7,15 -11,22 -4,8 -8,15 -13,23 -9,14 -18,28 -29,42 -4,5 -8,10 -13,15 -5,5 -10,10 -15,15 -4,5 -9,10 -14,14 -5,4 -10,9 -15,13 -6,4 -12,9 -18,13 -6,4 -12,7 -19,10 -2,1 -4,2 -6,2 -1,0 -1,0 -2,0 0,0 0,0 0,0 -5,-2 -10,-5 -15,-9 -6,-5 -12,-10 -18,-15 -4,-4 -8,-7 -12,-10 -1,-2 -3,-3 -5,-4 -2,-2 -4,-3 -6,-4 -4,-3 -8,-5 -11,-7 -4,-2 -8,-4 -12,-6 -8,-4 -16,-8 -24,-12 -13,-7 -27,-13 -41,-18 -6,-3 -12,-5 -19,-7 1,-3 0,-6 -1,-9 -2,-2 -5,-4 -8,-5 -1,0 -2,-1 -3,-1 -2,0 -4,1 -6,2 -2,1 -4,2 -6,4 -1,-1 -1,-1 -1,-1 -3,-1 -6,0 -9,1 -2,2 -4,4 -5,7 -4,2 -9,4 -13,6 -15,6 -30,12 -44,17 -16,7 -31,13 -47,20 -7,3 -15,6 -23,9 -8,3 -17,6 -25,9 -17,6 -33,11 -49,17 -16,5 -32,11 -47,17 -6,3 -12,5 -18,7 4,-3 7,-6 11,-9 4,-4 8,-8 13,-11 8,-7 16,-13 24,-19 10,-7 20,-13 29,-20 19,-12 39,-23 58,-34 20,-11 41,-22 61,-33 10,-6 20,-12 30,-18 9,-5 19,-10 29,-15 20,-10 39,-19 58,-29 10,-5 19,-10 29,-16 9,-5 19,-10 28,-16 9,-5 19,-11 29,-16 9,-5 19,-10 28,-16 9,-5 19,-10 28,-15 8,-5 17,-9 26,-13 -2,7 -3,15 -4,23 0,1 0,3 1,4 -1,0 -1,1 -1,1 0,2 0,4 1,6 0,1 1,1 1,2 1,1 1,2 2,3 0,1 1,2 1,3 1,1 2,2 3,3 3,2 7,4 10,4 4,0 7,0 10,-1 3,-1 7,-2 10,-4 2,-1 4,-2 7,-3 3,-2 7,-4 10,-6 4,-2 8,-4 13,-7 7,-4 14,-9 21,-14 6,-4 12,-9 18,-14 3,-3 5,-5 8,-8 3,-3 6,-6 9,-10 0,-2 1,-3 1,-5 1,0 2,0 4,0 5,-1 11,-3 16,-5 10,-3 20,-6 29,-9 3,-2 6,-3 9,-4 -1,3 -2,7 -3,11zm-217 311c-3,1 -6,1 -9,2 -5,-5 -11,-9 -16,-13 -4,-3 -8,-6 -12,-9 -4,-3 -8,-5 -11,-7 -7,-5 -14,-9 -21,-14 -7,-4 -15,-8 -22,-13 -6,-3 -11,-6 -17,-9 -6,-3 -13,-5 -19,-8 -4,-1 -7,-2 -11,-3 -4,-1 -7,-2 -11,-3 -2,-1 -4,-2 -6,-2 0,0 0,0 0,0 -3,0 -6,0 -9,1 -2,0 -4,1 -6,2 -4,2 -8,3 -12,4 -2,1 -4,2 -6,2 5,-2 10,-4 15,-6 6,-3 12,-6 17,-9 13,5 25,9 37,14 15,8 31,16 46,24 8,4 16,8 24,13 7,3 15,8 21,13 1,0 2,1 3,2 7,6 15,11 22,17 1,0 3,1 4,2 -1,0 -1,0 -1,0zm-352 -2c-21,11 -42,20 -64,29 -14,6 -29,12 -43,18 -7,3 -14,6 -21,9 -6,3 -13,6 -20,9 3,-3 5,-6 8,-9 2,0 5,-1 6,-2 7,-5 14,-9 22,-14 7,-4 14,-8 22,-11 8,-3 16,-6 24,-9 8,-4 16,-7 24,-10 17,-6 34,-12 51,-17 4,-2 9,-4 14,-5 -8,4 -16,8 -23,12zm-1363 -469c2,-5 3,-11 5,-16 0,-1 1,-2 2,-3 0,0 0,-1 1,-1 3,-2 7,-4 10,-6 5,-2 10,-3 15,-5 5,-1 11,-2 16,-3 2,0 3,0 4,0 1,0 2,0 2,-1 1,0 2,0 3,-1 1,2 2,4 3,6 -2,1 -4,1 -5,2 -1,0 -2,1 -2,2 -2,1 -3,3 -3,5 -3,8 -5,16 -6,24 -2,9 -3,18 -5,26 -1,10 -2,19 -3,29 0,9 0,18 0,27 0,17 0,35 -1,52 0,8 -1,17 -2,25 0,9 -1,18 -1,26 0,7 0,14 0,21 0,6 0,12 1,19 0,7 0,14 1,21 0,3 0,6 1,9 0,2 0,4 0,5 0,1 0,2 0,3 1,1 1,2 1,3 0,1 1,3 2,4 0,2 3,3 5,3 2,0 5,-2 5,-5 1,0 1,-1 1,-2 0,-1 0,-2 1,-3 0,-1 0,-3 -1,-4 0,-3 0,-5 0,-7 0,-5 1,-9 1,-13 0,-10 1,-19 1,-28 1,-17 3,-35 5,-52 1,-9 2,-17 3,-26 1,-9 1,-17 2,-26 0,-18 0,-35 1,-53 0,-8 1,-15 2,-23 1,-8 2,-16 3,-24 1,-4 2,-8 3,-12 0,-1 0,-1 0,-1 3,6 6,13 8,19 8,16 17,31 24,46 2,5 4,10 6,15 0,-1 0,-1 -1,-2 8,17 15,34 22,51 7,16 15,32 23,48 8,16 16,31 26,45 9,15 18,30 28,45 11,15 21,30 33,44 11,13 22,27 34,40 5,7 11,14 17,20 6,7 12,14 18,20 12,13 25,26 39,38 5,5 11,9 17,13 6,4 11,8 17,12 6,4 11,7 17,11 3,2 5,3 8,5 4,2 8,4 12,5 1,0 2,0 3,0 0,7 0,14 1,20 0,6 0,12 0,18 0,4 0,8 0,11 0,4 0,7 0,11 0,6 -1,13 -1,20 -1,13 -2,26 -2,39 0,8 0,16 0,24 -2,-2 -4,-3 -7,-4 -7,-3 -15,-7 -22,-11 -7,-4 -14,-9 -22,-13 -7,-4 -14,-8 -21,-13 -7,-4 -14,-8 -22,-13 -7,-4 -14,-9 -21,-14 -7,-5 -14,-10 -21,-15 -7,-5 -15,-10 -22,-16 -6,-4 -12,-9 -18,-14 -7,-4 -13,-9 -19,-14 -7,-5 -14,-11 -20,-16 -7,-5 -13,-10 -20,-15 -13,-11 -27,-22 -39,-33 -7,-6 -13,-11 -20,-17 -6,-6 -12,-12 -17,-18 -4,-4 -7,-8 -11,-12 -5,-7 -9,-13 -14,-20 -4,-8 -8,-16 -12,-24 -3,-8 -7,-16 -11,-23 -2,-5 -4,-10 -7,-14 -1,-2 -3,-4 -4,-6 -2,-3 -5,-4 -8,-5 -4,-2 -9,-2 -14,-2 0,0 0,0 -1,-1 -3,0 -6,-1 -9,-2 -1,0 -3,-1 -4,-2 -1,-1 -2,-2 -2,-3 -1,-1 -2,-2 -3,-3 -2,-6 -3,-13 -4,-19 -1,-8 -2,-16 -2,-25 -1,-8 -1,-17 -1,-26 0,-9 0,-18 0,-27 -1,-9 -1,-17 -2,-26 -1,-17 -1,-34 -1,-52 0,-18 0,-37 1,-55 0,-9 0,-18 1,-28 0,-2 -2,-5 -4,-7 1,-2 2,-5 3,-7zm75 -83c1,-12 2,-23 3,-34 1,-4 2,-8 2,-12 1,-5 3,-10 4,-15 2,-9 4,-17 7,-25 6,-18 13,-36 20,-53 4,-8 7,-17 10,-25 4,-9 7,-17 10,-25 7,-18 12,-36 18,-54 2,-5 3,-10 5,-15 2,-6 5,-12 7,-17 3,-6 5,-13 8,-19 2,-4 3,-7 5,-11 2,-4 3,-8 4,-12 3,-7 5,-13 8,-20 2,-7 5,-14 8,-21 5,-13 11,-26 17,-38 3,-6 6,-12 9,-18 4,-7 7,-14 11,-21 4,-7 8,-14 12,-21 4,-6 8,-12 11,-18 4,-6 8,-13 13,-19 2,-4 4,-7 6,-10 2,-3 4,-5 6,-7 12,-16 25,-31 39,-46 6,-8 13,-16 19,-24 6,-9 12,-17 18,-25 5,-7 11,-14 16,-20 6,-7 12,-13 18,-19 7,-7 13,-13 19,-19 6,-7 12,-13 18,-19 6,-7 11,-13 18,-19 6,-6 13,-13 20,-19 13,-11 27,-22 41,-33 12,-9 24,-18 35,-27 13,-10 25,-20 37,-29 5,-4 10,-8 16,-12 6,-4 12,-9 19,-13 12,-8 24,-15 37,-22 12,-7 25,-14 38,-21 6,-3 12,-6 18,-9 6,-4 13,-7 19,-9 9,-4 17,-7 26,-10 8,-3 16,-5 25,-8 8,-4 17,-7 26,-9 8,-3 17,-5 26,-7 35,-7 70,-15 105,-20 3,0 7,-1 10,-1 18,-2 35,-3 52,-5 8,0 17,-1 25,-1 7,0 15,1 23,2 0,0 1,0 1,0 -5,1 -11,2 -16,4 -8,2 -16,4 -25,6 -4,1 -7,2 -11,3 -3,0 -5,1 -8,1 -8,2 -16,4 -24,6 -9,2 -18,4 -26,7 -17,4 -35,9 -52,14 -8,3 -17,6 -25,8 -8,3 -16,6 -24,9 -17,7 -34,14 -50,22 -17,8 -33,16 -49,25 -15,7 -30,17 -44,25 -16,9 -31,18 -46,28 -15,9 -30,19 -45,29 -14,9 -28,19 -42,29 -8,5 -15,11 -23,16 -7,5 -14,10 -21,15 -7,6 -14,12 -21,18 -7,5 -13,11 -20,18 -6,5 -12,11 -18,17 -6,6 -13,12 -19,18 -5,5 -10,10 -15,15 -3,3 -7,6 -10,9 -6,6 -11,11 -17,17 -3,3 -6,6 -8,9 -3,4 -6,7 -9,10 -3,4 -6,8 -9,12 -2,2 -4,4 -5,6 -10,11 -19,23 -29,34 -1,1 -2,3 -2,5 0,2 1,4 2,5 1,1 2,1 3,2 -1,1 -2,2 -2,3 -1,5 -1,11 -2,16 0,5 0,9 0,14 -1,8 -2,17 -2,25 0,9 -1,17 -1,26 0,4 0,9 0,13 0,5 0,9 1,13 0,4 0,7 1,10 0,0 0,1 0,1 0,2 0,3 0,5 1,2 1,5 1,8 0,2 1,4 1,7 1,2 2,4 2,5 1,1 2,2 3,3 1,1 2,2 3,2 3,2 7,2 10,0 0,0 0,0 0,0 9,5 17,9 26,13 0,0 0,0 1,0 0,0 0,0 0,0 7,5 15,9 22,13 2,1 4,2 6,3 1,0 1,0 1,0 0,0 0,0 0,0 1,1 1,1 2,2 1,0 3,1 4,1 2,0 4,-1 6,-3 1,0 1,-1 2,-2 1,-1 2,-3 3,-5 1,0 1,-1 1,-1 0,-1 1,-1 1,-1 2,-1 4,-3 5,-6 0,-1 0,-2 1,-3 0,-1 0,-2 0,-3 0,-1 0,-1 0,-1 1,-2 3,-3 4,-5 1,-2 2,-3 4,-5 3,-5 7,-10 11,-15 4,-4 8,-9 12,-13 8,-10 16,-21 24,-31 7,-10 14,-19 22,-28 7,-9 15,-18 23,-27 9,-9 18,-18 26,-27 8,-9 17,-18 25,-27 9,-9 17,-17 25,-26 8,-8 15,-17 23,-25 8,-9 17,-18 25,-27 8,-7 15,-13 22,-20 3,-2 7,-5 10,-7 8,-6 16,-12 24,-17 8,-6 16,-12 24,-17 9,-5 17,-10 26,-15 8,-5 17,-9 26,-14 9,-5 17,-9 26,-14 9,-4 17,-9 26,-13 9,-5 17,-10 26,-15 6,-3 12,-6 18,-9 6,-3 12,-6 18,-9 12,-6 24,-11 36,-16 5,-2 9,-4 13,-6 5,-1 10,-3 15,-5 9,-3 18,-7 28,-10 19,-6 38,-12 58,-16 8,-2 17,-4 26,-5 8,-2 17,-3 26,-5 9,-1 18,-2 28,-3 10,-1 20,-1 30,-2 9,0 19,-1 29,-1 10,0 20,0 30,0 6,0 11,0 17,0 7,0 13,0 19,0 7,1 13,1 20,2 14,1 28,3 42,5 9,1 18,2 26,3 9,1 17,1 25,2 5,1 10,2 15,3 6,1 12,2 18,3 12,3 23,5 35,9 12,4 23,7 34,12 11,4 22,8 33,13 9,3 19,7 29,11 2,1 4,2 7,3 3,1 7,2 11,2 2,0 4,-1 6,-3 3,3 7,5 10,8 5,4 9,8 14,12 4,4 8,8 12,12 4,4 7,8 10,12 3,3 5,7 8,11 -6,-2 -12,-4 -17,-6 -6,-1 -12,-3 -19,-4 -6,-1 -13,-2 -20,-3 -7,0 -13,0 -20,0 -6,0 -13,0 -19,0 -4,0 -9,0 -13,-1 -4,0 -8,-1 -12,-1 -6,-1 -13,-2 -19,-3 -7,-2 -14,-3 -20,-4 -7,-1 -14,-3 -21,-3 -7,-1 -13,-2 -19,-2 -7,-1 -13,-1 -20,-1 -2,0 -4,0 -7,0 -4,0 -8,0 -13,0 -13,0 -26,0 -40,1 -13,0 -26,1 -38,2 -14,1 -28,3 -42,5 -12,2 -25,5 -37,9 -13,3 -25,8 -38,12 -13,5 -26,10 -38,15 -13,5 -26,11 -39,17 -12,5 -24,11 -36,16 -13,6 -26,12 -39,18 -24,11 -48,24 -72,37 -11,6 -22,13 -33,20 -12,7 -23,15 -34,23 -5,3 -11,8 -16,12 -6,4 -12,9 -18,13 -10,9 -21,17 -31,26 -21,17 -42,34 -62,52 -20,17 -40,33 -59,52 -9,9 -19,18 -28,28 -9,10 -19,20 -28,30 -10,10 -19,21 -28,31 -8,10 -17,20 -25,30 -8,10 -17,21 -25,32 -9,12 -17,24 -25,35 -7,11 -15,23 -22,34 -3,5 -6,11 -10,17 -3,6 -6,12 -8,18 -6,13 -10,26 -15,39 -5,13 -9,26 -13,38 -2,7 -4,13 -6,19 -2,6 -4,12 -6,18 -4,13 -7,26 -10,40 -3,13 -5,26 -8,38 -2,7 -3,15 -5,22 -2,6 -3,12 -5,18 -3,13 -6,26 -8,39 -3,13 -5,26 -7,40 -5,26 -10,52 -14,79 -2,14 -5,28 -6,42 -1,14 -3,27 -4,40 -1,14 -2,28 -3,41 0,14 0,27 -1,40 -1,14 -1,28 -1,42 -1,7 0,14 0,21 1,8 2,16 3,24 0,1 0,2 0,2 0,2 1,3 2,4 1,1 3,2 5,2 2,0 4,-1 5,-2 1,-1 2,-2 2,-4 0,1 1,2 1,2 -1,2 -1,5 -1,7 -1,5 0,10 0,15 1,4 1,9 2,13 -3,-2 -6,-4 -9,-6 -9,-6 -18,-12 -26,-19 -7,-5 -13,-10 -19,-16 -7,-6 -13,-12 -19,-19 -7,-7 -13,-13 -19,-20 -6,-6 -12,-13 -17,-20 -8,-9 -15,-18 -23,-26 -7,-9 -14,-17 -20,-26 -10,-13 -20,-26 -29,-40 -10,-16 -20,-31 -29,-47 -18,-30 -34,-61 -48,-93 -7,-17 -14,-33 -22,-49 -3,-8 -7,-16 -11,-24 -4,-8 -9,-16 -13,-23 -5,-11 -10,-21 -15,-32 -1,-3 -3,-7 -4,-10 -2,-6 -4,-12 -6,-18 -1,-3 -3,-6 -5,-7 -1,0 -2,-1 -3,-1 1,-11 3,-21 4,-31zm331 -415c0,2 0,4 0,6 0,5 0,9 0,13 0,9 1,18 1,27 1,6 1,11 0,17 -2,-2 -4,-3 -7,-5 -4,-2 -9,-5 -14,-8 -4,-3 -9,-6 -13,-9 -4,-3 -8,-5 -11,-8 -4,-3 -8,-7 -12,-11 0,0 0,0 0,0 0,-3 -1,-5 -1,-7 0,-2 0,-3 0,-4 1,-4 1,-9 2,-13 0,-4 0,-9 0,-13 0,-8 -1,-17 -1,-25 0,-9 -1,-18 -1,-27 1,-4 1,-9 1,-14 0,-2 0,-5 0,-7 4,3 7,5 10,8 6,5 13,10 20,15 5,3 10,6 16,9 4,2 9,4 14,6 0,1 0,2 0,3 -1,2 -1,3 -1,5 -1,3 -1,6 -2,9 0,5 -1,9 -1,14 0,4 0,9 0,13 -1,2 0,4 0,6zm667 -516c6,-1 12,-2 18,-3 2,-1 3,-2 4,-3 2,-2 3,-4 3,-7 0,0 0,-1 0,-2 0,0 0,0 0,0 6,0 11,1 16,1 13,1 25,1 37,1 12,1 24,2 35,4 8,1 15,2 22,3 8,1 16,2 24,2 15,1 31,3 46,5 3,0 6,1 8,1 4,1 7,2 11,2 6,2 12,4 18,5 6,2 12,4 18,7 6,2 12,4 17,6 8,3 15,7 22,10 8,3 15,7 22,10 6,3 12,6 17,9 -2,-1 -5,-2 -7,-3 -10,-3 -21,-5 -32,-6 -10,-1 -21,-1 -31,-2 -10,0 -20,-1 -31,-2 -21,-2 -43,-2 -64,-2 -4,-1 -8,-1 -12,-1 -6,-1 -11,-1 -16,-2 -6,0 -11,-1 -16,-1 -6,-1 -11,-1 -17,-1 -5,0 -11,0 -16,0 -12,1 -23,1 -34,3 -11,1 -23,3 -34,5 -6,1 -11,3 -16,4 -5,1 -10,2 -15,4 -10,3 -21,6 -31,10 -11,3 -23,7 -34,11 -20,6 -41,14 -61,22 -21,9 -43,17 -64,27 -20,10 -39,21 -58,33 -8,5 -17,10 -25,15 -7,4 -15,8 -22,11 -19,10 -38,21 -57,32 -19,11 -37,23 -56,35 -9,6 -18,12 -27,18 -9,6 -19,12 -28,18 -9,6 -17,12 -26,19 -9,7 -18,14 -26,22 -8,7 -15,14 -23,22 -8,7 -16,15 -24,23 -15,14 -29,30 -43,46 -6,8 -12,16 -18,25 -2,2 -3,4 -5,6 -3,4 -5,7 -8,11 -2,-1 -4,-2 -6,-3 0,0 0,0 0,0 -4,-1 -8,-3 -11,-4 -5,-3 -10,-5 -14,-7 -3,-2 -7,-4 -10,-6 -5,-3 -10,-6 -14,-10 -8,-6 -15,-12 -22,-18 0,-1 -2,-2 -3,-3 3,-3 5,-6 8,-8 6,-7 12,-14 18,-21 12,-13 23,-25 36,-38 12,-13 25,-25 38,-38 7,-5 13,-11 19,-17 6,-5 12,-11 18,-16 3,-3 6,-5 10,-7 6,-5 13,-10 20,-14 13,-10 27,-19 40,-27 14,-10 28,-19 42,-28 13,-9 26,-18 39,-27 10,-6 20,-12 29,-19 10,-5 19,-10 28,-15 7,-5 15,-9 22,-13 8,-4 15,-9 23,-12 16,-8 33,-16 49,-24 9,-4 18,-8 26,-12 17,-6 33,-12 50,-18 16,-5 33,-10 49,-14 17,-5 34,-10 52,-15 8,-2 16,-4 25,-5 8,-2 16,-4 24,-6 12,-2 24,-3 35,-5 7,-1 13,-2 19,-3zm347 79c3,0 6,1 9,1 1,0 3,-1 5,-2 0,0 0,0 1,1 6,1 13,3 19,5 1,0 2,0 2,0 4,4 9,7 13,10 6,5 13,10 19,15 5,4 9,8 14,12 3,3 7,6 10,9 -9,-4 -18,-7 -26,-11 -11,-4 -22,-8 -33,-12 -12,-3 -24,-6 -36,-8 -12,-3 -24,-4 -36,-6 -12,-2 -25,-2 -38,-3 -12,-1 -24,-3 -37,-4 -12,-1 -24,-2 -36,-3 -6,-1 -12,-1 -18,-1 -6,0 -11,0 -17,0 -12,0 -23,1 -35,1 -25,0 -49,2 -74,3 -12,0 -24,1 -36,3 -12,2 -24,4 -36,7 -11,2 -22,5 -33,9 -12,3 -23,7 -34,11 -10,3 -20,6 -30,10 -9,4 -19,8 -28,11 -10,4 -20,8 -30,12 -9,4 -19,7 -28,11 -6,3 -12,5 -18,8 -5,3 -10,5 -15,8 -11,6 -22,12 -32,17 -10,6 -21,12 -31,18 -10,6 -20,12 -30,18 -10,7 -20,13 -29,20 -10,8 -20,16 -29,24 -8,6 -15,13 -22,20 -4,3 -8,6 -11,8 -8,6 -16,13 -23,19 -15,14 -28,28 -42,43 -6,7 -13,14 -19,21 -7,8 -14,16 -20,24 -13,16 -26,31 -39,46 -6,7 -12,14 -19,22 -6,8 -13,15 -20,23 -3,4 -6,8 -9,12 -4,5 -7,9 -10,13 -6,8 -12,15 -17,23 -2,4 -4,7 -7,11 0,-1 0,-2 0,-3 -1,-8 -1,-16 -1,-24 0,-5 0,-9 0,-13 0,-5 0,-10 0,-14 0,-5 1,-9 1,-13 7,-10 14,-19 21,-29 8,-10 15,-20 22,-30 14,-16 29,-31 44,-46 7,-7 15,-14 23,-21 8,-8 16,-15 24,-22 8,-8 17,-15 25,-21 8,-6 16,-12 24,-18 9,-6 19,-12 28,-18 18,-12 36,-23 55,-35 9,-6 19,-12 29,-18 9,-5 19,-11 28,-16 19,-11 39,-20 58,-30 19,-10 38,-20 57,-30 19,-10 39,-21 59,-31 7,-3 15,-6 22,-10 10,-4 20,-7 31,-11 9,-3 19,-6 29,-9 11,-3 22,-6 33,-9 10,-3 21,-6 31,-8 13,-3 27,-5 41,-7 10,-2 21,-3 31,-4 10,-1 21,-3 31,-4 22,-1 43,-1 65,-2 21,0 43,0 64,2 11,1 22,1 32,2 10,1 21,1 31,2 5,0 10,1 16,1 7,1 14,3 20,5 4,1 8,2 11,3 2,1 4,1 6,2zm195 166c5,3 10,6 15,9 3,2 6,5 8,7 2,1 3,2 4,3 2,3 4,6 6,8 5,7 10,14 15,21 4,7 9,14 13,21 5,7 10,15 15,23 2,3 4,6 6,10 -4,-4 -8,-8 -12,-12 -5,-4 -9,-8 -13,-11 -10,-8 -19,-17 -28,-27 -5,-5 -9,-10 -14,-15 -4,-5 -8,-10 -13,-14 -3,-2 -5,-5 -8,-7 -3,-2 -6,-4 -9,-6 -5,-3 -11,-6 -17,-9 -6,-3 -13,-6 -20,-8 -6,-2 -12,-4 -19,-5 -4,-1 -9,-2 -13,-3 5,-1 10,-1 16,-1 5,1 11,1 17,2 4,0 7,1 11,2 5,1 9,2 14,3 9,3 17,6 26,9zm-1197 1076c0,6 0,13 -1,19 0,5 0,10 -1,14 0,5 0,9 -1,14 0,10 -2,20 -3,30 0,1 1,3 3,3 0,1 0,1 0,2 0,0 0,0 0,1 -1,0 -2,0 -3,1 -3,2 -5,4 -6,8 0,0 0,0 0,0 -1,-5 -2,-11 -2,-16 0,-4 -1,-7 -1,-11 0,-3 0,-7 0,-11 0,-3 0,-6 0,-10 0,-3 1,-6 1,-9 0,-7 1,-14 1,-21 1,-13 1,-26 2,-39 1,-14 2,-28 4,-42 1,-9 2,-18 3,-27 1,-9 2,-18 3,-28 4,-27 9,-53 14,-80 2,-14 4,-27 6,-40 3,-13 5,-25 7,-37 1,-7 2,-14 4,-21 2,-7 3,-14 5,-21 3,-13 5,-25 8,-38 1,-7 2,-14 3,-21 1,-6 3,-13 4,-19 3,-13 6,-26 10,-39 3,-9 6,-17 9,-26 2,-8 5,-17 8,-26 3,-8 6,-17 10,-25 3,-9 6,-17 9,-25 1,-3 3,-5 4,-8 1,-2 2,-4 3,-6 3,-6 6,-11 10,-16 2,-4 4,-8 7,-12 3,-5 6,-10 10,-14 6,-10 12,-19 18,-28 7,-8 13,-17 20,-26 8,-10 16,-20 24,-30 9,-11 19,-22 28,-32 17,-21 36,-40 55,-59 19,-19 39,-36 58,-53 11,-9 22,-18 33,-27 9,-9 19,-17 29,-25 18,-15 36,-30 55,-44 11,-9 22,-17 33,-25 11,-7 21,-14 32,-20 6,-4 12,-8 18,-11 6,-3 12,-7 19,-10 11,-6 23,-12 34,-18 11,-5 22,-10 34,-15 11,-5 22,-10 33,-15 21,-10 43,-20 65,-29 21,-9 42,-17 64,-24 10,-3 20,-6 30,-9 6,-1 12,-3 17,-4 5,-1 10,-1 15,-2 13,-2 25,-3 38,-4 13,-1 26,-1 39,-1 14,0 27,0 40,0 7,0 14,0 20,0 7,0 13,1 20,2 3,0 6,1 9,1 6,1 11,2 17,3 5,1 11,1 16,2 2,1 4,1 6,1 -1,0 -2,0 -3,0 -14,1 -28,1 -42,2 -14,0 -28,1 -41,2 -14,1 -28,2 -42,3 -14,0 -27,1 -41,3 -7,0 -14,1 -21,2 -7,2 -14,3 -21,4 -13,3 -26,6 -38,9 -4,1 -7,2 -11,3 -3,1 -6,2 -9,3 -7,2 -13,4 -20,6 -13,4 -26,9 -39,14 -7,3 -14,6 -22,9 -6,3 -11,6 -17,8 -13,7 -26,13 -38,19 -13,7 -25,14 -38,21 -12,6 -23,13 -35,20 -12,7 -24,14 -36,21 -12,7 -24,14 -36,21 -11,8 -23,15 -34,24 -12,9 -23,18 -35,27 -11,9 -22,18 -33,28 -10,8 -21,17 -31,26 -11,9 -21,19 -32,29 -5,5 -10,9 -14,13 -6,5 -11,10 -16,16 -2,2 -5,5 -7,8 -2,2 -4,4 -6,7 -5,5 -10,11 -14,17 -9,10 -18,21 -26,32 -17,22 -33,45 -49,69 -16,23 -32,47 -47,71 -16,24 -30,48 -43,72 -3,6 -7,12 -10,18 -3,5 -6,11 -9,17 -1,3 -3,7 -5,11 -2,3 -3,6 -4,9 -3,7 -6,13 -9,20 -1,3 -2,7 -4,10 -1,4 -2,7 -3,10 -2,6 -5,12 -7,18 -2,8 -4,15 -7,22 0,3 -1,6 -2,8 -1,4 -2,7 -3,10 -2,8 -3,15 -5,22 -1,7 -3,13 -4,19 -3,14 -6,28 -9,42 -2,7 -3,14 -5,20 -2,8 -3,15 -4,22 -3,13 -5,27 -7,41 -1,8 -2,16 -3,24 -2,14 -4,27 -6,41 -2,14 -3,28 -4,42 -1,7 -1,14 -2,21 0,7 0,14 0,21 -1,7 0,14 0,21zm285 185c-2,0 -4,0 -5,0 -9,-1 -17,-1 -26,-1 -8,0 -17,-1 -25,-1 -9,-1 -18,-1 -27,-1 -17,-1 -34,-1 -51,-1 -7,-1 -14,-1 -22,-2 -8,-1 -16,-2 -24,-3 -4,0 -7,0 -10,-1 -3,-1 -5,-1 -8,-2 -1,0 -3,-1 -5,-1 -8,-2 -15,-5 -23,-8 -16,-5 -32,-11 -47,-17 -3,-9 -5,-17 -6,-26 0,-3 -1,-6 -1,-9 1,0 1,0 1,0 0,0 0,0 1,-1 1,1 2,1 3,1 4,2 8,3 11,4 5,2 9,4 13,6 4,1 8,3 12,4 8,2 16,5 25,6 9,2 17,3 26,5 9,1 17,3 26,5 4,1 8,2 12,3 4,1 8,2 12,3 10,2 19,4 29,4 8,0 17,0 26,0 9,0 18,0 27,-1 8,0 17,-1 25,-1 19,-2 38,-4 56,-7 5,0 10,-1 14,-2 -4,5 -8,9 -13,14 -8,10 -17,20 -26,30zm-268 18c0,-5 0,-11 0,-17 0,-8 0,-16 -1,-23 14,5 28,10 41,16 4,1 8,2 12,4 4,2 9,3 13,5 2,0 4,1 6,1 2,1 4,1 6,1 4,1 9,2 14,3 9,1 18,3 28,4 8,1 17,2 25,2 9,0 19,1 28,1 9,0 17,1 26,1 15,1 30,3 46,3 7,1 14,1 22,1 3,0 7,1 10,1 1,0 2,0 2,0 0,0 0,1 0,2 0,0 0,1 1,2 0,1 0,3 0,4 1,9 2,18 3,27 0,8 0,16 1,23 0,9 1,17 1,26 0,8 1,16 1,24 0,4 1,8 1,12 1,5 2,9 3,13 0,4 1,7 2,10 -15,2 -29,7 -44,9 -7,1 -14,1 -22,1 -7,1 -15,0 -23,-1 -8,-1 -15,-3 -22,-4 -10,-2 -19,-4 -29,-5 -8,0 -17,0 -25,-1 -9,0 -18,-1 -26,-1 -8,-1 -16,-2 -24,-3 -3,0 -6,0 -9,-1 -3,-1 -7,-2 -10,-3 -8,-2 -15,-4 -22,-6 -6,-2 -12,-5 -18,-7 -4,-1 -8,-2 -11,-4 0,0 0,0 0,0 -1,-3 -3,-5 -5,-6 -1,-1 -2,-1 -3,-2 0,-1 0,-1 0,-2 0,-3 0,-6 0,-9 0,-7 0,-14 0,-20 0,-13 1,-26 1,-39 1,-7 1,-13 1,-20 0,-3 0,-7 0,-10 1,-4 0,-8 0,-12zm320 123c0,0 0,0 0,0 -4,6 -9,11 -13,17 0,-1 -1,-2 -1,-3 0,0 0,-1 0,-1 0,-5 -1,-10 -1,-15 -1,-11 -2,-22 -4,-32 0,-4 -1,-9 -1,-13 -1,-6 -2,-12 -2,-18 -1,-9 -2,-18 -2,-26 -1,-11 -3,-22 -4,-32 1,-1 1,-2 2,-2 0,-1 0,-1 0,-1 2,0 4,0 5,-2 4,-5 8,-9 13,-14 4,-5 9,-9 12,-14 1,-2 1,-4 1,-5 0,0 0,0 0,0 0,2 0,5 0,8 0,3 0,6 0,9 1,7 1,14 2,21 1,6 1,12 2,19 1,13 1,26 1,39 0,6 0,13 0,19 1,7 1,14 2,21 1,2 1,5 1,8 1,0 1,0 1,1 -1,0 -2,1 -2,2 -2,1 -3,3 -4,4 -1,0 -2,0 -3,1 -1,0 -3,2 -4,3 -1,2 -1,4 -1,6zm954 -1261c0,0 0,0 1,1 1,2 4,3 7,3 1,0 3,-1 5,-2 4,8 9,16 13,24 3,5 6,11 9,17 3,6 5,12 8,18 12,22 22,45 33,68 3,8 6,16 9,23 3,9 6,17 9,26 3,9 5,19 8,29 1,8 3,17 4,25 2,16 3,31 5,46 0,7 1,14 2,21 -1,2 -1,4 -1,6 1,2 1,3 2,4 0,1 0,1 0,1 -2,1 -4,4 -4,7 1,18 2,36 3,55 0,9 1,18 1,26 0,5 0,9 0,13 0,5 0,9 -1,13 0,3 -1,7 -1,10 -1,4 -2,8 -3,12 -2,9 -4,18 -4,27 -1,9 0,18 2,27 0,1 0,1 0,2 0,0 0,1 -1,1 -1,2 -1,4 0,6 0,2 1,3 3,4 0,0 0,1 0,1 1,4 2,8 3,12 0,0 0,0 0,1 0,0 0,1 0,1 0,1 0,1 0,2 -1,2 -2,3 -3,5 -2,2 -4,4 -5,6 -2,1 -3,3 -5,4 -2,1 -4,3 -6,4 -2,1 -5,3 -7,4 -2,0 -4,1 -6,1 -2,1 -4,1 -6,2 -4,0 -7,0 -10,0 -5,-1 -10,-2 -14,-4 -6,-2 -12,-3 -18,-4 -4,0 -9,1 -13,2 -4,1 -8,3 -12,5 -3,1 -7,3 -11,5 -8,4 -16,8 -24,12 -7,3 -15,7 -23,10 -8,3 -15,6 -22,9 -9,4 -18,7 -26,12 -8,4 -17,9 -25,13 -7,4 -14,8 -22,12 -8,4 -15,8 -23,12 -8,4 -16,8 -24,13 -7,4 -15,8 -22,13 -8,4 -16,8 -23,13 -8,4 -16,9 -24,13 -8,4 -15,8 -23,12 -7,5 -15,9 -23,14 -7,4 -15,8 -23,11 -12,6 -25,12 -37,18 -11,5 -23,11 -35,16 -8,3 -15,6 -23,9 -8,3 -16,7 -25,9 -8,3 -17,5 -25,8 -4,1 -8,2 -13,4 -4,1 -8,1 -13,2 -8,2 -16,4 -25,7 -3,1 -7,2 -10,3 -1,-1 -2,-1 -3,-1 -1,-1 -2,-1 -2,-1 -2,0 -4,1 -5,2 -1,0 -2,1 -2,1 -1,1 -2,3 -3,4 0,0 0,1 0,1 -4,2 -6,7 -5,12 1,1 1,3 3,4 0,1 0,1 -1,2 0,2 0,3 1,5 0,3 0,5 1,8 0,0 0,1 0,1 -15,10 -29,20 -43,31 -15,11 -29,23 -43,34 -3,2 -6,5 -8,7 -7,5 -13,9 -20,14 -6,4 -13,9 -20,14 -8,5 -15,11 -23,17 -6,5 -12,10 -18,15 -14,10 -28,20 -42,31 -7,5 -15,11 -22,17 -6,6 -12,11 -19,17 -3,3 -6,6 -10,8 -5,4 -11,8 -17,11 -6,2 -12,3 -18,4 -15,2 -30,2 -45,2 -8,1 -15,1 -22,2 0,-1 -1,-1 -1,-2 -1,-2 -2,-3 -4,-3 -1,0 -2,-1 -2,-1 -2,0 -3,1 -4,1 -1,1 -2,1 -3,2 0,-1 0,-2 0,-3 -1,-1 -1,-2 -2,-3 -1,-2 -2,-2 -3,-4 -3,-1 -6,-2 -8,-2 -5,0 -9,0 -13,0 -9,0 -17,1 -26,2 -17,1 -35,3 -53,4 -7,1 -15,1 -23,2 -8,1 -16,1 -24,1 -7,0 -15,0 -22,0 -4,0 -8,0 -11,-1 -3,0 -6,0 -10,-1 -8,-1 -16,-3 -24,-5 -9,-2 -17,-4 -26,-5 -9,-2 -17,-3 -26,-5 -9,-1 -17,-3 -25,-6 -5,-1 -10,-3 -15,-5 -6,-3 -11,-6 -17,-8 -7,-3 -14,-6 -20,-7 0,-5 1,-9 1,-14 1,0 1,-1 1,-1 0,-1 -1,-1 -1,-2 -1,-1 -1,-2 -3,-2 0,0 0,0 0,0 1,-11 2,-21 3,-32 1,-7 1,-15 1,-22 1,-7 1,-13 1,-20 0,-7 1,-14 1,-21 1,-7 1,-14 2,-20 1,-13 3,-27 4,-40 1,-7 3,-14 4,-20 1,-7 2,-14 3,-21 3,-14 4,-28 6,-42 2,-13 5,-26 8,-39 2,-14 6,-27 9,-41 3,-13 6,-26 9,-39 1,-8 3,-16 4,-23 1,-3 2,-6 3,-9 0,-3 1,-6 2,-9 4,-14 8,-27 12,-40 5,-14 10,-27 15,-40 1,-3 2,-6 3,-8 3,-6 6,-12 8,-18 4,-7 7,-13 11,-20 5,-12 12,-23 18,-35 7,-12 14,-24 21,-36 7,-12 15,-24 22,-36 14,-21 28,-43 43,-65 7,-11 15,-21 22,-32 4,-5 8,-11 12,-16 4,-5 8,-11 12,-16 8,-10 17,-21 25,-31 9,-11 18,-21 28,-31 3,-3 5,-5 8,-8 3,-3 6,-6 9,-8 5,-5 10,-9 15,-14 10,-9 20,-18 30,-27 23,-19 46,-38 70,-56 11,-9 22,-17 33,-25 6,-5 12,-9 18,-13 3,-1 5,-3 7,-4 3,-2 6,-4 9,-5 6,-4 12,-8 18,-11 7,-4 14,-8 21,-12 12,-6 23,-13 35,-20 20,-12 40,-23 60,-34 11,-6 23,-11 34,-17 10,-5 20,-9 30,-14 6,-2 12,-5 18,-7 7,-2 13,-5 20,-7 6,-2 12,-3 17,-5 7,-3 14,-5 21,-7 6,-2 12,-3 18,-4 6,-2 13,-3 19,-5 13,-2 26,-5 39,-7 13,-2 26,-3 40,-3 13,-1 27,-2 40,-2 14,-1 28,-2 42,-2 7,0 14,0 21,0 7,0 14,-1 21,-1 10,0 20,0 30,0 10,0 19,1 28,2 2,0 4,1 7,1 3,1 5,2 8,3 6,1 11,2 17,4 10,2 20,5 30,9 6,3 12,6 18,8 3,2 6,4 10,6 2,1 5,3 7,5 5,4 9,8 13,13 5,5 10,10 15,15 4,4 8,9 13,13 5,4 9,9 14,13 5,3 9,7 14,11 4,4 9,9 13,13 4,4 9,8 13,12 4,4 8,8 12,13zm-461 877c1,-1 1,-2 1,-3 8,-3 16,-5 25,-7 8,-3 16,-6 24,-10 9,-4 17,-8 26,-11 16,-8 31,-14 47,-22 16,-7 33,-14 49,-22 16,-7 33,-16 49,-23 8,-4 15,-7 23,-10 8,-4 17,-8 25,-11 16,-8 32,-14 48,-22 16,-8 31,-17 46,-26 15,-10 31,-20 45,-31 6,-5 13,-11 19,-16 6,-6 13,-12 19,-18 3,-3 7,-7 10,-10 0,2 0,3 0,4 1,8 2,16 3,24 1,4 1,7 1,11 1,4 1,8 1,12 0,4 1,9 1,13 -1,0 -2,0 -3,1 -5,1 -8,6 -6,11 0,3 2,5 4,6 2,1 4,1 6,1 1,6 1,12 2,19 0,4 1,8 1,12 1,4 1,8 1,11 1,3 1,5 1,7 1,1 1,2 2,3 -1,0 -1,0 -1,1 -7,4 -14,8 -21,13 -8,4 -15,9 -22,14 -8,4 -16,9 -23,14 -15,9 -29,20 -42,30 -7,5 -14,10 -22,15 -7,5 -14,9 -22,13 -7,4 -15,8 -23,12 -7,4 -15,8 -23,12 -17,8 -33,16 -49,24 -16,8 -32,15 -48,22 -7,4 -15,8 -22,11 -9,4 -17,9 -25,13 -7,4 -15,7 -22,11 -8,4 -15,8 -23,11 -8,4 -16,7 -24,11 -4,1 -8,3 -11,5 -4,2 -8,4 -12,7 -8,4 -16,9 -25,13 0,0 0,0 0,0 0,-1 0,-2 -1,-3 0,-2 0,-4 -1,-6 0,-7 -1,-13 -2,-20 -1,-5 -2,-11 -3,-17 -1,-8 -1,-16 -1,-24 0,-8 0,-16 -1,-24 0,-9 -1,-18 -2,-26 0,-8 0,-15 -1,-23 1,0 1,-1 2,-2zm427 -281c0,0 0,-1 1,-1 0,1 0,1 0,2 0,-1 -1,-1 -1,-1zm-439 258c-2,0 -5,1 -7,2 -3,-1 -6,-2 -9,-4 -4,-1 -8,-3 -12,-5 -7,-3 -15,-6 -21,-11 -1,-1 -2,-1 -2,-2 -2,-2 -5,-3 -8,-3 -1,0 -2,0 -3,0 0,0 0,0 0,0 0,-1 0,-2 0,-3 1,0 2,-1 4,-1 4,-1 8,-3 12,-4 8,-3 17,-5 25,-7 5,-1 9,-2 13,-3 4,-1 9,-2 13,-4 8,-2 16,-4 24,-7 8,-3 17,-7 25,-10 8,-4 17,-7 25,-10 16,-7 32,-14 48,-22 9,-4 17,-8 26,-12 8,-4 15,-8 23,-12 8,-4 15,-8 22,-13 8,-4 16,-8 23,-12 16,-9 31,-18 47,-27 7,-4 15,-8 22,-12 8,-5 16,-10 24,-14 8,-4 16,-7 23,-11 8,-4 15,-8 22,-13 9,-4 17,-9 25,-13 8,-4 16,-8 23,-11 6,-3 12,-5 18,-8 -1,2 -1,5 0,7 0,2 2,5 5,6 6,3 13,6 20,9 -5,4 -10,8 -15,12 -5,5 -10,9 -15,13 -4,3 -8,7 -13,10 -13,10 -28,19 -42,28 -8,4 -16,9 -24,14 -7,4 -15,8 -22,12 -16,8 -31,15 -47,23 -16,7 -32,15 -48,22 -16,9 -32,17 -49,26 -15,8 -31,15 -46,23 -15,7 -29,14 -44,21 -7,4 -14,8 -22,11 -6,3 -13,6 -19,9 -3,1 -5,2 -8,3 -2,1 -5,2 -7,3 -5,2 -10,3 -15,5 -1,0 -3,1 -5,1 -1,-3 -5,-6 -9,-6zm-8 85c-1,-11 -1,-23 -2,-34 0,-6 0,-11 0,-17 -1,-3 -1,-5 -1,-7 1,0 1,-1 2,-1 0,14 1,27 2,40 1,9 2,18 2,27 0,4 1,8 1,12 0,4 0,8 1,13 0,6 2,12 3,18 1,5 2,9 2,14 1,1 1,1 1,2 -1,-2 -2,-5 -3,-8 -1,-4 -2,-8 -3,-12 -1,-4 -1,-8 -2,-12 -1,-12 -2,-23 -3,-35zm-44 -37c-2,-12 -3,-25 -5,-37 0,0 0,0 0,0 0,0 0,0 0,0 0,-3 -1,-6 -1,-9 5,4 11,6 16,9 5,2 9,4 14,6 1,0 2,1 3,1 -1,2 -1,4 0,6 0,2 2,4 4,4 1,1 1,1 1,2 1,2 1,5 1,7 0,6 0,11 0,17 0,6 0,13 0,19 0,6 0,12 0,17 1,6 1,12 2,17 0,6 0,12 1,18 1,6 2,12 3,19 2,5 3,11 4,16 1,1 1,2 1,3 0,0 0,-1 -1,-1 -2,-2 -5,-3 -8,-3 -2,0 -4,0 -5,1 -5,3 -8,7 -11,10 -1,1 -1,1 -2,2 0,-3 -1,-6 -1,-8 -1,-3 -2,-6 -2,-9 -1,-12 -2,-23 -3,-35 -1,-12 -3,-25 -5,-37 -2,-12 -4,-24 -6,-35zm-390 339c-1,-7 -3,-13 -4,-20 -1,-10 -2,-19 -3,-28 -1,-5 -2,-10 -2,-14 -1,-5 -2,-10 -2,-14 0,0 0,1 0,1 -2,-13 -4,-26 -5,-40 -1,-6 -1,-13 -1,-19 0,-2 0,-5 -1,-7 0,-1 0,-3 0,-4 0,0 0,-1 0,-1 2,0 4,-1 7,-1 4,-1 8,-2 12,-3 17,-2 34,-2 50,-4 5,0 11,-1 16,-2 4,-1 7,-2 11,-4 5,-2 9,-4 13,-6 4,-3 7,-5 11,-8 8,-6 15,-13 23,-19 7,-6 14,-12 22,-18 12,-10 26,-19 39,-28 14,-10 27,-21 40,-31 7,-6 14,-11 21,-16 7,-5 15,-10 22,-15 14,-11 28,-23 41,-34 8,-7 15,-12 22,-18 7,-5 14,-10 20,-15 5,-3 9,-6 14,-10 0,1 0,1 0,1 0,0 0,1 0,2 0,2 0,3 0,5 0,1 2,2 3,3 0,5 1,10 1,15 1,10 2,20 2,30 1,11 1,22 2,33 1,10 2,20 4,30 0,4 0,8 1,11 0,4 0,8 1,12 0,1 0,1 0,2 0,0 0,0 0,0 0,3 0,7 1,10 0,4 1,9 2,14 1,3 4,5 7,4 1,0 1,-1 1,-1 1,2 1,3 2,4 0,0 0,1 0,1 -3,3 -7,7 -12,10 -6,5 -12,9 -18,14 -8,6 -15,12 -23,18 -13,11 -26,22 -38,34 -6,6 -12,12 -18,18 -6,6 -11,12 -17,17 -5,6 -11,12 -17,17 -5,5 -11,10 -16,14 -2,1 -3,2 -4,3 -2,1 -4,3 -6,4 -3,2 -7,3 -10,5 -7,3 -15,6 -23,8 -8,3 -16,5 -25,7 -16,5 -33,9 -50,13 -15,4 -30,8 -46,12 -7,2 -14,4 -21,5 -7,2 -14,3 -21,4 -5,1 -9,1 -14,2 -5,0 -10,1 -15,2 1,-2 1,-3 1,-5zm1034 -686c2,-2 4,-5 7,-8 1,-2 2,-4 3,-6 2,-4 3,-7 3,-11 1,-6 -1,-12 -3,-18 0,0 0,0 0,0 12,-2 24,-4 36,-6 0,4 1,7 2,11 -2,0 -3,1 -5,2 -3,5 -6,10 -9,15 -2,4 -4,8 -6,11 -4,8 -8,15 -11,23 -8,15 -15,30 -22,45 -6,11 -11,22 -16,33 -3,6 -5,13 -8,19 -1,5 -3,10 -5,15 -1,2 -2,4 -3,6 -2,1 -4,1 -7,1 -12,2 -25,2 -37,4 -4,1 -7,1 -10,2 -3,0 -5,1 -7,1 0,-1 0,-2 0,-4 -1,-9 -2,-17 -3,-26 -2,-8 -4,-16 -5,-24 0,-2 -1,-3 -1,-5 0,-2 0,-5 0,-7 -1,-5 -1,-10 -1,-16 0,-4 -4,-8 -8,-8 -2,0 -4,0 -6,1 -3,-3 -7,-7 -10,-11 -2,-2 -3,-4 -5,-7 11,-5 22,-11 34,-16 1,0 2,-1 3,-1 3,-1 5,-1 7,-2 2,0 3,0 5,0 5,1 9,3 14,4 2,1 4,2 6,3 4,1 8,2 12,3 7,0 14,0 20,-2 5,-1 9,-2 13,-4 2,-1 4,-2 6,-3 2,-1 4,-3 5,-4 4,-3 8,-6 12,-10zm6 -95c1,-8 3,-16 4,-24 2,-9 3,-18 2,-27 0,-18 -2,-35 -3,-52 0,-8 -1,-16 -1,-23 3,1 6,1 9,0 2,-1 4,-2 6,-4 1,-1 1,-1 2,-2 6,3 12,6 18,9 3,1 6,3 9,5 3,2 6,4 9,6 4,3 7,7 11,10 3,4 7,7 11,11 -1,0 -1,0 -1,0 -1,2 -1,4 -1,6 -1,10 -2,19 -2,29 -1,8 -1,16 -2,24 -1,5 -1,9 -2,13 0,5 1,10 2,15 2,8 4,16 6,25 1,1 1,2 1,3 -4,0 -7,1 -11,2 -8,1 -16,3 -24,4 -14,3 -28,5 -42,7 0,-2 -1,-4 -1,-6 -1,-5 -1,-10 -1,-16 0,-5 0,-10 1,-15zm-26 234c0,-1 -1,-2 -1,-3 3,-8 7,-16 11,-23 4,-10 10,-19 14,-28 2,-4 3,-7 5,-11 1,-1 1,-2 2,-3 4,-8 8,-16 12,-23 2,-6 5,-12 8,-18 2,-6 5,-11 7,-17 3,-6 6,-12 9,-18 1,-2 2,-3 3,-5 1,0 2,-1 2,-1 1,4 2,7 2,11 2,9 4,18 6,26 2,9 4,17 6,26 0,4 1,8 2,12 0,2 1,5 3,8 0,0 0,1 1,2 -1,0 -1,1 -2,2 -6,8 -11,16 -17,24 -4,7 -9,14 -13,22 -8,14 -16,29 -26,42 -1,1 -2,2 -2,3 -1,1 -1,1 -2,2 -1,0 -2,-1 -3,-1 -1,0 -1,0 -2,0 -2,1 -4,1 -6,1 -5,0 -10,1 -14,2 -4,1 -8,2 -12,4 -4,1 -8,3 -12,4 -9,4 -18,7 -26,11 -8,4 -16,8 -23,12 -2,1 -4,2 -6,3 0,-3 0,-5 0,-7 0,-4 0,-9 -1,-13 0,-4 0,-8 0,-12 -1,-4 -1,-7 -1,-11 13,-2 25,-3 37,-6 5,-1 11,-2 16,-3 3,-1 6,-1 9,-2 3,-1 6,-1 8,-2 5,-1 7,-6 6,-10zm107 -195c1,9 1,17 2,26 1,9 2,17 3,26 1,9 2,17 2,26 1,8 2,17 2,26 0,3 1,7 0,10 0,1 0,2 0,3 -1,0 -1,1 -1,1 0,0 0,1 -1,1 0,0 0,0 0,0 -1,0 -2,0 -2,1 -1,0 -2,0 -3,0 0,0 0,0 -1,-1 0,0 -1,-1 -1,-2 -2,-6 -3,-12 -5,-18 -1,-7 -2,-13 -4,-19 -1,-6 -3,-12 -4,-18 -2,-6 -3,-11 -4,-17 0,-7 -1,-14 -2,-21 -1,-3 -1,-7 -2,-10 -1,-4 -1,-7 -3,-10 5,-1 10,-1 14,-2 3,-1 6,-1 10,-2 0,0 0,0 0,0z"/>
    <path class="fil5 str1" d="M1859 3248l-26 119c-2,14 -3,28 -6,42l-13 101 -6 95c6,1 3,11 2,19l37 15c25,10 41,11 66,16l50 10c43,7 125,-5 169,-7 11,0 25,-2 26,12 6,-3 12,-4 14,3l67 -4c14,-2 23,-6 35,-15l51 -42 60 -46 63 -45c38,-30 51,-43 94,-72l-2 -14 -2 -6c-1,-5 1,-10 5,-12 0,0 5,-13 15,-6l35 -10 51 -14 48 -18 72 -34 69 -37 69 -39 69 -37 73 -34 58 -27c31,-14 36,-2 57,1 14,2 29,-5 40,-15 12,-12 9,-14 5,-27 -3,-2 -6,-8 -2,-12 -7,-38 3,-51 6,-78l-3 -107c0,-3 2,-6 4,-7l0 -1 -1 -10c-1,-7 -2,-14 -2,-21 -6,-61 -11,-92 -35,-149l-63 -127c-4,3 -10,2 -13,-2l-38 -38 -56 -52c-26,-29 -66,-39 -103,-48 -21,-5 -82,-3 -107,-2l-82 4c-59,4 -100,13 -154,31 -77,26 -148,71 -218,111 -55,31 -106,73 -155,114 -49,42 -75,67 -115,119 -49,63 -137,199 -169,274 -17,41 -30,84 -39,129z"/>
    <path class="fil5 str1" d="M1736 2790l0 0zm159 191c34,-61 88,-127 135,-179 41,-45 69,-70 115,-110l93 -78c55,-42 110,-77 173,-105l114 -51c93,-39 134,-42 233,-44 73,-2 98,16 163,15 30,0 48,3 76,13 -18,-25 -29,-36 -54,-55 -4,4 -12,3 -17,1l-36 -14c-39,-16 -61,-25 -102,-34l-58 -8c-40,-4 -65,-10 -107,-10 -88,-1 -160,3 -244,32 -70,24 -90,35 -154,70 -69,37 -85,40 -152,90 -31,22 -54,52 -80,79l-76 80c-22,24 -48,60 -69,86l-27 33 -4 9c-2,8 -5,7 -8,11 -1,2 -2,4 -3,5 -7,9 -14,2 -14,2l-29 -16 -27 -13c-13,6 -18,-7 -19,-17 -5,-46 -2,-67 0,-115 1,-6 0,-17 4,-19 -4,-2 -7,-7 -3,-12 10,-11 19,-23 29,-34l14 -18c23,-27 70,-71 96,-95 45,-43 120,-93 172,-125l90 -53 99 -47c43,-16 107,-34 151,-44l60 -14 -24 -2 -77 6 -141 28c-28,9 -71,23 -96,36 -41,20 -92,49 -128,77l-72 56c-62,48 -66,59 -116,109 -35,35 -43,54 -71,88 -43,49 -43,49 -75,100l-49 98 -25 64c-19,43 -22,60 -38,105l-40 103c-12,34 -12,51 -16,86l-4 31 8 8c16,49 30,64 49,107 23,50 41,94 70,142 38,63 54,85 101,139 35,42 63,71 109,100 -1,-9 -4,-26 -1,-35l-1 -2c-2,6 -8,8 -12,4 -5,-5 -6,-43 -5,-51l2 -82 13 -123 34 -176c10,-43 14,-75 29,-118 10,-31 28,-88 42,-114z"/>
    <path class="fil5 str1" d="M2079 2770c-60,61 -130,141 -172,217 -15,28 -32,84 -43,116 -12,38 -16,78 -25,117l-22 119 -20 135 -6 81c-2,30 -3,48 1,78l9 -9 0 -3c-2,0 -3,-2 -3,-3l6 -77 2 -63 13 -107c6,-47 16,-79 25,-125 11,-55 28,-109 53,-159 42,-85 136,-224 198,-296 38,-45 128,-119 174,-154 39,-30 66,-42 106,-66l111 -60c33,-15 82,-34 118,-43 71,-18 89,-16 163,-21l86 -4c-29,-5 -58,-10 -88,-9 -41,0 -75,-1 -117,5 -73,10 -158,54 -224,83 -47,20 -94,45 -137,74 -45,31 -169,135 -208,174z"/>
    <path class="fil5 str1" d="M1851 2631l67 -69c30,-28 40,-40 75,-63 55,-37 109,-72 168,-102l47 -27c57,-36 120,-61 183,-82 65,-22 110,-37 180,-37l61 5c21,0 43,0 64,2 11,1 21,2 31,2 24,2 47,2 70,11l-78 -35c-40,-15 -58,-16 -101,-20l-81 -9 -53 -2 -3 9 -22 6c-6,1 -12,2 -19,3 -55,8 -81,15 -136,31 -80,23 -100,31 -174,68l-73 40 -68 46 -82 55c-37,25 -32,23 -67,54l-100 105c5,2 20,20 39,31l41 20 31 -42z"/>
    <path class="fil5 str1" d="M1974 2542c-29,22 -95,84 -116,110l-43 59 -1 13 1 54c37,-57 79,-98 121,-150l39 -45c23,-25 38,-41 65,-62l33 -28c9,-8 19,-16 29,-24 24,-19 92,-58 122,-73 37,-19 109,-47 149,-60 40,-14 62,-20 104,-27 31,-5 109,-6 144,-7 45,0 64,4 108,8 13,1 26,1 38,3 59,8 77,15 131,37l-10 -9 -46 -37 -22 -6 -14 1c-2,-1 -4,-1 -6,-2l-47 -9 -63 -4 -129 0c-10,1 -21,3 -31,4 -45,6 -58,7 -103,19 -83,22 -98,30 -174,70l-115 60c-40,23 -129,78 -164,105z"/>
    <path class="fil5 str1" d="M1792 2736l4 -50c-23,-9 -41,-22 -60,-38l-1 21 2 65c-2,13 -3,13 -1,24l12 11 45 30 -1 -63z"/>
    <path class="fil5 str1" d="M1450 3586l-27 -52c-3,-2 -27,2 -39,-12 -18,-22 -14,-84 -15,-109 0,-18 -1,-36 -2,-53l1 -64 -80 86 -68 73 -45 43 -5 26 -4 32c-3,59 3,78 16,134 17,81 14,69 62,138 33,48 42,47 75,84 41,46 58,61 112,94l48 30 103 53c30,13 44,15 73,24l104 27c32,8 124,26 153,22 19,-3 67,-28 84,-37l64 -33c53,-27 87,-55 134,-86 47,-30 108,-58 159,-80 51,-22 71,-27 119,-60 45,-30 58,-44 93,-89 7,-9 13,-17 20,-25 40,-46 69,-74 119,-109 43,-30 97,-57 144,-84 10,-5 19,-11 29,-17l61 -31 29 -16c-5,3 -11,6 -19,9l-120 54 -61 28 -70 32 -41 20c-20,10 -26,11 -47,5l-51 42c-28,20 -53,42 -78,65 -19,19 -37,38 -60,54l-48 23 -76 19 -71 16 -51 7 -8 4 -1 1c0,1 0,1 0,2 0,6 -27,36 -38,35l-4 2c-22,7 -45,16 -67,18 -38,3 -46,-2 -79,-10l-64 -10c-47,-6 -61,-16 -105,-30 -6,-2 -9,-7 -8,-13l-33 -15 -85 -54c-45,-31 -126,-96 -166,-133 -27,-25 -48,-46 -66,-80z"/>
    <path class="fil5 str1" d="M1447 3544c13,26 19,43 37,67 20,25 63,61 87,80 56,43 103,81 163,117l43 26 29 15 2 -63 0 -80c-8,1 -33,-17 -40,-21 -37,-24 -62,-49 -91,-83l-84 -104c-46,-67 -67,-114 -98,-187l-38 -80c-11,56 -7,56 -9,113l-10 104 -2 48c1,1 1,3 1,4 -1,4 -1,10 -7,10 -8,0 -8,-12 -8,-18 -5,-51 -3,-70 0,-121l1 -79 14 -79 10 -9 -3 -6c-3,3 -20,2 -40,10 -15,7 -12,7 -18,26l-3 7c2,2 4,5 4,8l-1 134c2,32 1,77 5,104 2,17 4,28 23,30 20,1 24,5 33,27z"/>
    <path class="fil5 str1" d="M1820 3704l1 40 -1 42 -1 70 8 8 51 17c30,9 64,7 94,9 20,1 34,7 51,9 41,6 55,-4 89,-9 -9,-36 -7,-69 -9,-108l-4 -35 -34 -2c-16,0 -31,-2 -46,-3 -50,-3 -69,-1 -121,-11l-78 -27z"/>
    <path class="fil5 str1" d="M1816 3688c23,9 66,26 93,29 41,6 56,4 97,6l52 2 31 1 39 -44 -95 10c-34,3 -61,3 -94,-6l-64 -13c-28,-4 -41,-14 -64,-21l-2 1 7 35z"/>
    <path class="fil5 str1" d="M2162 3701l7 71 2 13 5 42c1,7 3,13 4,20 0,2 0,3 -1,5l71 -13 96 -25c52,-14 65,-20 101,-58l73 -69 53 -42 -2 -5 -8 -3 -5 -49 -9 -108c-1,-1 -3,-2 -3,-3l0 -8 -56 43 -63 49 -61 47c-13,9 -27,18 -39,28 -39,30 -51,52 -96,57 -29,4 -39,1 -69,8z"/>
    <path class="fil5 str1" d="M2153 3842c-3,-26 -1,-52 -3,-79l-4 -57 0 0c1,6 -9,14 -13,19 -7,8 -12,16 -18,16l-2 3 6 58 7 63 2 19 13 -17 0 0c-1,-4 2,-9 5,-9l9 -7 -2 -9z"/>
    <path class="fil5 str1" d="M2635 3534l2 48 7 46 25 -13 47 -23 70 -35 70 -33 72 -36c58,-29 59,-38 109,-70l67 -42c-1,-1 -1,-2 -2,-3l-5 -49c-11,2 -17,-15 -1,-19l-1 -13 -5 -51c-3,3 -7,7 -10,10 -33,31 -41,38 -83,65 -44,27 -73,38 -119,59l-72 33 -96 44 -75 28c0,1 0,2 -1,3 -1,1 -1,2 -2,2l3 49z"/>
    <path class="fil5 str1" d="M2751 3413l95 -49c39,-19 79,-36 117,-57 49,-28 68,-42 109,-77l-20 -9c-4,-2 -7,-8 -5,-13l-66 32 -45 24 -93 53 -45 25c-44,24 -135,65 -184,77l-54 15 0 3 11 3c7,7 33,18 44,22 2,-1 5,-2 7,-2 4,0 8,3 9,6l54 -21 66 -32z"/>
    <path class="fil5 str1" d="M2613 3620c-13,-49 -9,-81 -11,-130 0,-1 0,-1 -1,-2 -4,-1 -6,-6 -4,-10l-33 -16 1 9 5 37 11 72c1,12 2,23 3,35l3 17c5,-5 17,-21 27,-9l-1 -3z"/>
    <path class="fil5 str1" d="M2916 3545l-59 33c-65,36 -142,74 -196,126l114 -41 95 -38 57 -23c2,-6 9,-10 15,-7l6 -4c10,-5 20,4 18,13l96 43c33,18 48,42 67,49l8 -2c28,-11 61,-43 81,-65 21,-22 41,-54 55,-80 17,-30 30,-78 36,-110 -11,12 -29,0 -22,-17 3,-7 5,-13 11,-15 12,-3 14,10 15,11 1,-8 3,-16 5,-24 1,-4 2,-8 3,-11l-58 18c-2,15 -46,45 -57,51 -16,9 -53,34 -64,11l-4 -11 4 -28 -111 60 -115 61z"/>
    <path class="fil5 str1" d="M3215 3388l52 -7c50,-13 85,-31 107,-79 14,-30 24,-53 28,-87 2,-17 1,-29 -4,-46 -11,-42 -12,-56 -34,-95 -17,-30 -22,-49 -46,-77l-1 26 -2 35 5 31 1 7c1,10 1,21 2,31l5 93c-2,14 -11,24 -26,24 0,1 0,2 -1,3 -23,30 -33,53 -53,81 -4,5 -7,10 -11,15 0,1 -1,3 -2,5 -4,7 -11,7 -17,8 -16,1 -43,11 -56,16 -27,12 -57,32 -82,48l-64 43c-18,13 -26,19 -35,25l47 -26 106 -55c19,-8 61,-16 81,-19z"/>
    <path class="fil5 str1" d="M3177 3292l8 -21 24 -52 33 -68c4,-8 13,-27 20,-28 -1,-4 -2,-7 -2,-11l-36 6 0 0c6,19 5,28 -10,43 -40,41 -76,15 -88,13 -12,-1 -39,15 -49,19l15 18c6,-4 14,0 14,7 1,31 1,21 7,52l3 30 17 -3 44 -5z"/>
    <path class="fil5 str1" d="M3223 3235l-31 62c1,1 2,2 2,3 1,4 -1,9 -6,10l-70 13 2 43 67 -30c9,-4 27,-8 37,-6l30 -47 32 -48 -6 -22 -14 -63c0,0 -1,1 -2,1l-12 23 -29 61z"/>
    <path class="fil5 str1" d="M3221 3103l77 -13 -1 -3c-13,-55 -6,-26 -4,-77l4 -35c-24,-24 -26,-26 -58,-41 -5,6 -10,8 -17,6l4 75c1,23 -3,31 -6,51l1 37z"/>
    <path class="fil5 str1" d="M3277 3109l7 41 8 35 10 39 7 -1c4,-5 -2,-57 -3,-66l-5 -52 0 0 -24 4z"/>
   </g>
   <g>
    <polygon class="fil6" points="9010,3897 7155,3897 7289,2752 8876,2752 "/>
    <path class="fil7" d="M8069 3817l-824 0 23 -197 0 13 801 0 0 184zm0 -211l-799 0 21 -183 0 13 778 0 0 170zm0 -197l-776 0 21 -183 0 13 755 0 0 170zm0 -196l-753 0 21 -184 0 13 732 0 0 171zm0 -197l-730 0 21 -184 722 0 -13 0 0 184z"/>
    <polygon class="fil6" points="8069,3817 8096,3817 8096,2832 8069,2832 "/>
    <polygon class="fil6" points="8348,3817 8310,2833 8337,2832 8375,3816 "/>
    <polygon class="fil6" points="8627,3818 8551,2833 8577,2831 8654,3816 "/>
    <polygon class="fil6" points="7817,3817 7790,3816 7828,2832 7855,2833 "/>
    <polygon class="fil6" points="7538,3818 7511,3816 7588,2831 7614,2833 "/>
    <polygon class="fil6" points="7337,3042 8828,3042 8828,3016 7337,3016 "/>
    <polygon class="fil6" points="7314,3239 8851,3239 8851,3213 7314,3213 "/>
    <polygon class="fil6" points="7291,3436 8874,3436 8874,3409 7291,3409 "/>
    <polygon class="fil6" points="7268,3633 8897,3633 8897,3606 7268,3606 "/>
    <polygon class="fil8" points="7937,4127 8228,4127 8228,3886 7937,3886 "/>
    <polygon class="fil9" points="7855,4185 8310,4185 8310,4069 7855,4069 "/>
    <polygon class="fil10" points="9010,3897 8228,3897 8228,3886 8082,3886 8082,3817 8348,3817 8348,3817 8362,3817 8627,3817 8627,3818 8641,3817 8920,3817 8897,3620 8897,3606 8895,3606 8874,3423 8874,3409 8872,3409 8851,3226 8851,3213 8849,3213 8828,3029 8828,3016 8826,3016 8805,2832 8577,2832 8577,2831 8564,2832 8337,2832 8337,2832 8323,2832 8082,2832 8082,2752 8876,2752 "/>
    <path class="fil11" d="M8920 3817l-279 0 13 -1 -14 -183 257 0 0 -13 23 197zm-293 0l-265 0 13 -1 -7 -183 245 0 14 184zm-279 0l-252 0 0 -184 245 0 7 184zm547 -211l-257 0 -14 -170 250 0 0 -13 21 183zm-284 0l-244 0 -7 -170 238 0 13 170zm-271 0l-244 0 0 -170 237 0 7 170zm532 -197l-250 0 -13 -170 242 0 0 -13 21 183zm-277 0l-236 0 -7 -170 230 0 13 170zm-263 0l-236 0 0 -170 230 0 6 170zm517 -196l-242 0 -13 -171 234 0 0 -13 21 184zm-269 0l-229 0 -6 -171 222 0 13 171zm-255 0l-229 0 0 -171 222 0 7 171zm501 -197l-234 0 -15 -184 228 0 21 184zm-261 0l-221 0 -7 -184 227 0 -13 1 14 183zm-248 0l-221 0 0 -184 -14 0 241 0 -13 1 7 183z"/>
    <path class="fil10" d="M8096 3817l-14 0 0 -184 14 0 0 184zm0 -211l-14 0 0 -170 14 0 0 170zm0 -197l-14 0 0 -170 14 0 0 170zm0 -196l-14 0 0 -171 14 0 0 171zm0 -197l-14 0 0 -184 14 0 0 184z"/>
    <path class="fil10" d="M8348 3817l0 0 -7 -184 27 0 7 183 -13 1 -14 0zm19 -211l-27 0 -7 -170 27 0 7 170zm-8 -197l-27 0 -6 -170 26 0 7 170zm-8 -196l-26 0 -7 -171 27 0 6 171zm-7 -197l-27 0 -7 -183 13 -1 14 0 0 0 7 184z"/>
    <path class="fil10" d="M8627 3818l0 -1 -14 -184 27 0 14 183 -13 1 -14 1zm11 -212l-27 0 -13 -170 26 0 14 170zm-16 -197l-27 0 -13 -170 27 0 13 170zm-15 -196l-27 0 -13 -171 27 0 13 171zm-15 -197l-27 0 -14 -183 13 -1 13 -1 0 1 15 184z"/>
    <polygon class="fil10" points="8828,3042 8082,3042 8082,3016 8828,3016 "/>
    <polygon class="fil10" points="8851,3239 8082,3239 8082,3213 8851,3213 "/>
    <polygon class="fil10" points="8874,3436 8082,3436 8082,3409 8874,3409 "/>
    <polygon class="fil10" points="8897,3633 8082,3633 8082,3606 8897,3606 "/>
    <polygon class="fil12" points="8228,4069 8082,4069 8082,3886 8228,3886 "/>
    <polygon class="fil13" points="8310,4185 8082,4185 8082,4069 8310,4069 "/>
    <path class="fil14" d="M9056 2602c0,144 -117,261 -261,261 -144,0 -261,-117 -261,-261 0,-144 117,-261 261,-261 144,0 261,117 261,261z"/>
    <path class="fil14" d="M8795 2299c21,0 42,2 63,6l0 0c-34,-56 -63,-174 -63,-232 0,58 -29,176 -64,232l0 0c21,-4 42,-6 64,-6z"/>
    <path class="fil14" d="M9098 2602c0,22 -2,43 -6,63l0 0c55,-34 174,-63 232,-63 -58,0 -177,-29 -232,-63l0 0c4,20 6,42 6,63z"/>
    <path class="fil14" d="M8795 2906c-22,0 -43,-3 -64,-7l0 0c35,56 64,175 64,233 0,-58 29,-177 63,-233l0 0c-21,4 -42,7 -63,7z"/>
    <path class="fil14" d="M8491 2602c0,-21 2,-43 7,-63l0 0c-56,34 -175,63 -233,63 58,0 177,29 233,63l0 0c-5,-20 -7,-41 -7,-63z"/>
    <path class="fil14" d="M8580 2388c15,-16 32,-29 49,-40l0 0c-63,-16 -168,-79 -209,-120 41,41 105,145 120,209l0 0c11,-17 25,-34 40,-49z"/>
    <path class="fil14" d="M9009 2388c16,15 29,32 40,49l0 0c16,-64 79,-168 120,-209 -41,41 -145,104 -209,120l0 0c17,11 34,24 49,40z"/>
    <path class="fil14" d="M9009 2817c-15,15 -32,29 -49,40l0 0c64,15 168,79 209,120 -41,-41 -104,-146 -120,-209l0 -1c-11,18 -24,35 -40,50z"/>
    <path class="fil14" d="M8580 2817c-15,-15 -29,-32 -40,-50l0 1c-15,63 -79,168 -120,209 41,-41 146,-105 209,-120l0 0c-17,-11 -34,-25 -49,-40z"/>
   </g>
   <path class="fil15 str2" d="M5472 3537c0,0 -29,-32 -24,-50 0,-1 1,-3 1,-4l-2 1c-1,2 -1,3 -2,2 -8,-12 -20,-23 -29,-32l-11 -12c-1,-1 -2,-2 -2,-3 -5,0 -12,-2 -22,-8 -4,-3 -9,-6 -14,-9 -9,-5 -17,-9 -24,-15 -1,-2 -6,-3 -12,-5 -7,-2 -14,-4 -19,-5 0,0 -1,0 -1,-1 -7,-1 -14,-4 -19,-8 -9,-7 -14,-17 -11,-29l0 -1c0,-1 -6,-13 -13,-27l-3 -4c-4,-8 -6,-14 -7,-19 -1,-3 -2,-5 -3,-6 -3,-2 -11,-6 -20,-9 -11,-6 -23,-11 -29,-17 -5,-5 -14,-14 -19,-20 -7,-1 -17,-4 -27,-9 -7,-4 -15,-11 -24,-19 -8,-8 -12,-18 -15,-19 -2,12 -5,24 -26,27 -7,1 -14,1 -21,0 3,6 6,12 8,19 0,3 4,6 9,9 6,4 13,8 19,15 2,2 4,5 6,7 12,13 17,18 8,41 -2,6 -3,11 -4,17 -1,6 -1,14 0,23 2,25 -5,27 -19,30 0,0 0,0 -4,8 -4,10 -7,22 -11,35 -7,25 -15,50 -28,65 -7,7 -11,12 -16,18 -8,10 -19,22 -43,49 -16,17 -25,28 -32,37 -10,13 -18,24 -41,46 -20,21 -43,38 -70,52 -26,14 -55,25 -89,33 -63,14 -141,42 -141,42 -11,5 -80,35 -106,71 -14,19 -25,29 -35,37 -10,9 -17,15 -23,36l-6 19c-11,33 -18,56 -32,85 -6,13 -7,19 -7,24 0,9 -1,18 -8,34l-2 5c-14,28 -26,55 -47,62 -11,5 -18,4 -23,0 2,4 4,9 3,9 -20,13 -34,21 -48,22 -17,2 -30,-6 -45,-25 -15,-18 -19,-27 -24,-38 -2,-5 -5,-10 -10,-19 -6,-11 -8,-19 -8,-25l0 3c0,2 0,4 0,4 -14,0 -21,0 -26,1 -10,0 -14,1 -23,-2 -9,-2 -13,-7 -19,-13 -3,-4 -8,-10 -20,-14 -11,-4 -19,-8 -25,-11l0 0 1 -2c-8,11 -23,23 -34,29 -5,3 -9,4 -13,5 -10,2 -18,-1 -24,-10 -3,-4 -4,-9 -3,-15 1,-9 6,-20 12,-28 -10,-9 -21,-21 -21,-31 0,-1 -1,-2 -1,-4 -2,-6 -4,-12 -3,-19 2,-15 10,-25 33,-22 11,1 18,5 23,9 4,-3 7,-5 10,-7 1,0 0,0 0,-3 -1,-13 -8,-41 -13,-62 -5,4 -11,8 -15,12l-2 2c-7,8 -10,12 -16,17 -5,4 -11,9 -23,18l-8 6c-30,23 -40,31 -58,47l-5 5c-11,10 -14,12 -16,13 -1,1 -2,1 -18,16 -21,21 -29,38 -31,44 0,7 -1,28 -2,41 0,6 0,12 2,18 2,4 4,8 8,11 16,13 38,42 38,42l24 31 -30 0c0,6 0,12 1,15 13,0 28,0 42,26 5,9 8,21 9,33 1,12 1,26 -1,37 -3,14 -9,27 -19,32 -2,1 -5,2 -9,2 -4,1 -7,0 -10,0 -2,8 -3,11 -3,24l0 3c0,4 0,4 9,8 21,9 52,20 52,20l3 0 2 2c0,0 127,82 168,130 28,32 45,66 60,96 6,13 12,25 19,36 10,17 18,36 27,55 9,22 18,42 27,51 4,5 13,12 23,19 24,18 53,39 62,68 6,20 15,32 22,42 5,7 9,13 12,20 3,6 18,35 38,71 33,63 78,147 87,170 9,20 21,42 36,66 9,15 18,31 28,49 9,17 17,29 24,39 14,20 23,34 23,57 0,14 -3,23 -6,31 -2,5 -3,8 3,16 7,8 16,18 25,29 19,20 39,43 51,60l10 15c15,23 30,45 32,57 0,2 20,23 47,55 50,61 120,146 130,175 9,25 8,43 6,64 -2,16 -3,33 1,57 4,26 11,55 24,83 12,27 30,54 56,76 33,28 86,73 135,111 32,26 62,48 81,60 45,28 121,49 121,49l2 0 2 1c1,1 309,158 421,222 32,18 53,30 71,40 65,35 90,49 93,72 1,3 1,6 1,9 0,8 0,14 78,49 49,22 101,44 140,56l46 14c1,-10 1,-24 0,-38 -1,-27 -3,-53 13,-70 9,-10 22,-16 36,-22 16,-6 32,-13 32,-23 -1,-8 -6,-14 -10,-19 -3,-3 -5,-6 -7,-9 -12,-18 -13,-33 23,-56 17,-11 29,-17 39,-21 11,-5 17,-8 28,-26 16,-27 15,-66 14,-85l0 -9c0,-1 -1,1 -2,0 -4,-2 -9,-4 -15,-8 -11,-7 -23,-26 -33,-48 -9,-21 -16,-47 -18,-65 -2,-22 6,-37 15,-54 6,-11 12,-24 13,-40 1,-12 -7,-20 -15,-26 -12,-11 -23,-20 -21,-41 2,-17 10,-23 23,-33 13,-10 33,-25 48,-79 17,-63 13,-73 10,-86 -2,-7 -4,-14 -5,-25 -1,-7 -1,-11 -2,-15 -3,-34 -7,-76 11,-124 16,-41 46,-101 58,-125l-191 -273c-10,2 -25,2 -42,-3 -10,-3 -16,-7 -21,-10l-1 2c-6,19 -10,32 -60,30 -61,-4 -68,-25 -69,-29 -10,-68 -9,-177 -13,-249l2 -8c-6,5 -12,8 -17,11 -18,8 -97,54 -110,62 -5,4 -20,13 -49,10 -27,-3 -130,-4 -131,-4l-14 0 -4 -14c0,0 -19,-62 -39,-81 -8,-8 -21,-13 -36,-16 -16,-3 -34,-4 -48,-4l-142 0 45 -34c0,-1 43,-33 43,-45 0,-16 -8,-26 -8,-26l-1 -2c0,0 -26,-46 -34,-49 -8,-3 -14,-5 -21,-11 -6,-5 -11,-11 -17,-22l-4 -7c-2,-6 -3,-7 -15,-15 -4,-3 -8,-4 -11,-6 -17,-6 -25,-10 -28,-43 -1,-14 -1,-22 0,-27 -12,-10 -17,-15 -17,-15l-36 -23 30 -8c-16,-7 -31,-17 -32,-40 -1,-25 -1,-41 -1,-41l0 -33 29 16c0,0 2,2 4,-1 4,-9 7,-16 8,-24 1,-7 1,-16 -2,-27 -1,-5 -2,-10 -3,-14 -8,-26 -13,-44 18,-66 19,-13 37,-22 53,-29 7,-4 14,-7 18,-9 9,-6 17,-7 23,-7 3,-1 6,-1 10,-8 9,-16 0,-40 0,-40l0 -1 -1 -1c0,0 -11,-45 27,-86 8,-9 12,-13 16,-16 12,-14 13,-15 16,-30 1,-7 1,-14 1,-21 0,-20 0,-38 18,-57 13,-15 29,-20 48,-27 11,-4 24,-8 38,-16 20,-11 33,-21 49,-31 12,-8 25,-17 40,-27l12 -8c29,-18 36,-22 58,-27 11,-2 18,-1 26,0 9,1 18,2 34,-4 16,-6 38,-11 59,-15 21,-5 41,-9 48,-13 15,-8 44,-29 44,-29l8 -5 8 3c0,0 14,5 35,6 13,1 23,2 33,4 9,2 18,5 27,10l6 3c1,0 0,1 -1,1l1 0 3 -1c-5,-4 -9,-10 -14,-17l-3 -6c-13,-22 -19,-32 -27,-35 -10,-4 -10,-4 -19,-2 -2,0 -6,2 -10,3 -6,2 -12,4 -19,5 -18,4 -32,0 -36,-22l-1 -6c-4,-18 -7,-31 16,-59l10 -13c30,-36 103,-123 100,-134 -1,-2 -4,-3 -8,-4 -11,-3 -22,-6 -33,-19 -4,-5 -7,-10 -10,-13 -4,-6 -5,-8 -19,-14l-12 -5c-18,-7 -29,-12 -45,-21l-10 -6c-10,-7 -19,-12 -24,-12 -2,0 -8,3 -15,6 -9,5 -21,11 -35,14 -13,3 -28,6 -43,8 -18,2 -35,1 -45,-8 -1,-1 -2,-2 -3,-3 -7,-5 -16,-13 -79,10 -65,24 -85,16 -101,9 -3,-1 -6,-2 -8,-2 -10,0 -22,-1 -34,-2 -12,0 -25,-1 -41,-1 -15,0 -30,-2 -42,-5 -16,-5 -27,-13 -31,-24 -6,-8 -10,-14 -1,-42 4,-12 -5,-34 -10,-45l-35 -9 -4 -4zm-1466 435l0 0z"/>
   <path class="fil16" d="M6674 8281c0,752 -610,1362 -1362,1362 -752,0 -1362,-610 -1362,-1362 0,-752 610,-1361 1362,-1361 752,0 1362,609 1362,1361z"/>
   <g>
    <path class="fil17" d="M5590 9239l-687 0 0 -1816 687 0 0 1816zm-778 -1907l0 1999 869 0 0 -1999 -869 0z"/>
    <polygon class="fil17" points="4978,7332 5515,7332 5515,7156 4978,7156 "/>
    <polygon class="fil6" points="4978,9159 5515,9159 5515,8980 4978,8980 "/>
    <polygon class="fil6" points="4978,8914 5515,8914 5515,8735 4978,8735 "/>
    <polygon class="fil6" points="4978,8670 5515,8670 5515,8490 4978,8490 "/>
    <polygon class="fil6" points="4978,8425 5515,8425 5515,8245 4978,8245 "/>
    <polygon class="fil6" points="4978,8180 5515,8180 5515,8001 4978,8001 "/>
    <polygon class="fil7" points="5247,9159 5515,9159 5515,8980 5247,8980 "/>
    <polygon class="fil7" points="5247,8914 5515,8914 5515,8735 5247,8735 "/>
    <polygon class="fil7" points="5247,8670 5515,8670 5515,8490 5247,8490 "/>
    <polygon class="fil7" points="5247,8425 5515,8425 5515,8245 5247,8245 "/>
    <polygon class="fil7" points="5247,8180 5515,8180 5515,8001 5247,8001 "/>
    <path class="fil18" d="M5926 8769c-79,79 -380,151 -486,262 -173,180 -97,412 -97,412 267,145 449,25 516,-77 125,-188 67,-597 67,-597z"/>
    <path class="fil19" d="M5796 9070c-35,50 -73,104 -115,155 -30,37 -62,73 -97,106 -58,56 -123,103 -197,133 -178,66 -329,38 -453,-113l-17 -20 83 0c52,52 112,94 199,103 108,16 231,-43 319,-103 53,-35 93,-70 112,-90 24,-24 40,-39 51,-50 36,-34 24,-24 115,-121z"/>
   </g>
   <g>
    <path class="fil20" d="M9488 4471l802 1042c0,0 99,568 -187,832 -285,263 -1113,262 -1113,262l-1123 -1519c614,156 1266,-91 1621,-617z"/>
    <path class="fil21" d="M10354 6401c-192,447 -802,1871 -802,1871 0,0 -287,356 -669,345 -280,-9 -670,45 -670,45l-89 748 -1037 -1549 784 -1672 70 658c0,0 1976,222 2413,-446z"/>
   </g>
   <g>
    <path class="fil22" d="M3491 8790l-1308 130c0,0 -534,-215 -608,-598 -73,-381 366,-1084 366,-1084l1882 -151c-456,440 -590,1123 -332,1703z"/>
    <path class="fil23" d="M1396 8506c-279,-400 -1167,-1669 -1167,-1669 0,0 -150,-432 61,-750 155,-233 316,-594 316,-594l-588 -470 1862 -62 1006 1548 -596 -288c0,0 -1231,1561 -894,2285z"/>
   </g>
  </g>
 </g>
</svg>
